<svg xmlns="http://www.w3.org/2000/svg" viewBox="0 0 120 120" x="0px" y="0px">
    <g>
        <path d="M10.689,64.273a.374.374,0,0,0,.231-.67,6.056,6.056,0,0,0-3.271-1.354A2.364,2.364,0,0,0,5.21,63.632a6.568,6.568,0,0,0-.489,2.574A18.4,18.4,0,0,0,4.8,68.192l.01.136a.364.364,0,0,0,.319.324.352.352,0,0,0,.056,0,.4.4,0,0,0,.358-.242c.045-.1.089-.206.137-.3C6.441,66.68,8.112,64.273,10.689,64.273Z"/>
        <path d="M55.373,54.354a19.971,19.971,0,0,1,.859-3.49.372.372,0,0,0-.041-.329q-.547-.834-1.1-1.6a.375.375,0,0,0-.679.192l-.289,1.984c-.078.446-.177,1-.356,1.657a.374.374,0,0,0,.145.4l.159.106a2.438,2.438,0,0,1,.523,1l.052.145a.376.376,0,0,0,.352.245l.037,0A.374.374,0,0,0,55.373,54.354Z"/>
        <path d="M45.578,54.029A1.982,1.982,0,0,0,45,56.24c.436,1.539,1.953,1.942,3.761,1.942a28.907,28.907,0,0,0,3.244-.258,20.1,20.1,0,0,1,2.735-.211.368.368,0,0,0,.385-.353l.016-.408a.376.376,0,0,0-.259-.378,1.017,1.017,0,0,1-.432-.249,2.488,2.488,0,0,1-.417-1.021c-.159-.6-.339-1.279-.914-1.544C51.92,53.2,47.327,52.538,45.578,54.029Z"/>
        <path d="M69.112,38.1l-1.522,0c-3.254-.01-6.327-.025-8.893.232a27.652,27.652,0,0,0-6.415,1.318.375.375,0,0,0-.11.648,31.39,31.39,0,0,1,3.769,3.53,54.468,54.468,0,0,1,3.525,4.3q.791,1.051,1.521,2.041l.72.977.346-.163-.285.249.675.775c1.32,1.594,2.585,2.888,3.649,3.945a.381.381,0,0,0,.142.088c.2.069.414.138.667.217a10.932,10.932,0,0,0,2.179.4c.246.016.5.024.763.024a16.112,16.112,0,0,0,2.147-.154c1.017-.131,2.108-.357,3.541-.679.351-.083.712-.164,1.079-.245l1.354-.293c.2-.041.407-.083.632-.122L79.684,55c2.944-.5,6.149-1,9.523-1.494l4.932-.7c.179-.02.337-.042.5-.064.216-.03.436-.061.727-.087l3.465-.241c.69-.051,1.42-.111,2.1-.206.336-.047.663-.1.932-.162a2.5,2.5,0,0,0,.382-.107.984.984,0,0,0,.215-.071.383.383,0,0,0,.173-.14l.06-.09a.369.369,0,0,0,.056-.135.916.916,0,0,0,.03-.1,1.313,1.313,0,0,0-.03-.6,2.708,2.708,0,0,0-.209-.478.364.364,0,0,0-.109-.128l-.608-.449c-.372-.276-.744-.552-1.114-.82-1.931-1.411-3.829-2.838-5.7-4.24a73.415,73.415,0,0,0-11.073-7.193.38.38,0,0,0-.1-.033c-.318-.054-.639-.108-.981-.139a29.353,29.353,0,0,0-6.053.371A56.568,56.568,0,0,1,69.112,38.1Z"/>
        <path d="M12.1,46.774a.377.377,0,0,0,.3.394.462.462,0,0,0,.073.007.373.373,0,0,0,.355-.257,25.87,25.87,0,0,1,1.474-3.458c.476-.912.985-1.766,1.476-2.592.22-.37.438-.737.639-1.085.3-.454.605-.908.908-1.359l.782-1.159a.261.261,0,0,0,.02-.032c.013-.014.023-.027.028-.033l.132-.152c.1-.1.193-.2.286-.3.137-.144.275-.288.429-.435a6.54,6.54,0,0,1,2.053-1.3c.173-.07.347-.139.486-.191l.566-.145a6.693,6.693,0,0,1,.708-.144l2.307-.351c.671-.091,1.334-.174,2.007-.258a33.7,33.7,0,0,1,3.539-.281l.389-.018a33.051,33.051,0,0,1,14.485,2.763,17.756,17.756,0,0,1,2.218,1.077c.277.151.551.3.826.443l.712.376,1.189.777c.235.154.469.308.7.47a.377.377,0,0,0,.443-.011l.118-.091a17.624,17.624,0,0,1,6.75-2.5,60.8,60.8,0,0,1,10.6-.643c3.18.015,5.513-.044,7.555-.2.638-.045,1.275-.083,1.9-.105a.375.375,0,0,0,.127-.722l-.335-.132c-.13-.051-.26-.1-.416-.165L75,34.031q-.5-.156-1-.316l-2.762-.726c-.688-.17-1.37-.339-2.069-.515-.661-.129-1.319-.248-1.971-.366l-.892-.161c-1.33-.282-2.667-.439-3.96-.59-.566-.066-1.127-.132-1.7-.209a115.264,115.264,0,0,0-20.611.006l-4.616.289c-1.486.166-2.935.324-4.338.475l-6.1.665c-.649.078-1.233.105-1.8.13l-.388.018a33.032,33.032,0,0,0-3.411.276,4.589,4.589,0,0,0-1.255.355.487.487,0,0,0-.2.154.375.375,0,0,0-.137.159,1.177,1.177,0,0,0-.1.355c-.015.09-.026.208-.04.348a6.07,6.07,0,0,1-.283,1.476,3.729,3.729,0,0,1-.237.573,3.268,3.268,0,0,0-.137.3l-.116.189c-.127.209-.254.417-.387.6A17.42,17.42,0,0,1,15.055,39.2c-.22.232-.428.452-.614.665-.263.294-.557.664-.86,1.046-.289.363-.586.738-.876,1.068l-.473.558c-.355.418-.692.814-1,1.2a.374.374,0,0,0,.011.485A3.411,3.411,0,0,1,12.1,46.774Z"/>
        <path d="M54.178,48.615l.01,0c.021-.005.042-.009.057-.014a.375.375,0,0,0,.182-.581,23.751,23.751,0,0,0-9.477-7.941,18.885,18.885,0,0,0-3.986-1.244l-.963-.2a.375.375,0,0,0-.421.226,36.71,36.71,0,0,0-1.224,3.67c-.549,2.09-.913,3.949-1.17,5.346-.035.23-.073.455-.109.676L37,49.023a4.366,4.366,0,0,0-.065.624,2.945,2.945,0,0,0-.025.441,1.64,1.64,0,0,0,.549,1.425,7.414,7.414,0,0,0,1.221.837l.2.118c.5.291.965.552,1.382.763,1.224.647,2.239,1.088,2.98,1.41l.448.194a.357.357,0,0,0,.151.033.376.376,0,0,0,.147-.031.37.37,0,0,0,.2-.216c.842-2.319,4.1-2.494,5.446-2.464a12,12,0,0,1,2.313.226.371.371,0,0,0,.439-.263l.111-.395c.12-.428.234-.836.374-1.208A4.965,4.965,0,0,1,53.6,49.1,1.29,1.29,0,0,1,54.178,48.615Z"/>
        <path d="M84.374,66.854c-.263-.187-.577-.374-.895-.563-.166-.1-.332-.2-.5-.3l-.074-.043a.441.441,0,0,0-.087-.051l-.524-.269c-.147-.078-.3-.154-.449-.23l-.3-.154a31.831,31.831,0,0,0-3.214-1.358,18.777,18.777,0,0,0-3.516-.932,7.747,7.747,0,0,0-3.514.158,3.107,3.107,0,0,0-.711.29.375.375,0,0,0-.133.541,25.715,25.715,0,0,0,5.538,6A20.953,20.953,0,0,0,79.436,72.1a19.2,19.2,0,0,0,3.3,1.228,21.65,21.65,0,0,0,5.091.692c.665.008,1.177.014,1.5.044h.034a.375.375,0,0,0,.344-.524,16.556,16.556,0,0,0-1.533-2.9A14.192,14.192,0,0,0,84.374,66.854Z"/>
        <path d="M21.665,48.62c.7.178,1.393.31,2.064.438.368.07.73.14,1.083.214h0l4.5.884c.188.038.372.075.575.111a.567.567,0,0,0,.1.03.544.544,0,0,0,.144.02.377.377,0,0,0,.1-.013.307.307,0,0,0,.215-.175A.366.366,0,0,0,30.532,50l.339-1.019c.335-1.067.566-2.087.771-2.988.066-.293.13-.577.2-.859.189-.9.335-1.823.474-2.716.19-1.2.386-2.449.7-3.636.12-.54.262-1.141.432-1.82.083-.421.153-.865.222-1.331a.376.376,0,0,0-.363-.43c-.843-.018-1.532-.011-2.178.023l-.748.047a29,29,0,0,0-3.043.295l-.262.035c-.482.065-.968.129-1.456.2a.372.372,0,0,0-.274.19c-.267.482-.583,1.066-.978,1.9a41.362,41.362,0,0,0-2.973,10.3A.374.374,0,0,0,21.665,48.62Z"/>
        <path d="M102.253,53.417a10.438,10.438,0,0,1-1.08.262c-.75.148-1.5.244-2.19.327-.751.091-1.509.166-2.279.234-.38.038-.76.076-1.134.12-.173.015-.437.057-.706.1l-5.393.824c-3.478.5-6.693.938-9.553,1.289-1.141.126-2.239.3-3.3.468a35.016,35.016,0,0,1-4.542.526,12.2,12.2,0,0,1-3.108-.255c-.231-.051-.455-.116-.664-.181a.375.375,0,0,0-.375.625L69.9,59.7l.071.076-.072-.063-2.59-2.182a56.9,56.9,0,0,1-5.364-5.073l-.4-.423-2.758-3.383c-1.328-1.629-2.474-2.936-3.6-4.114a33.813,33.813,0,0,0-4.472-3.873c-.266-.176-.544-.347-.825-.52-.178-.108-.357-.218-.536-.332l-.678-.416-.724-.365c-.289-.139-.575-.287-.864-.435a15.984,15.984,0,0,0-2.092-.955,32.725,32.725,0,0,0-3.88-1.314.36.36,0,0,0-.424.227.322.322,0,0,0-.022.073c-.206.353-.395.718-.577,1.09-.057.116.025.257.094.366a.52.52,0,0,0,.393.18c.181.014.289.029.468.052a16.708,16.708,0,0,1,4.22.968,19.451,19.451,0,0,1,5.208,2.891,29.147,29.147,0,0,1,5.366,5.486c.953,1.237,1.849,2.593,2.8,4.028.8,1.212,1.628,2.466,2.544,3.726a24.8,24.8,0,0,0,3.488,3.961,13.107,13.107,0,0,0,4.452,2.648.367.367,0,0,0,.122.02.371.371,0,0,0,.2-.057,4.942,4.942,0,0,1,1.279-.581l.1-.03.1-.026a.375.375,0,0,0,.257-.275l.007.008a.377.377,0,0,0,.351.116,9.885,9.885,0,0,1,3.549,0,19.074,19.074,0,0,1,3.835,1.1,30.99,30.99,0,0,1,3.341,1.558l.346.192c.146.082.29.164.415.229l.764.469c.168.119.334.229.5.338.28.185.555.368.843.6a14,14,0,0,1,1.419,1.243.375.375,0,0,0,.265.109h.017a16.846,16.846,0,0,0,3.437-.629.387.387,0,0,0,.26-.282.421.421,0,0,0-.11-.387,34.3,34.3,0,0,0-3.935-4.09c-.227-.2-.439-.387-.632-.554.217.119.459.262.724.434a18.592,18.592,0,0,1,4.251,3.884c.131.16.247.312.364.472a.377.377,0,0,0,.411.14c1.308-.392,2.757-.882,4-1.31,1.019-.347,2.1-.718,3.21-1.1l.391-.127a24.238,24.238,0,0,1,3.221-.88c.375-.067.744-.138,1.11-.208.917-.174,1.784-.339,2.685-.446.632-.083,1.248-.158,1.887-.23.288-.036.577-.073.886-.1.283-.015.558-.028.847-.036.232-.014.448-.022.691-.029a.375.375,0,0,0,.235-.657l-.353-.316a33.524,33.524,0,0,0-4.129-3.182c-.236-.153-.459-.291-.663-.414.217.069.463.159.739.275a16.955,16.955,0,0,1,4.4,2.922c.485.436.9.83,1.257,1.2a.379.379,0,0,0,.27.115,6.7,6.7,0,0,1,.786.037l1.38.112a.375.375,0,0,0,.313-.622,67.237,67.237,0,0,0-8.245-7.7c-.54-.434-1.085-.851-1.627-1.267l-.334-.255a.374.374,0,0,0-.584.177c-.034.1-.075.21-.113.294l-.115.219-.01.023a1.091,1.091,0,0,1-.085.117c-.067.074-.134.149-.186.2a2.913,2.913,0,0,1-1.045.53Z"/>
        <path d="M56.332,60.165a.375.375,0,0,0,.218.07.344.344,0,0,0,.084-.01,8.472,8.472,0,0,0,4.337-2.119.375.375,0,0,0,.025-.5c-.35-.441-.694-.888-1.008-1.328-.968-1.358-1.809-2.658-2.587-3.872a.382.382,0,0,0-.373-.169.374.374,0,0,0-.3.275,20.085,20.085,0,0,0-.539,2.931.373.373,0,0,0,.129.326.593.593,0,0,1,.208.526.266.266,0,0,1-.193.216.375.375,0,0,0-.252.34,21.2,21.2,0,0,0,.1,3.043A.374.374,0,0,0,56.332,60.165Z"/>
        <path d="M55.2,59.458a.379.379,0,0,0,0-.1c-.013-.1-.018-.211-.028-.373a.376.376,0,0,0-.318-.348,16.679,16.679,0,0,0-3.521.093c-2.509.221-5.354.474-6.637-.78a2.832,2.832,0,0,1-.712-2.311.872.872,0,0,0,.024-.187.375.375,0,0,0-.321-.371,16.627,16.627,0,0,1-3.8-1.074c-.463-.177-.925-.389-1.469-.649l-.261-.128a7.351,7.351,0,0,1-1.415-.835c-.056-.054-.116-.1-.177-.153a1.236,1.236,0,0,1-.257-.259l-.093-.128a2.092,2.092,0,0,1-.292-.495c-.072-.2-.153-.411-.191-.565-.022-.23-.046-.467-.075-.682a3.425,3.425,0,0,1,0-.366c0-.086.007-.171.007-.26a5.315,5.315,0,0,1,.043-.592l.056-.444c.031-.257.063-.519.1-.788.281-1.937.63-3.74,1.063-5.5A26.258,26.258,0,0,1,39.1,36.335.381.381,0,0,0,39.1,36a.375.375,0,0,0-.267-.208A31.524,31.524,0,0,0,35.6,35.33a.372.372,0,0,0-.405.313c-.1.595-.193,1.171-.313,1.651-.21.707-.405,1.339-.58,1.885-.133.352-.278.7-.421,1.047a15.125,15.125,0,0,0-.871,2.5,14.7,14.7,0,0,0-.242,1.745c-.027.275-.054.549-.087.811l-.073.507a31.062,31.062,0,0,1-.635,3.481c-.028.1-.051.2-.075.307s-.043.187-.061.255c-.078.225-.154.456-.22.677l-.116.343c-.085.253-.172.51-.252.761l-.057.159c-.127-.02-.255-.041-.391-.066-1.011-.158-2.082-.331-3.22-.521-.954-.143-1.962-.324-3.026-.518-.344-.066-.7-.126-1.051-.188-.742-.128-1.51-.261-2.3-.458l-1-.227c-.872-.2-1.773-.4-2.683-.634-.9-.287-1.848-.588-2.805-.9a.376.376,0,0,0-.48.269,13.3,13.3,0,0,0-.388,3.317.375.375,0,0,0,.283.359,26.85,26.85,0,0,0,4.034.779.545.545,0,0,1,.474.618.333.333,0,0,1-.4.334,27.532,27.532,0,0,1-3.791-.679.374.374,0,0,0-.458.416,18.787,18.787,0,0,0,.531,2.527c.337,1.206.81,2.417,1.231,3.494l.228.543c.162.39.324.778.5,1.172l.935,2.308c.162.41.323.82.463,1.212.109.349.221.7.332,1.04l.243.761c.25.762.459,1.514.667,2.263.119.428.239.856.363,1.276l.052.193c.142.518.283,1.036.431,1.55a14.374,14.374,0,0,0,.513,1.613A4.259,4.259,0,0,0,22.327,75.9a13.372,13.372,0,0,0,4.012,1.149c.8.148,1.629.3,2.4.508.59.167,1.165.325,1.747.484a.387.387,0,0,0,.3-.044.376.376,0,0,0,.169-.248,15.979,15.979,0,0,0,.264-3.409.377.377,0,0,0-.256-.345c-.577-.195-1.128-.375-1.636-.542l-.423-.139A25.812,25.812,0,0,1,25.855,72.2a12.854,12.854,0,0,1,3.237.076c.466.052.97.134,1.5.23a.37.37,0,0,0,.323-.095.376.376,0,0,0,.117-.316c-.108-.941-.23-1.781-.381-2.607-.24-1.463-.467-2.844-.622-4.2a17.8,17.8,0,0,1-.022-2.247.375.375,0,0,0-.236-.368A22.2,22.2,0,0,1,24.807,60.2h.013a24.865,24.865,0,0,1,5.011.989.375.375,0,0,0,.462-.292,35.865,35.865,0,0,1,1.232-4.425c.174-.528.34-1.034.484-1.512.253-.748.43-1.461.6-2.151l1.37-5.394c.068-.291.131-.568.2-.831.232-.982.442-1.769.613-2.373.065-.22.124-.408.176-.569-.006.169-.017.366-.033.595-.046.63-.128,1.439-.248,2.451l-.208,1.648-.889,4.8c-.132.685-.27,1.394-.487,2.141-.081.31-.17.624-.262.946l-.106.368a.376.376,0,0,0,.3.473,35.758,35.758,0,0,1,4.906,1.226.433.433,0,0,1,.322.327.571.571,0,0,1-.153.526.375.375,0,0,1-.395.068,36.711,36.711,0,0,0-5.032-1.258.375.375,0,0,0-.42.273,28.009,28.009,0,0,0-.688,3.09.375.375,0,0,0,.27.419c1.326.369,2.766.784,4.261,1.222,6.87,1.982,10.153,3.361,10.981,3.954-1.217.133-5.76-.577-11.487-2.229-1.229-.363-2.482-.772-3.725-1.216a.375.375,0,0,0-.5.36c.007.424.023.856.063,1.3.166,1.29.4,2.645.674,4.157.21,1.137.377,2.271.5,3.369a.377.377,0,0,0,.287.325c1.606.379,3.326.866,5.109,1.448,3.883,1.285,7,2.532,8.514,3.161a18.661,18.661,0,0,1,2.916,1.381,14.58,14.58,0,0,1-3.221-.366,81.547,81.547,0,0,1-8.759-2.465c-1.486-.49-2.905-.959-4.219-1.4a.371.371,0,0,0-.335.05.377.377,0,0,0-.158.3,16.923,16.923,0,0,1-.332,3.117.376.376,0,0,0,.267.436q4.461,1.245,8.65,2.4c1.489.383,3.006.7,4.473,1.012,1.957.413,3.805.8,5.608,1.332a.377.377,0,0,0,.106.015.369.369,0,0,0,.2-.058.373.373,0,0,0,.17-.257l.095-.527c.126-.61.268-1.177.425-1.746.313-1.169.662-2.3.961-3.256l1-3.06a14.957,14.957,0,0,0,.548-2.835,28.378,28.378,0,0,0,.048-3.84.377.377,0,0,0-.212-.322c-.527-.254-.846-.625-.79-.93.033-.206.274-.4.643-.519a.375.375,0,0,0,.26-.372,30.1,30.1,0,0,1,.012-3.953C54.981,60.908,55.087,60.157,55.2,59.458ZM31.439,51.994l.064.022h0l-.072,0Zm-.257-.09.122.042.008.056-.192-.013A.249.249,0,0,1,31.182,51.9Z"/>
        <path d="M23.811,36.076c-.129.02-.261.041-.385.067l-.288.052a5,5,0,0,0-.634.137l-.452.124-.364.141a4.974,4.974,0,0,0-1.425.892c-.161.151-.339.344-.513.534l-.222.238c-.017.018-.071.09-.085.111l-.408.613c-.361.55-.724,1.1-1.107,1.674-.229.405-.464.807-.7,1.209-.462.792-.941,1.611-1.348,2.415-.393.778-.69,1.428-.935,2.047a.374.374,0,0,0,.236.5q1.391.441,2.736.881c.523.137,1.031.258,1.54.379a.364.364,0,0,0,.087.011.375.375,0,0,0,.369-.309c1.069-5.923,2.784-9.013,3.715-10.333a8.106,8.106,0,0,1,.592-.772.363.363,0,0,0,.011-.423A.418.418,0,0,0,23.811,36.076Z"/>
        <path d="M8.788,49.719a.363.363,0,0,0,.08-.009A2.95,2.95,0,0,0,10.9,47.932a3.02,3.02,0,0,0-.127-2.755A.378.378,0,0,0,10.461,45a.4.4,0,0,0-.317.157A9.2,9.2,0,0,0,8.96,47.234a2.43,2.43,0,0,0-.231.635l-.106.374a2.661,2.661,0,0,0-.129.55c-.031.172-.056.336-.078.5a.375.375,0,0,0,.372.426Z"/>
        <path d="M114.936,68.5a.376.376,0,0,0-.37-.322c-2.644-.024-4.292.155-4.483,1.036l-.065.326a4.252,4.252,0,0,1-.41,1.333,2.868,2.868,0,0,1-2.035,1.538.4.4,0,0,1-.213.019.232.232,0,0,0-.077-.01,6.475,6.475,0,0,1-3.217-2.372.375.375,0,0,0-.41-.184,31.6,31.6,0,0,1-6.1.866.376.376,0,0,0-.352.482l.091.31c.515,1.763,1.216,4.181,4.11,3.465l.239-.059a11.88,11.88,0,0,1,4.8-.523,2.319,2.319,0,0,1,.778.48,2.733,2.733,0,0,0,1.541.738,1.467,1.467,0,0,0,1.163-.668l.159-.2a2.9,2.9,0,0,1,.939-.916c.24-.1.537-.2.862-.309,1.508-.5,4.03-1.345,3.352-3.7A8.069,8.069,0,0,1,114.936,68.5Z"/>
        <path d="M106.435,85.655a5.673,5.673,0,0,1-.434-1.4.377.377,0,0,0-.405-.3,24.514,24.514,0,0,1-3.661.127,11.339,11.339,0,0,1-2.3-.318.375.375,0,0,0-.46.468c.024.082.049.157.074.224a11.006,11.006,0,0,1,.235,1.168c.162.958.235,1.395.52,1.493a1.4,1.4,0,0,0,.352.2l.107.053a.315.315,0,0,0,.1.03l.589.166.1.009c.227.022.534.051.868.051a4.618,4.618,0,0,0,.466-.021,17.355,17.355,0,0,0,3.571-.714c.1-.027.2-.06.36-.112a.374.374,0,0,0,.239-.236.379.379,0,0,0-.046-.333A2.368,2.368,0,0,1,106.435,85.655Z"/>
        <path d="M10.471,79.225a.547.547,0,0,1,.038-.448.864.864,0,0,1,.507-.445.792.792,0,0,1,.919.511.22.22,0,0,0,.026.047c.01.027.019.05.026.065a.529.529,0,0,0,.062.131c.053.1.105.193.2.339a.375.375,0,0,0,.317.2.351.351,0,0,0,.334-.174,6.445,6.445,0,0,0,.923-2.838.373.373,0,0,0-.3-.4.793.793,0,0,1-.228-.077,3.973,3.973,0,0,0-1.255-.406.635.635,0,0,1-.406-.3.812.812,0,0,1-.1-.619.786.786,0,0,1,.958-.524,4.844,4.844,0,0,1,.661.168.37.37,0,0,0,.367-.075.375.375,0,0,0,.119-.356,7.512,7.512,0,0,0-.321-1.147,7.088,7.088,0,0,0-.582-1.27.432.432,0,0,0-.289-.149.506.506,0,0,0-.338.09.9.9,0,0,0-.15.118.773.773,0,0,1-1.079.008.787.787,0,0,1-.219-.563.694.694,0,0,1,.249-.526l.08-.062a.375.375,0,0,0-.1-.639,2.745,2.745,0,0,0-1.66-.106,3.362,3.362,0,0,0-2.483,1.978A.376.376,0,0,0,7,72.267a4.088,4.088,0,0,1,.851.3.623.623,0,0,1,.3.387.836.836,0,0,1-.061.643.793.793,0,0,1-1.051.258.494.494,0,0,0-.067-.04.67.67,0,0,0-.1-.036.375.375,0,0,0-.511.207.712.712,0,0,1-.05.1.373.373,0,0,0-.047.236,17.309,17.309,0,0,0,.61,2.808.374.374,0,0,0,.522.227,2.7,2.7,0,0,1,1.01-.287.644.644,0,0,1,.485.2.8.8,0,0,1,.254.563.771.771,0,0,1-.762.758.39.39,0,0,0-.084.016.382.382,0,0,0-.118.031,1.482,1.482,0,0,0-.158.085l-.106.07a.374.374,0,0,0-.158.5,10.347,10.347,0,0,0,1.6,2.358.379.379,0,0,0,.277.121.362.362,0,0,0,.1-.013,5.732,5.732,0,0,0,1.447-.614.377.377,0,0,0,.087-.571A4.684,4.684,0,0,1,10.471,79.225Z"/>
        <path d="M116.765,83.188a4.157,4.157,0,0,0,.589-.959,7.413,7.413,0,0,0,.42-1.171l.1-.37a.375.375,0,0,0-.566-.407c-.16.1-.328.2-.512.307a24.557,24.557,0,0,1-3.4,1.553.375.375,0,0,0-.239.4,3.844,3.844,0,0,1-.091,1.657.374.374,0,0,0,.356.493.347.347,0,0,0,.09-.011,10.134,10.134,0,0,0,2.32-.768A3.314,3.314,0,0,0,116.765,83.188Z"/>
        <path d="M122.11,74.975a5.274,5.274,0,0,0-.155-1.039c-.03-.136-.06-.273-.093-.445-.1-.367-.224-.747-.345-1.125l-.122-.378a10.164,10.164,0,0,0-.417-1.135l-.2-.493a12.981,12.981,0,0,0-.62-1.4,31.118,31.118,0,0,0-3.553-5.695c-.1-.125-.207-.252-.311-.385a.37.37,0,0,0-.319-.143l-.231.015c-.524.03-1.087.052-1.673.067a.375.375,0,0,0-.288.6,16.12,16.12,0,0,1,.923,1.324c-.216-.214-.449-.45-.68-.684-.323-.327-.683-.691-1.077-1.081a.37.37,0,0,0-.288-.108c-.354.023-.716.054-1.091.1l-1.6.173c-2.137.252-4.434.673-7.216,1.227a26.006,26.006,0,0,0-2.889.749l-1.214.362c-.879.262-1.743.52-2.582.754-1.275.351-2.408.629-3.463.847a.375.375,0,0,0-.25.553l.053.092c.067.118.134.237.186.32a12.845,12.845,0,0,1,.986,2.414,8.559,8.559,0,0,1,.185.843c-.095-.238-.2-.5-.33-.774a18.181,18.181,0,0,0-1.208-2.263c-.119-.187-.254-.382-.391-.58l-.145-.209a.422.422,0,0,0-.393-.154c-.312.051-.623.1-.922.138a13.91,13.91,0,0,1-2.4.1.354.354,0,0,0-.354.2.376.376,0,0,0,.041.405,12.838,12.838,0,0,1,1.315,2,14.538,14.538,0,0,1,1.352,3.971l.046.213-.141.013a7.24,7.24,0,0,1-1.847-.07,2.4,2.4,0,0,1-.255-.083.374.374,0,0,0-.255-.014,14.887,14.887,0,0,1-5.349.072,13.272,13.272,0,0,1-1.71-.375.379.379,0,0,0-.356.084.373.373,0,0,0-.115.347,27.9,27.9,0,0,1,.484,5.341,17.772,17.772,0,0,1-.546,4.526,6.11,6.11,0,0,1-.99,2.156c-.07.079-.13.14-.18.187.017-.16.05-.372.082-.58.073-.46.17-1.09.246-1.94a30.262,30.262,0,0,0,.046-4.325,34.027,34.027,0,0,0-.939-6.441.377.377,0,0,0-.208-.249,18.611,18.611,0,0,1-3.256-1.839,25.5,25.5,0,0,1-6.811-7.3l-.37-.589a.367.367,0,0,0-.17-.146,14.932,14.932,0,0,1-4.08-2.637,20.049,20.049,0,0,1-1.57-1.593.376.376,0,0,0-.27-.125.364.364,0,0,0-.276.11,10.681,10.681,0,0,1-5.549,2.446.661.661,0,0,1-.271-.007.367.367,0,0,0-.321.062.379.379,0,0,0-.15.289,32.26,32.26,0,0,0,.2,3.955.374.374,0,0,0,.311.336l.1.008a2.485,2.485,0,0,1,1.587,1.011.4.4,0,0,1,.041.331c-.142.36-.735.588-1.4.527a.375.375,0,0,0-.408.4,26.867,26.867,0,0,1,.074,3.484,15.346,15.346,0,0,1-.49,3.057l-.318,1.088c-.188.645-.382,1.3-.575,1.979-.3,1.046-.59,2.129-.864,3.24a9.687,9.687,0,0,0-.142,1.1c-.074.762-.248,2.547-.65,2.7a4.91,4.91,0,0,1-2.275-.412c-.32-.1-.608-.2-.826-.248-1.35-.309-2.73-.574-4.064-.831-1.512-.292-3.074-.593-4.59-.955-3.661-.957-7.5-1.965-11.492-3.013l-1.067-.28c-.878-.218-1.726-.368-2.626-.526l-1.009-.188a10.723,10.723,0,0,1-3.3-1.08,5.6,5.6,0,0,1-1.578-1.327,7,7,0,0,1-1.023-1.755,15.373,15.373,0,0,1-.547-1.651l-.535-1.9c-.136-.45-.265-.908-.395-1.367-.2-.712-.4-1.427-.633-2.122l-.563-1.731c-.119-.33-.249-.653-.378-.976-.092-.232-.185-.463-.275-.7l-.709-1.725c-.192-.425-.377-.871-.562-1.319l-.179-.431a35.238,35.238,0,0,1-1.294-3.679,18.468,18.468,0,0,1-.748-4.549,15.558,15.558,0,0,1,.34-3.568.375.375,0,0,0-.706-.239A3.962,3.962,0,0,1,8.5,50.654a.374.374,0,0,0-.337.326l-.086.7c-.045.37-.086.709-.132,1.025l-.149.967-.192,1.038c-.21.848-.449,1.725-.587,2.191a15.637,15.637,0,0,0-.34,1.717,20.294,20.294,0,0,1-.51,2.6.376.376,0,0,0,.058.331.361.361,0,0,0,.429.128c.1-.013.2-.03.3-.048a3.4,3.4,0,0,1,.678-.072,6.725,6.725,0,0,1,3.895,1.432,14.566,14.566,0,0,1,3.229,3.537,19.861,19.861,0,0,1,2.391,4.959,16.182,16.182,0,0,1,.47,2.844l.023.213a8.674,8.674,0,0,0,.582,2.78,2.617,2.617,0,0,0,.809,1.033,2.262,2.262,0,0,0,.51.339l.111.062c.14.072.309.145.479.218l.256.111a21.6,21.6,0,0,0,3.248,1.061c.889.229,1.815.427,2.775.632l.832.179c.614.134,1.281.284,1.906.448s1.273.354,1.93.542q3.561,1,7.465,2.108l.688.2a104.064,104.064,0,0,0,16.826,3.476.379.379,0,0,0,.346-.154.373.373,0,0,0,.035-.377c-.087-.187-.179-.389-.267-.628a14.827,14.827,0,0,1-.7-2.792,15.694,15.694,0,0,1-.029-4.413s.023-.174.082-.53c.048-.332.2-.859.381-1.539l.2-.515c.084-.215.172-.442.236-.629.077-.131.15-.268.225-.409a7.746,7.746,0,0,1,.582-.961,7.99,7.99,0,0,1,3.008-2.51l.39-.14a8.158,8.158,0,0,1,1.9-.518A9.089,9.089,0,0,1,65,71.467a8.142,8.142,0,0,1,2.832.713,7.412,7.412,0,0,1,2.525,1.982,15.532,15.532,0,0,1,2.736,6.071c.256.959.469,1.927.693,2.952.288,1.309.585,2.662.98,3.983a12.438,12.438,0,0,0,.621,1.675,5.663,5.663,0,0,0,.3.615l.326.537a1.1,1.1,0,0,0,.108.129,1.3,1.3,0,0,0,.115.136,4.053,4.053,0,0,0,1.411.834,13.177,13.177,0,0,0,1.863.53,37.7,37.7,0,0,0,7.068.543c.582,0,1.153-.006,1.707-.015,2.99-.058,6.106-.281,9.4-.518l.473-.034c.59-.024,1.136-.084,1.682-.144.29-.032.581-.064.876-.09a16.145,16.145,0,0,0,1.637-.247c.315-.058.63-.117.959-.166.581-.106,1.159-.242,1.743-.38.293-.069.587-.138.9-.209.866-.241,1.749-.483,2.657-.727,1.814-.545,3.694-1.158,5.465-1.738l2.834-.915c.243-.08.489-.157.731-.234a13.5,13.5,0,0,0,1.977-.727,1.762,1.762,0,0,0,.79-.668,3.8,3.8,0,0,0,.383-1.178c.079-.415.15-.865.225-1.332.091-.569.187-1.164.3-1.753.071-.363.146-.722.22-1.078A17.446,17.446,0,0,0,122.11,74.975ZM114.1,73.869a8.013,8.013,0,0,0-3,1.568,10.129,10.129,0,0,1-1.7,1.085,1.91,1.91,0,0,1-1.5-.01,7.571,7.571,0,0,0-3.623-.891,18.9,18.9,0,0,0-3.208.373l-.3.051a3.276,3.276,0,0,1-2.475-.488,5.527,5.527,0,0,1-1.656-3.127,11.386,11.386,0,0,0-.693-1.935.576.576,0,0,1,.03-.553.377.377,0,0,1,.356-.181,28.155,28.155,0,0,0,7.887-1.013.483.483,0,0,1,.312,0c.135.09.2.477.253.79a2.052,2.052,0,0,0,.755,1.546,2.541,2.541,0,0,0,3.285-.593,3.155,3.155,0,0,0,.322-1.383c.073-.88.153-1.244.66-1.3.562-.064,1.119-.136,1.673-.208,1.254-.162,2.551-.329,3.852-.387.258-.006.432.3.454.517.046.435.123.892.2,1.356C116.372,71.311,116.7,73.229,114.1,73.869ZM112.139,86.9l-.654.2c-.288.089-.578.177-.879.265l-.746.241a26.081,26.081,0,0,1-7.216,1.606,6.867,6.867,0,0,1-2.045-.242l-.409-.148-.5-.227a2.645,2.645,0,0,1-.851-.7,2.366,2.366,0,0,1-.424-.97l-.211-2.279a21.925,21.925,0,0,0-.7-3.076c-.115-.4-.218-.769-.293-1.1-.073-.295-.121-.528-.156-.713.105.157.233.361.387.626l.138.238a15.179,15.179,0,0,1,.752,1.421l.126.27a7.929,7.929,0,0,1,.352.825l.084.252a.378.378,0,0,0,.2.212.374.374,0,0,0,.288.011,18.545,18.545,0,0,1,2.525-.579c1.03-.189,2.277-.423,3.671-.711.146-.03.281-.287.313-.433.1-.493.291-.733.42-.746.19-.022.43.192.665.545l.344-.153h0l-.292.247a.377.377,0,0,0,.392.163c.576-.121,1.167-.25,1.767-.388.737-.174,1.451-.356,2.133-.538a.379.379,0,0,0,.23-.177.626.626,0,0,1,.354-.337.477.477,0,0,1,.345.123.374.374,0,0,0,.316.059c1.446-.386,2.746-.757,3.812-1.067.6-.171,1.12-.321,1.566-.425a.5.5,0,0,0,.3-.4l.015-.1c.045-.249.071-.486.1-.716l.092-.76c.026-.206.05-.407.082-.642.014-.328.037-.642.059-.934.057-.624.081-1.194.1-1.7.019-.481.036-.906.079-1.3.026-.189.053-.358.078-.507.036.144.069.315.1.515a.371.371,0,0,0,.027.091l.063.313a18.1,18.1,0,0,1,.381,2.561l.03.389c.016.2.032.406.045.612.012.26.01.532.009.81l0,.684c0,.258,0,.521-.019.778-.037.389-.074.786-.12,1.21-.012.179-.032.364-.055.59l-.139.748a3.678,3.678,0,0,1-.128.541l-.04.144a4.109,4.109,0,0,1-.229.7,5.343,5.343,0,0,1-.766,1.4,4.917,4.917,0,0,1-1.318,1.144,10.748,10.748,0,0,1-2.675,1.012l-.856.237C112.819,86.7,112.494,86.791,112.139,86.9Zm-27.522-.268Zm-2.148-2.884.078-.043a5.52,5.52,0,0,1,.647-.284,2.668,2.668,0,0,1,.444-.137l.837-.2.638-.067c.349-.027.685-.038,1.009-.038a19.808,19.808,0,0,1,3.12.292c.561.082,1.062.171,1.5.256.348.055.651.121.923.18l.184.039a4.43,4.43,0,0,1,.475.093c-.1.046-.247.1-.44.165a9.184,9.184,0,0,1-1.161.206c-.462.052-.984.082-1.546.112l-.737.028a23.275,23.275,0,0,0-3.108.254c-.172.024-.344.054-.563.1-.145.047-.3.1-.444.151l-.127.037a1.511,1.511,0,0,0-.334.115,2.74,2.74,0,0,0-.351.163.374.374,0,0,0-.185.235.379.379,0,0,0,.046.294c.059.093.133.193.223.309l.685.822c.006.008.058.068.065.075l.482.488c.11.076.206.159.323.257a6.966,6.966,0,0,0,1.835.951,16.124,16.124,0,0,0,3.724.707l.35.029a27.112,27.112,0,0,1,2.78.305,11.136,11.136,0,0,1-3.116.723,12.1,12.1,0,0,1-4.186-.231,7.513,7.513,0,0,1-2.4-1.065c-.212-.155-.424-.323-.616-.479-.122-.112-.225-.216-.329-.321l-.62-.686c-.137-.157-.273-.315-.407-.488a6.941,6.941,0,0,1-.441-.648,1.923,1.923,0,0,1-.12-.229l-.1-.225a1.716,1.716,0,0,1-.12-.47,1.525,1.525,0,0,1-.007-.342,1.281,1.281,0,0,1,.08-.368,1.672,1.672,0,0,1,.347-.572A2.377,2.377,0,0,1,82.469,83.744Z"/>
        <path d="M111.477,83.188a.376.376,0,0,0-.467-.264c-.462.134-.925.261-1.409.381-.521.118-1.036.215-1.541.3a.374.374,0,0,0-.308.4,4.2,4.2,0,0,1-.2,1.811.375.375,0,0,0,.35.508.388.388,0,0,0,.115-.018c.371-.118.745-.241,1.125-.367l2.866-.876a.376.376,0,0,0,.146-.638A2.576,2.576,0,0,1,111.477,83.188Z"/>
        <path d="M63.405,84.694l-.011.016c.022.023.056.032.072.061A.249.249,0,0,0,63.405,84.694Z"/>
        <path d="M69.812,86.832a11.493,11.493,0,0,1,1.644-.115.376.376,0,0,0,.37-.38,8.929,8.929,0,0,0-.895-4.135.307.307,0,0,0-.092-.146c-.048-.064-.1-.119-.145-.174l-.071-.082a.357.357,0,0,0-.313-.135.369.369,0,0,0-.293.174c-.284.452-.586.891-.888,1.33l-.343.5a.778.778,0,0,1-1.049.294.819.819,0,0,1-.363-.515.638.638,0,0,1,.079-.5l.409-.6c.326-.472.65-.941.945-1.434a.375.375,0,0,0-.218-.553c-1.636-.472-3.466.38-4.888,2.28a.375.375,0,0,0,.132.56,2.683,2.683,0,0,1,1.076.964.671.671,0,0,1,.08.527.757.757,0,0,1-1.416.193.414.414,0,0,0-.091-.125l-.265.219-.009,0,.186-.269a.37.37,0,0,0-.137-.119l-.092-.057a.348.348,0,0,0-.108-.034l-.022,0c-.294-.069-.42.04-.489.208a8.644,8.644,0,0,0-.685,4.176.373.373,0,0,0,.183.284.378.378,0,0,0,.337.023,6,6,0,0,0,1.5-.819.788.788,0,0,1,1.1-.022.826.826,0,0,1,.218.607.593.593,0,0,1-.194.436,9.283,9.283,0,0,1-1.969,1.143l-.272.131a.376.376,0,0,0-.2.228.371.371,0,0,0,.035.3,5.5,5.5,0,0,0,2.362,2.178,4.48,4.48,0,0,0,1.385.443.263.263,0,0,0,.049,0,.379.379,0,0,0,.287-.133.374.374,0,0,0,.071-.352,1.106,1.106,0,0,1-.053-.236c-.023-.236-.034-.471-.045-.7a6.544,6.544,0,0,0-.211-1.615.669.669,0,0,1,.493-.876.735.735,0,0,1,.972.488,7.966,7.966,0,0,1,.255,1.924c.011.218.023.436.039.653a.376.376,0,0,0,.208.308.371.371,0,0,0,.37-.022,7.446,7.446,0,0,0,2.811-4.563.373.373,0,0,0-.365-.459,5.506,5.506,0,0,0-.923.057.811.811,0,0,1-.981-.523.866.866,0,0,1,.119-.655A.568.568,0,0,1,69.812,86.832Z"/>
        <path d="M74.744,91.43a5.176,5.176,0,0,1-.6-.844l-.087-.142c-.174-.3-.32-.588-.458-.886a.367.367,0,0,0-.382-.215.373.373,0,0,0-.324.294,1.444,1.444,0,0,1-.049.159c-.934,2.68-2.672,4.667-4.65,5.316a5.1,5.1,0,0,1-4.62-.866,7.491,7.491,0,0,1-3.034-5.137,10.1,10.1,0,0,1,1.8-7.534,6.175,6.175,0,0,1,7.736-2.043.374.374,0,0,0,.528-.454l-.055-.164c-.091-.266-.184-.537-.284-.774a9.161,9.161,0,0,0-1.63-2.716.439.439,0,0,0-.287-.124,8.605,8.605,0,0,0-6.694,3.322A14.127,14.127,0,0,0,59.187,89.8c.525,2.662,1.791,6.154,4.835,7.677a8.5,8.5,0,0,0,3.777.894,7.976,7.976,0,0,0,3.779-.94,6.864,6.864,0,0,0,3.643-5.34.376.376,0,0,0-.132-.334A3.269,3.269,0,0,1,74.744,91.43Z"/>
        <path d="M64.957,74.382a.342.342,0,0,0,.189-.4.44.44,0,0,0-.4-.33,6.977,6.977,0,0,0-1.114.015,4.586,4.586,0,0,0-.678.11c-.113.024-.226.048-.362.072a5.786,5.786,0,0,0-3.007,1.584,5.986,5.986,0,0,0-1.268,2.128l-.18.489-.257,1.109c-.043.356-.072.54-.075.555-.074.57-.125,1.162-.161,1.864a.376.376,0,0,0,.3.388.42.42,0,0,0,.069.006.376.376,0,0,0,.357-.257C59.582,78.067,61.918,75.465,64.957,74.382Z"/>
        <path d="M18.261,79.367a4.039,4.039,0,0,1-1.158-1.5v0a8.587,8.587,0,0,1-.613-2.874l-.036-.395a16.255,16.255,0,0,0-.4-2.826,18.931,18.931,0,0,0-1.509-3.613,3.552,3.552,0,0,0-1.756-1.636l-.35-.2C10.61,65.259,8.725,65.9,7.4,68.033a.376.376,0,0,0,.454.549,3.414,3.414,0,0,1,.561-.174,4.977,4.977,0,0,1,5.466,2.061,10.444,10.444,0,0,1,1.083,8.005,6.622,6.622,0,0,1-3.375,4.218.375.375,0,0,0-.006.667,8.176,8.176,0,0,0,3.64.982,4.114,4.114,0,0,0,2.141-.541,3.759,3.759,0,0,0,1.682-3.475l.02-.165a.374.374,0,0,0-.186-.381A3.778,3.778,0,0,1,18.261,79.367Z"/>
    </g>
</svg>
