<svg xmlns="http://www.w3.org/2000/svg" viewBox="0 0 120 120" x="0px" y="0px">
    <g>
        <path d="M34.69,75.111a.375.375,0,0,0,.251.168c2.423.423,4.44.722,6.348.943l.043,0A.375.375,0,0,0,41.675,76a5.245,5.245,0,0,0,.1-4.1.833.833,0,0,1-.049-.265.375.375,0,0,0-.344-.373L35.826,70.8c-.46-.07-.941-.139-1.421-.209l-.308-.044a.375.375,0,0,0-.3.651c1.044.93,1.29,1.978.851,3.619A.371.371,0,0,0,34.69,75.111Z"/>
        <path d="M56.13,74.98a32.1,32.1,0,0,1-5.976.2h0c-1.168-.048-2.35-.141-3.718-.249l-.589-.046c-.319-.025-.649-.049-1.035-.113a4.895,4.895,0,0,1-.739-.162.374.374,0,0,0-.485.289,9.028,9.028,0,0,1-.272,1.072.375.375,0,0,0,.331.485c1.271.093,2.248.141,3.169.154.76.013,1.52.045,2.278.078.977.041,1.966.083,2.958.083a18.839,18.839,0,0,0,5.336-.65.374.374,0,0,0,.266-.31l.1-.663a.374.374,0,0,0-.12-.329.385.385,0,0,0-.338-.088C56.937,74.811,56.546,74.9,56.13,74.98Z"/>
        <path d="M9.04,70.824a.375.375,0,0,0-.024-.328.38.38,0,0,0-.274-.184,2.282,2.282,0,0,0-2.02.527,2.319,2.319,0,0,0-.468,2.915,4.944,4.944,0,0,0,2.618,1.559.344.344,0,0,0,.109.017.375.375,0,0,0,.327-.56A4.355,4.355,0,0,1,9.04,70.824Z"/>
        <path d="M35.969,69.435l.017,0,.382.038.044,0a.373.373,0,0,0,.251-.1.378.378,0,0,0,.124-.284c-.008-.448,0-.9.029-1.328a.374.374,0,0,0-.311-.395L33.8,66.922c-.99-.168-2.026-.358-3.1-.571l-1.628-.32c-.3-.067-.656-.13-1.011-.2l-.839-.155c-.513-.1-1.012-.19-1.494-.258-.2-.029-.4-.063-.606-.1-.34-.057-.675-.114-.986-.143l-1.423-.133a10.9,10.9,0,0,0-3.388.13c-.317.046-.632.091-.946.127l-2.468.29c-.521.053-1,.091-1.44.113a.386.386,0,0,0-.355.344,4.129,4.129,0,0,0-.032.458.376.376,0,0,0,.277.362,28.461,28.461,0,0,0,5.563.815c.914.052,1.821.085,2.718.118,1.08.039,2.145.078,3.187.149l.475.033c.312.02.621.039.92.078.461.069.921.139,1.367.2.9.138,1.783.268,2.632.389Z"/>
        <path d="M47.328,65.8a1.749,1.749,0,0,0,.574-.1h0c1.506-.517,2.147-2.3,2.114-3.837a3.5,3.5,0,0,0-2.175-3.523c-1.783-.408-2.65.287-3.063.942-.938,1.483-.362,4.073.742,5.469A2.365,2.365,0,0,0,47.328,65.8Z"/>
        <path d="M83.384,47.969h0a1.537,1.537,0,0,0,.953,1.938,1.5,1.5,0,0,0,.45.071,1.207,1.207,0,0,0,1.17-.825,1.485,1.485,0,0,0-.769-1.973,1.306,1.306,0,0,0-1.122-.058A1.255,1.255,0,0,0,83.384,47.969Z"/>
        <path d="M27.119,69.556c-.286-.039-.576-.055-.868-.07-.167-.009-.335-.018-.514-.032-.924-.054-1.883-.085-2.874-.117s-1.99-.063-3.033-.12a34,34,0,0,1-3.818-.393.375.375,0,0,0-.391.549,9.5,9.5,0,0,1,1.024,3.737.374.374,0,0,0,.337.354,47,47,0,0,1,5.076.9,46.789,46.789,0,0,0,5.209.914.236.236,0,0,0,.037,0,.372.372,0,0,0,.375-.368,4.83,4.83,0,0,1,.6-2.282,4.762,4.762,0,0,1,2.078-1.931.375.375,0,0,0-.106-.711Z"/>
        <path d="M58.468,71.6a.376.376,0,0,0-.115-.368.381.381,0,0,0-.38-.071,18.77,18.77,0,0,1-3,.818,12.283,12.283,0,0,1-2.132.267,19,19,0,0,1-2.569-.1c-.708-.064-1.444-.159-2.209-.258l-.712-.091c-.379-.055-.754-.095-1.136-.135l-.48-.051c-.47-.034-.959-.075-1.455-.116l-.177-.014a.37.37,0,0,0-.308.121.375.375,0,0,0-.092.317,2.74,2.74,0,0,0,.1.427,1.113,1.113,0,0,0,.373.615c.108.095.331.291,1.975.428l1.225.127c1.046.111,2.035.214,2.884.286,2.311.244,4.192.282,5.8.3l.535-.027c.383-.02.724-.038,1.04-.049a.375.375,0,0,0,.356-.305c.1-.52.2-1.039.331-1.544l-.363-.092.37.067C58.373,71.973,58.424,71.789,58.468,71.6Z"/>
        <path d="M66.948,48.353a.375.375,0,0,0,.156.682l.548.079c.549.08,1.083.157,1.6.227a40.044,40.044,0,0,1,5.262,1.023.376.376,0,0,0,.393-.59A6.025,6.025,0,0,0,66.948,48.353Z"/>
        <path d="M17.819,58.276a16.338,16.338,0,0,0-2.707,4.093,12.484,12.484,0,0,0-.694,1.93.376.376,0,0,0,.1.363.371.371,0,0,0,.364.095c.273-.076.546-.151.842-.227l.428-.112c.615-.159,1.269-.329,1.982-.49l1.8-.4,1.087-.106c.178-.01.35-.028.522-.045a6.279,6.279,0,0,1,1.01-.047l1.762.084c.372.024.721.075,1.072.126.212.031.424.061.637.086.574.076,1.141.181,1.7.287l.586.109c.368.068.731.135,1.131.225.55.122,1.1.244,1.63.365l3.793.9c.626.153,1.225.3,1.806.454a.375.375,0,0,0,.461-.276,10.747,10.747,0,0,1,.474-1.526,14.778,14.778,0,0,1,2.661-4.38c.183-.2.359-.4.533-.595l.209-.24c.283-.245.559-.49.838-.738a7.011,7.011,0,0,1,1.138-.832c.154-.1.3-.192.434-.281a10.917,10.917,0,0,1,1.047-.544c.167-.079.329-.156.455-.221.387-.155.76-.287,1.108-.409l.266-.094c.107-.035.211-.064.313-.093l.283-.087a14.768,14.768,0,0,1,1.813-.7,27.237,27.237,0,0,1,4.184-.9c1.935-.275,3.775-.388,5.4-.488.629-.039,1.235-.077,1.82-.121q1.956-.177,3.664-.342c2.532-.241,4.718-.449,6.506-.544a42.206,42.206,0,0,1,5.445-.076c.211.013.39.026.542.041-.15.034-.327.071-.535.11-.578.107-1.325.211-2.265.344-.868.121-1.9.266-3.1.455-.837.112-1.759.244-2.776.389-2.1.3-4.487.644-7.368.985-.738.077-1.492.141-2.266.206-1.541.129-3.134.263-4.843.523a26.209,26.209,0,0,0-3.937.884l-.134.047a.374.374,0,0,0-.048.692c1.841.905,2.8,3.088,2.438,5.561-.274,1.852-1.527,4.6-3.858,4.6h-.018a4.144,4.144,0,0,1-2.921-1.35,6.749,6.749,0,0,1-1.87-4.613,6.329,6.329,0,0,1,.216-1.479.375.375,0,0,0-.627-.363,12.046,12.046,0,0,0-1.014,1.138,14.271,14.271,0,0,0-2.32,4.041,10.9,10.9,0,0,0-.428,1.479.375.375,0,0,0,.26.438l.462.144c.343.107.672.214,1.02.327l.912.364c.564.233,1.046.452,1.427.639.237.118.416.216.55.3-.159,0-.368-.016-.64-.043-.423-.045-.927-.12-1.508-.217l-.949-.17c-.231-.037-.473-.07-.723-.1l-.628-.1a.375.375,0,0,0-.435.357c-.016.424-.016.847.008,1.286a.373.373,0,0,0,.334.352l7.153.794c.577.084,1.139.167,1.655.258l.91.162c.7.126,1.36.244,1.978.336a16.079,16.079,0,0,0,4.525.17c1.323-.129,2.379-.313,3.053-.439l.174-.029c.114-.018.221-.036.326-.057a.372.372,0,0,0,.284-.26,5.461,5.461,0,0,1,.24-.65c.081-.194.152-.385.224-.577a6.14,6.14,0,0,1,.736-1.512A5.023,5.023,0,0,1,61.7,66.417a7.842,7.842,0,0,1,1.964-.692,23.358,23.358,0,0,1,3.116-.418l.451-.04c.362-.026.723-.064,1.085-.1a19.338,19.338,0,0,1,1.99-.137,4.761,4.761,0,0,1,3.124.91A4.59,4.59,0,0,1,74.8,68.321a11.614,11.614,0,0,1,.3,2.2v.459a.361.361,0,0,0,.014.1l.013.122a3.573,3.573,0,0,1,.034.441.374.374,0,0,0,.375.375h0a25.949,25.949,0,0,0,4.891-.6.375.375,0,0,0,.3-.357c.045-1.741.2-3.346.334-4.811l.024-.245c.154-1.6.286-2.984.352-4.253a27.07,27.07,0,0,0-.257-6.306,20.526,20.526,0,0,0-.769-3.034l-.031-.1a.374.374,0,0,0-.441-.251.84.84,0,0,1-.844-.373.829.829,0,0,1,.35-1.1,10.784,10.784,0,0,1,2.165-1.308c.436-.227.452-.969.384-2.493-.014-.31-.028-.566-.016-.684a6.134,6.134,0,0,1,1.458-3.462,6.684,6.684,0,0,1,1.667-1.534,7,7,0,0,1,1.806-.687,8.392,8.392,0,0,1,1.67-.175c.5-.007.966,0,1.425.03a3.786,3.786,0,0,1,2.408.84c.639.633,2.33,8.671,2.247,9.828a.383.383,0,0,0-.05.181.374.374,0,0,0,.365.383c.317.008.618.008.942.008a.375.375,0,0,0,.375-.369,20,20,0,0,0-.265-3.183L95.611,45.2a6.67,6.67,0,0,1-.1-1.932,5.826,5.826,0,0,1,2.225.153c.224.073.344.122.456.168l.2.079a2.836,2.836,0,0,1,.453.221l.24.131a4.22,4.22,0,0,1,.6.368,5.73,5.73,0,0,1,1.631,1.573,1.986,1.986,0,0,1,.451.643,5.479,5.479,0,0,1,.438,2.011,10.373,10.373,0,0,1-.008,1.429c-.03.33-.059.66-.125,1.041a.37.37,0,0,0,.084.306.365.365,0,0,0,.289.132l4.087-.1c.907-.036,1.843-.074,2.829-.107a.375.375,0,0,0,.241-.651c-.081-.074-.16-.153-.232-.226-.885-.937-2.09-2.077-3.687-3.487a47.99,47.99,0,0,0-6.028-4.495,34.842,34.842,0,0,0-9.251-4.216,24.565,24.565,0,0,0-6.074-.931l-7.081-.222c-1.262-.045-2.547-.084-3.875-.122s-2.695-.092-4.033-.107a45.343,45.343,0,0,0-8.63.6c-.544.12-1.092.245-1.645.371l-.566.128c-.126.032-.256.059-.386.086a5.934,5.934,0,0,0-.751.19l-1.08.358c-.469.153-.926.352-1.369.545-.266.117-.534.233-.852.363-.185.1-.375.2-.629.34a.375.375,0,0,0,.206.7c.722-.056,1.432-.116,2.117-.174l.715-.062c2.163-.023,4.111-.046,5.861-.069,1.332.012,2.556,0,3.68-.02.935-.012,1.8-.021,2.646-.02l.651-.076c.752-.073,1.913-.172,3.382-.2a19.615,19.615,0,0,1,4.291.349,6.565,6.565,0,0,1,1.284.425,2.827,2.827,0,0,1,1.291,1.025,4.765,4.765,0,0,1,.219.43l.125.462a4.9,4.9,0,0,1,.084.818,8.27,8.27,0,0,1-.169,1.561l-.029.15c-.288,1.482-.962,4.953-2.339,5.612s-3.7.287-5.757-.034a23.974,23.974,0,0,0-2.581-.316c-.592-.031-1.206-.076-1.843-.123-.9-.065-1.848-.135-2.84-.175l-5.391-.191c-1.91-.046-3.912-.092-5.988-.138-2.367-.07-4.456-.087-6.38-.053-2.027.022-4.1.147-6.331.384a47.785,47.785,0,0,0-5.815.986c-4.48,1.045-7.273,2.008-9.339,3.218A12.578,12.578,0,0,0,22.236,56.6a6.394,6.394,0,0,0-.691.781c-.105.134-.207.264-.345.425l-.247.366c-.173.253-.335.491-.48.732-.182.332-.348.627-.513.909l-.046.094.014-.066c.089-.308.2-.667.315-1.046.144-.381.33-.776.537-1.227.094-.144.184-.3.276-.456a6.361,6.361,0,0,1,.638-.949,9.247,9.247,0,0,1,.881-1.028.375.375,0,0,0-.475-.574A21.59,21.59,0,0,0,17.819,58.276Z"/>
        <path d="M92.207,42.109a1.62,1.62,0,0,0-.377-.338,3.181,3.181,0,0,0-1.856-.32c-.288.01-.6.037-.924.066l-.4.033a7.473,7.473,0,0,0-1.407.273,5.161,5.161,0,0,0-2.646,1.77,5.282,5.282,0,0,0-.792,1.448.374.374,0,0,0,.392.5,3.347,3.347,0,0,1,1.583.238.817.817,0,0,1,.236.1.846.846,0,0,1,.226.166,2.957,2.957,0,0,1,.11,4.934.375.375,0,0,0,.219.68h.02c1.668-.089,3.556-.138,5.611-.145h.481a.372.372,0,0,0,.277-.122.378.378,0,0,0,.1-.288c-.09-.94-.14-1.78-.184-2.531-.032-.53-.061-1.016-.1-1.457-.079-1.083-.18-2.071-.3-2.948-.059-.34-.1-.643-.125-.94a3.469,3.469,0,0,1-.077-.579,1,1,0,0,1,.019-.233A.375.375,0,0,0,92.207,42.109Z"/>
        <path d="M47.174,47.9c1.938-.022,3.936.012,5.937.1l1.336.061h.019a.374.374,0,0,0,.348-.236,14.107,14.107,0,0,1,3.47-5.108c.112-.1.223-.2.357-.32a.374.374,0,0,0,.1-.421.351.351,0,0,0-.363-.235l-1.83.07-6.433.565a.38.38,0,0,0-.26.14,13.614,13.614,0,0,0-1.142,1.627c-.273.447-.539.916-.813,1.4-.329.58-.67,1.18-1.049,1.785a.376.376,0,0,0-.009.383A.338.338,0,0,0,47.174,47.9Z"/>
        <path d="M76.356,49.114a.376.376,0,0,0,.67-.087l.489-1.467a26.833,26.833,0,0,0,.828-2.848,7.094,7.094,0,0,0,.162-1.282,1.745,1.745,0,0,0-.161-.923,1.656,1.656,0,0,0-.673-.536,5.607,5.607,0,0,0-1.022-.372,16.848,16.848,0,0,0-2.7-.42c-.23-.013-.477-.028-.786-.057-.238,0-.486,0-.752-.005-.541-.008-1.147-.016-1.822.02-.868.023-1.851.094-2.988.177-1.521.111-3.244.237-5.265.289a1.41,1.41,0,0,0-.685.073,11.425,11.425,0,0,0-2.4,2.017A15.352,15.352,0,0,0,56.6,47.641a.374.374,0,0,0,.324.533c.738.031,1.469.069,2.171.115l5.188.412a.379.379,0,0,0,.381-.242.855.855,0,0,1,.137-.245A6.722,6.722,0,0,1,70.454,45.9,7.583,7.583,0,0,1,76.356,49.114Z"/>
        <path d="M98.712,44.932l-.244-.088a2.363,2.363,0,0,0-.505-.168c-.052-.011-.119-.031-.179-.048a1.069,1.069,0,0,0-.275-.055.535.535,0,0,0-.5.243.451.451,0,0,0,.026.464l0,.031,0,.018c.034.156.065.314.1.475l.366,1.914a18.7,18.7,0,0,1,.33,3.455.376.376,0,0,0,.375.379c.29,0,.582.008.879.015.313.008.63.016,1,.016a.376.376,0,0,0,.372-.327c.055-.424.105-.656.148-.852.035-.159.065-.3.089-.485.062-.475.108-.927.131-1.309.052-.631.078-1.219.078-1.75,0-.281,0-.466.007-.615a.373.373,0,0,0-.185-.343,12.789,12.789,0,0,0-1.465-.74A3.871,3.871,0,0,0,98.712,44.932Z"/>
        <path d="M82.573,66.25c-.1,1.352-.213,2.75-.272,4.259a.378.378,0,0,0,.464.379c1.308-.322,2.592-.642,3.829-.955l3.2-.789q3.564-.879,6.624-1.639c.331-.073.65-.151.973-.231l.159-.039a.374.374,0,0,0,.285-.342,50.676,50.676,0,0,0-.084-7.111,31.6,31.6,0,0,0-.7-4.672c-.227-.96-.452-1.638-.617-2.134l-.086-.264a.376.376,0,0,0-.341-.259c-1.369-.061-2.646-.114-3.813-.153-4.37-.186-7.417-.2-9.434-.216l-.742,0c.175-.027.343-.053.541-.08.243-.03.508-.061.788-.09a.369.369,0,0,0,.323-.345.383.383,0,0,0-.224-.374l-.013-.007a3.156,3.156,0,0,1-.642-.48.49.49,0,0,0-.388-.079,1.018,1.018,0,0,0-.156.059l-.077.039a7.258,7.258,0,0,0-.733.4c-.144.085-.282.178-.419.271l-.236.157a.363.363,0,0,0-.128.448.37.37,0,0,0,.272.209c-.02.02-.048.031-.062.057a.371.371,0,0,0,.011.384,10.859,10.859,0,0,1,1.165,2.593,20.487,20.487,0,0,1,.77,6.558C82.813,63.146,82.7,64.653,82.573,66.25Z"/>
        <path d="M30.712,80.686a.74.74,0,0,0-.3-.057l-.019.277-.006,0v-.271a35.126,35.126,0,0,1-6.567-.839l-.285-.055c-.98-.19-1.986-.313-2.959-.432-.958-.118-1.949-.239-2.9-.424a.378.378,0,0,0-.366.137.374.374,0,0,0-.046.387A8.276,8.276,0,0,0,24,83.92a9.149,9.149,0,0,0,1.025.058,7.219,7.219,0,0,0,5.861-2.7.4.4,0,0,0,.045-.328A.434.434,0,0,0,30.712,80.686Z"/>
        <path d="M111.716,67.513a4.276,4.276,0,0,0-1.409.332l-.441.153a.373.373,0,0,0-.257.363,2.428,2.428,0,0,0,2.049,2.277c.263,0,1.125-.113,1.154-1.567C112.833,67.815,112.228,67.53,111.716,67.513Z"/>
        <path d="M111.578,71.479a2.642,2.642,0,0,1-2.873-2.5.39.39,0,0,0-.245-.265.459.459,0,0,0-.39.038,2.151,2.151,0,0,0-.256.171.884.884,0,0,0-.107.105.376.376,0,0,0-.1.342c.377,1.73.892,4.1,2.937,4.733a.383.383,0,0,0,.111.017.332.332,0,0,0,.31-.158,5.537,5.537,0,0,0,.953-2.011.373.373,0,0,0-.341-.475Z"/>
        <path d="M106.73,71.9a.359.359,0,0,0-.367-.247,9.353,9.353,0,0,0-3.106.86.375.375,0,0,0-.185.534,3.882,3.882,0,0,0,2.652,2.126,7.856,7.856,0,0,0,1.825.224,6.261,6.261,0,0,0,.727-.04.374.374,0,0,0,.2-.654A6.609,6.609,0,0,1,106.73,71.9Z"/>
        <path d="M118.506,61.978c-1.427.586-4.012,1.473-7.9,2.709l-6.011,1.879c-.517.155-1.048.318-1.594.485-1.845.565-3.936,1.2-6.215,1.772L85.8,71.7c-1.454.381-2.957.774-4.557,1.126a27.965,27.965,0,0,1-5.934.748.375.375,0,0,0-.373.329c-.075.611-.166,1.13-.249,1.581a16.144,16.144,0,0,0-.181,1.644,2.645,2.645,0,0,0,.037.639l.054.208a.376.376,0,0,0,.368.3.382.382,0,0,0,.12-.02,1.2,1.2,0,0,0,.14-.058l.176-.087a.446.446,0,0,0,.091-.037l.091-.03c.372-.12.749-.2,1.14-.287l.21-.046c.86-.172,1.842-.321,3.05-.459a22.361,22.361,0,0,0,3.266-.57c.2-.052.406-.095.613-.14a10.776,10.776,0,0,0,1.149-.293l1.85-.589c.456-.146.916-.306,1.388-.47.859-.3,1.748-.606,2.729-.874,1.1-.351,2.225-.615,3.414-.895.4-.095.8-.19,1.214-.29,1.088-.262,2.194-.548,3.331-.842l1.706-.439a18.234,18.234,0,0,0,1.8-.668c.245-.1.5-.2.76-.306a11.315,11.315,0,0,1,1.71-.548.377.377,0,0,0,.242-.181c.1-.169.191-.344.3-.549s.225-.406.36-.636a5.578,5.578,0,0,1,.449-.658,2.466,2.466,0,0,1,.405-.425l.161-.149a6.052,6.052,0,0,1,.557-.371l.11-.07a10.652,10.652,0,0,1,1.349-.571l.625-.216c.088-.026.212-.074.348-.127l.456-.175a4.061,4.061,0,0,1,1.265-.325,2.9,2.9,0,0,1,.925.134c.173.079.352.18.477.248a3.256,3.256,0,0,1,.368.361c.056.084.106.162.157.249l.076.13.323-.19h0l-.279.3c.092.225.374.264.787.19a6.748,6.748,0,0,0,.889-.226,13.479,13.479,0,0,0,1.754-.7,9.022,9.022,0,0,0,.809-.446c.416-.277.527-.389.552-.446a3.63,3.63,0,0,0,.5-1.441,13.286,13.286,0,0,0,.134-1.7.375.375,0,0,0-.517-.357Z"/>
        <path d="M73.818,68.613v0a3.663,3.663,0,0,0-1.11-1.767,3.484,3.484,0,0,0-2.267-.546,19.1,19.1,0,0,0-1.912.188c-.37.049-.757.1-1.16.142l-.357.039a24.417,24.417,0,0,0-3.024.459,4.557,4.557,0,0,0-2.814,1.651,5.1,5.1,0,0,0-.561,1.216c-.064.174-.13.351-.193.508a9.025,9.025,0,0,0-.455,1.452c-.049.193-.1.386-.157.6l-.046.206a.375.375,0,0,0,.67.3c1.072-1.481,2.758-3.308,4.709-3.6a3.755,3.755,0,0,1,2.885.818,10.326,10.326,0,0,1,3.916,7.608.375.375,0,0,0,.373.344c.471,0,.8,0,1.043.022h.035a.375.375,0,0,0,.375-.375c0-.353.014-.677.026-.824a14.551,14.551,0,0,1,.4-1.882c.048-.194.1-.378.153-.553l.035-.122a.432.432,0,0,0,.015-.1,33.415,33.415,0,0,0-.165-3.8A11.318,11.318,0,0,0,73.818,68.613Z"/>
        <path d="M122.25,63.254a.531.531,0,0,0-.21-.16,1.778,1.778,0,0,0-.556-.219,2.884,2.884,0,0,0-.617-.089.674.674,0,0,0-.662.656c-.021.259-.041.523-.075.759l-.044.217c-.02.106-.041.213-.066.322a.624.624,0,0,0,.964.658c.185-.128.371-.258.568-.413.146-.121.275-.241.407-.373l.139-.146a.515.515,0,0,0,.116-.18,1.027,1.027,0,0,0,.1-.226,1.168,1.168,0,0,0,.064-.252A.7.7,0,0,0,122.25,63.254Z"/>
        <path d="M118.942,59.439c-.045-.834-.091-1.7-.064-2.565h0a5.064,5.064,0,0,0-.508-2.809,3.422,3.422,0,0,0-2.384-1.117c-.482-.085-.987-.148-1.484-.2l-.1-.007c-.47-.03-.934-.058-1.462-.084-.456-.029-.907-.058-1.37-.08-.29-.006-.573,0-.855,0l-.555,0c-1.887.03-3.676.061-5.345.091l-1.5-.015c-1.145-.009-2.241-.018-3.285-.061-.984-.031-1.915-.061-2.815-.1a.392.392,0,0,0-.348.2.372.372,0,0,0,.035.4,7.389,7.389,0,0,1,.975,1.727,20.133,20.133,0,0,1,1.326,5.478,33.28,33.28,0,0,1,.227,3.989c0,.077-.013.209-.027.369-.089.995-.121,1.719.3,1.99a.594.594,0,0,0,.312.068,3.793,3.793,0,0,0,1.315-.356.423.423,0,0,0,.188-.39,11.332,11.332,0,0,1-.015-2.353c.016-.242.031-.483.041-.724A24.782,24.782,0,0,1,101.789,60a7.045,7.045,0,0,1,.935-2.692,4.587,4.587,0,0,1,.967-1.083,1.5,1.5,0,0,1,.34-.239c.067-.038.134-.077.194-.116a2.822,2.822,0,0,1,.55-.282,11.333,11.333,0,0,1,4.075-.715c1.218-.014,2.234.049,3.067.113,1.343.112,2.54.248,3.653.417.153.025.279.048.384.068-.1.03-.228.06-.376.089a25.081,25.081,0,0,1-3.685.3l-.3.013c-.8.035-1.694.074-2.688.157a11.183,11.183,0,0,0-3.57.809,3.1,3.1,0,0,0-1.393,1.238,6.044,6.044,0,0,0-.674,2.152,24.437,24.437,0,0,0-.19,2.617l-.018.467c-.024.624-.049,1.27-.137,1.975a.375.375,0,0,0,.474.407c.293-.082.595-.165.88-.234l6.072-1.6c4.1-1.045,6.83-1.672,8.356-1.919a.379.379,0,0,0,.315-.382c-.007-.36-.016-.721-.031-1.072S118.96,59.787,118.942,59.439Z"/>
        <path d="M23.063,78.082l.983.188c1.391.268,2.829.544,4.266.7l.039,0a.375.375,0,0,0,.324-.563,7.8,7.8,0,0,1-.613-1.3.374.374,0,0,0-.323-.249,42.6,42.6,0,0,1-5.543-.942A36.541,36.541,0,0,0,15.5,74.9a.7.7,0,0,1-.676-.465.863.863,0,0,1,.161-.906.379.379,0,0,0,.117-.282,6.405,6.405,0,0,0-1.245-3.742,1.377,1.377,0,0,0-1.467-.436c-1.06.333-1.878,1.93-2.037,2.905a3.547,3.547,0,0,0,.75,2.855,7.37,7.37,0,0,0,5.083,2.333.358.358,0,0,0,.176-.031.7.7,0,0,1,.482-.019,24.873,24.873,0,0,0,3.7.617C21.375,77.826,22.233,77.925,23.063,78.082Z"/>
        <path d="M12.266,67.478a.375.375,0,0,0,.277-.371c-.008-.34,0-.665.021-.99a.374.374,0,0,0-.342-.4c-.225-.019-.4-.042-.544-.066.173-.064.412-.143.741-.239a.375.375,0,0,0,.264-.3,12.433,12.433,0,0,1,1.067-3.379,16.841,16.841,0,0,1,3.059-4.376A19.127,19.127,0,0,1,21.8,53.564a.36.36,0,0,0,.161-.445.393.393,0,0,0-.433-.251l-3.307.48c-1.405.186-2.857.379-4.431.678a26.873,26.873,0,0,0-3.5.9.375.375,0,0,0-.1.653A5.208,5.208,0,0,1,11.9,60.327a3.908,3.908,0,0,1-2.28,3.279.453.453,0,0,0-.232.4,13.933,13.933,0,0,0,.524,4.429.375.375,0,0,0,.272.244.33.33,0,0,0,.083.009.375.375,0,0,0,.267-.111A3.947,3.947,0,0,1,12.266,67.478Z"/>
        <path d="M57.081,82.083a.377.377,0,0,0-.152-.293.373.373,0,0,0-.324-.06,11.675,11.675,0,0,1-2.93.369c-.4,0-.8.017-1.2.029l-.566.017a.375.375,0,0,0-.362.421,10.212,10.212,0,0,0,4.811,7.068,7.491,7.491,0,0,0,3.415,1.084H59.8a.375.375,0,0,0,.265-.64C58.091,88.1,57.134,84.55,57.081,82.083Z"/>
        <path d="M10.13,57.908a2.244,2.244,0,0,0-2.143-1.445.62.62,0,0,0-.149.01A2.14,2.14,0,0,0,6,58.341a4.269,4.269,0,0,0,1.969,3.783,1.442,1.442,0,0,0,.635.161,1.063,1.063,0,0,0,.757-.31A3.9,3.9,0,0,0,10.13,57.908Z"/>
        <path d="M53.7,80.556c1.4-.069,2.827-.2,3.521-1.008a1.855,1.855,0,0,0,.4-1.451.376.376,0,0,0-.463-.327,30.887,30.887,0,0,1-8.746.443c-.527-.023-1.054-.046-1.581-.065a89.177,89.177,0,0,1-12.684-1.453.375.375,0,0,0-.294.072.933.933,0,0,1-1.073,0,.561.561,0,0,1-.181-.71c.068-.182.141-.366.215-.549a9.83,9.83,0,0,0,.455-1.3,2.049,2.049,0,0,0-.571-1.96,1.479,1.479,0,0,0-1.57-.244,3.141,3.141,0,0,0-1.738,3.707c.485,2.259,2.081,4.8,4.955,4.52a.6.6,0,0,1,.375.067.386.386,0,0,0,.113.042,33.281,33.281,0,0,0,6.512.574c1.841,0,3.689-.1,5.585-.2.6-.032,1.208-.066,1.818-.095.814-.041,1.648-.036,2.454-.03S52.866,80.6,53.7,80.556Z"/>
        <path d="M66.049,71.524a5.244,5.244,0,0,0-4.558,2.62c-.241.423-.513.86-.793,1.307a12.556,12.556,0,0,0-2.056,4.468A13.007,13.007,0,0,0,60.3,87.764,2.956,2.956,0,0,0,62.919,89.4h.022c2.245,0,4.577-2.176,5.45-3.654,2.021-3.448,2.581-7.2,1.545-10.253C69.457,73.6,68.185,71.566,66.049,71.524Zm.672,13.416a1.209,1.209,0,0,1-.168.16,3.174,3.174,0,0,1-2.974,1.02,3.121,3.121,0,0,1-2.044-2.353c-.807-2.775-.7-6.432,1.37-8.346a2.95,2.95,0,0,1,2.047-.765,4.229,4.229,0,0,1,3.915,2.751C69.623,80.19,68.254,83.123,66.721,84.94Z"/>
        <path d="M65.586,76.177a1.627,1.627,0,0,0-1.838.567,6.728,6.728,0,0,0-1.1,4.979c.234,1.96.681,2.932,1.412,3.061a.881.881,0,0,0,.143.012c.548,0,1.015-.5,1.333-.846l.132-.142a7.679,7.679,0,0,0,1.868-4.943A3.343,3.343,0,0,0,65.586,76.177Z"/>
    </g>
</svg>
