<svg xmlns="http://www.w3.org/2000/svg" viewBox="0 0 120 120" x="0px" y="0px">
    <g>
        <path d="M36.331,50.46a.25.25,0,0,0-.207-.294c-1.925-.3-4.325-.736-8.282-1.518-1.923-.382-3.968-.773-6.083-1.163-.339-.056-.681-.114-1.03-.174l-.951-.16a.25.25,0,0,0-.249.106c-.073.109-.145.231-.235.384a14.633,14.633,0,0,0-1.046,2.176c-.023.062-.045.13-.065.2s-.041.129-.064.188a.252.252,0,0,0,.21.337c1.39.136,3.246.31,5.291.441,1.509.113,3.1.236,4.764.364l3.845.3c.55.05,1.111.1,1.677.145.635.052,1.279.107,1.928.167h.023a.25.25,0,0,0,.247-.211C36.172,51.321,36.248,50.89,36.331,50.46Z"/>
        <path d="M24.444,73.057a13.817,13.817,0,0,0,1.631.765c.272.108.568.217.816.3a4.651,4.651,0,0,0,.569.122c.107.018.217.037.323.06l3.491.669c.727.125,1.457.217,2.164.306.421.054.839.107,1.252.166.245.035.482.064.719.093l.357.044.031,0a.25.25,0,0,0,.183-.08.253.253,0,0,0,.062-.221c-.075-.363-.151-.733-.219-1.1a.25.25,0,0,0-.21-.2c-.429-.062-.859-.13-1.3-.2l-.414-.065a29.507,29.507,0,0,1-3.441-1c-1-.334-2.028-.681-3.078-.926l-.839-.184c-.16-.028-.316-.045-.474-.061-.107-.012-.215-.023-.343-.041-.047,0-.1-.01-.144-.016-.087-.012-.191-.009-.279-.022l-1.1.053a.257.257,0,0,0-.106.021l-.091.021a2.865,2.865,0,0,0-.7.222.244.244,0,0,0-.128.169.251.251,0,0,0,.047.207,2.612,2.612,0,0,0,.469.427h0A7.772,7.772,0,0,0,24.444,73.057Z"/>
        <path d="M22.972,38.4a.914.914,0,0,0-.1.01c-.121.016-.246.028-.369.041a4.273,4.273,0,0,0-.779.122l-.542.132a2.5,2.5,0,0,0-.291.11c-.057.024-.113.049-.149.062a1.819,1.819,0,0,0-.67.39c-.078.061-.156.123-.248.184-.176.132-.361.3-.545.457-.1.092-.207.182-.315.272-.338.3-.664.613-.981.912-.2.193-.4.382-.6.562-.27.247-.472.448-.7.679s-.407.438-.6.65-.343.413-.5.638a1.256,1.256,0,0,0-.148.239.756.756,0,0,0-.11.554.434.434,0,0,0,.385.334h.011a1.377,1.377,0,0,0,.221.05l.146.022.017,0,.285.024c.464.044.933.067,1.416.092l.746.036c.112.012.2.024.276.035s.134.018.188.024c.284.046.566.092.836.129l.28.046a.273.273,0,0,0,.041,0,.25.25,0,0,0,.2-.107,17.254,17.254,0,0,0,1.831-3.815,24.973,24.973,0,0,1,1.072-2.532.254.254,0,0,0-.05-.257A.311.311,0,0,0,22.972,38.4Z"/>
        <path d="M22.319,64.514v0c.023.233.038.45.052.66l-.007.676c-.012.436-.049.877-.112,1.389a.249.249,0,0,0,.187.273l.19.046a.3.3,0,0,0,.06.007.254.254,0,0,0,.125-.033c.094-.054.187-.109.282-.168a10.584,10.584,0,0,0,1.337-.969,6.341,6.341,0,0,1,.878-.605,3.051,3.051,0,0,1,1.148-.376,8.285,8.285,0,0,1,2.517.211l3.207.6c1.091.2,2.237.425,3.421.66a.244.244,0,0,0,.207-.051.249.249,0,0,0,.092-.19,20.4,20.4,0,0,0-.138-2.9,34.064,34.064,0,0,1-.3-4.946.25.25,0,0,0-.216-.25c-1.531-.211-3.153-.432-4.878-.667l-1.187-.162c-.589-.068-1.194-.171-1.778-.271a19.275,19.275,0,0,0-2.842-.345,2.539,2.539,0,0,0-.4.006l-.791.12a.549.549,0,0,0-.134.069l-.04.029a1.1,1.1,0,0,0-.27.185c-.035.029-.072.06-.135.109-.186.18-.4.416-.632.683l-.2.229a5.164,5.164,0,0,1-1,.871.251.251,0,0,0-.094.314c.035.076.074.148.114.221l.04.073a14.274,14.274,0,0,1,1.067,3.049A12.21,12.21,0,0,1,22.319,64.514Z"/>
        <path d="M22.521,70.771l.062.184a.25.25,0,0,0,.143.149.255.255,0,0,0,.206-.01,3.685,3.685,0,0,1,.86-.291l.174-.035-.046-.246.127.194,0,.032.016,0,0,0,.021-.006,1.153-.056c.085,0,.174.01.262.019s.147.016.2.018l.232.025c.251.027.5.054.73.092l.9.2c1.132.281,2.2.651,3.23,1.01a27.83,27.83,0,0,0,3.243.984c.44.075.879.151,1.3.228a.313.313,0,0,0,.044,0A.25.25,0,0,0,35.636,73c-.022-.231-.036-.462-.044-.7a.25.25,0,0,0-.2-.236c-2.686-.567-5.367-1.292-7.958-1.994-1.677-.454-3.411-.922-5.134-1.346a.257.257,0,0,0-.214.061.28.28,0,0,0-.1.212.283.283,0,0,0,.01.071C22.169,69.63,22.338,70.193,22.521,70.771Z"/>
        <path d="M18.955,57.062a9.247,9.247,0,0,1,.708.8.249.249,0,0,0,.338.047,3.867,3.867,0,0,0,.634-.568l.213-.241c.211-.241.449-.514.729-.778l.08-.07a3.453,3.453,0,0,1,.6-.442c.139-.079.283-.153.391-.2.113-.037.231-.067.346-.1l.471-.121.4-.031a3.962,3.962,0,0,1,.706-.021,21.412,21.412,0,0,1,3.2.4c.573.1,1.115.2,1.646.261q1.935.3,3.707.575l2.118.329a.267.267,0,0,0,.2-.052.247.247,0,0,0,.092-.179c.057-.861.144-1.753.265-2.727a.249.249,0,0,0-.218-.279c-.605-.075-1.209-.14-1.8-.2-.57-.062-1.131-.123-1.683-.191-3.1-.357-5.977-.683-8.606-.979-2.041-.216-3.926-.5-5.533-.743a.249.249,0,0,0-.28.186l-.058.222c-.059.225-.119.452-.165.694a22.6,22.6,0,0,0-.369,2.864.249.249,0,0,0,.128.236A7.769,7.769,0,0,1,18.955,57.062Zm2.387-2.16a2.26,2.26,0,0,0-.528-.062l-.57-.007a.89.89,0,0,1,0-1.778,7.918,7.918,0,0,1,1.58.131.79.79,0,0,1,.5.38.937.937,0,0,1,.109.715A.907.907,0,0,1,21.342,54.9Z"/>
        <path d="M35.651,67.672c-1.184-.251-2.336-.5-3.427-.741l-.182-.04c-.655-.152-1.292-.3-1.906-.433l-1.254-.285a8.444,8.444,0,0,0-2.372-.352,3.842,3.842,0,0,0-1.952.756,8.957,8.957,0,0,1-1.235.694.251.251,0,0,0,.042.471c1.482.37,2.951.762,4.419,1.154,2.463.657,5.01,1.336,7.558,1.893a.319.319,0,0,0,.054,0,.249.249,0,0,0,.249-.228c.075-.868.151-1.751.2-2.634A.254.254,0,0,0,35.651,67.672Z"/>
        <path d="M20.149,63.66c.066.186.131.373.2.568l.252.691c.162.447.327.9.493,1.363.106.278.2.571.3.864a.253.253,0,0,0,.156.157.643.643,0,0,0,.1.022.3.3,0,0,0,.059.007.251.251,0,0,0,.25-.246c.008-.391.016-.8,0-1.221,0-.1-.01-.207-.016-.311l-.107-.989a11.24,11.24,0,0,0-.261-1.2l-.041-.162a14.467,14.467,0,0,0-1.13-2.886,10.6,10.6,0,0,0-1.98-2.718,7.576,7.576,0,0,0-1.022-.826.249.249,0,0,0-.392.2C17,57.342,17,57.693,17,58.017c.009.224.009.425.009.612a.248.248,0,0,0,.1.2,8.25,8.25,0,0,1,2.5,3.428C19.831,62.752,19.985,63.193,20.149,63.66Z"/>
        <path d="M21.806,45.114a.249.249,0,0,0-.01.234.246.246,0,0,0,.187.14c.941.144,1.851.3,2.722.447a.209.209,0,0,0,.043,0,.249.249,0,0,0,.146-.047.253.253,0,0,0,.1-.164,27.693,27.693,0,0,1,2.017-6.969.251.251,0,0,0-.218-.352c-.572-.023-1.144-.046-1.715-.053h0a.249.249,0,0,0-.209.113A18.756,18.756,0,0,0,23.2,42.014,20.792,20.792,0,0,1,21.806,45.114Z"/>
        <path d="M11.018,58.565l0,0a3.516,3.516,0,0,1,2.064-.871,3,3,0,0,1,.733-.007c.089.007.18.013.274.018.162.006.334.022.505.036a1.755,1.755,0,0,1,.283.062c.072.02.145.04.217.055a4.783,4.783,0,0,1,1.139.426.245.245,0,0,0,.261-.021.25.25,0,0,0,.1-.243,14.134,14.134,0,0,1-.179-1.657.249.249,0,0,0-.155-.218,7.03,7.03,0,0,0-.912-.306c-.12-.015-.24-.04-.358-.064a4.5,4.5,0,0,0-.519-.082l-.289-.011c-.2-.008-.391-.017-.6-.011-.138.012-.275.025-.41.039l-.433.042c-.176.036-.356.081-.538.126l-.364.089A4.672,4.672,0,0,0,9.22,57.74,8.224,8.224,0,0,0,8,63.207a15.057,15.057,0,0,0,.914,4.078,1.614,1.614,0,0,0-.081-.216,11.85,11.85,0,0,1-1.24-3.818,10.967,10.967,0,0,1-.037-2.813,6.939,6.939,0,0,1,1.112-3.1,5.423,5.423,0,0,1,3-2.114c.132-.031.262-.064.394-.1.162-.042.327-.084.473-.117l.446-.053.573-.067c.224,0,.447,0,.672.011l.34.01a6.029,6.029,0,0,1,.663.11c.118.025.236.049.338.066s.214.064.317.1l.185.062a.242.242,0,0,0,.22-.034.248.248,0,0,0,.106-.2,15.4,15.4,0,0,1,.276-2.529c.059-.284.126-.567.2-.835a.25.25,0,0,0-.03-.2.247.247,0,0,0-.169-.113c-.1-.016-.2-.032-.267-.038-1.959-.326-3.652-.6-5.066-.828a.257.257,0,0,0-.2.056.25.25,0,0,0-.088.191,1.245,1.245,0,0,1-.008.191L11,51.1c-.036.1-.073.177-.128.3-.088.184-.176.344-.27.5-.175.294-.363.568-.545.835l-.035.051c-.338.47-.714.956-1.2,1.555a3.288,3.288,0,0,0-.336.423l-.1.2c-.018.032-.031.062-.047.1a1.583,1.583,0,0,1-.1.2l-.049.052a.624.624,0,0,1-.069.069.594.594,0,0,1-.166.075.521.521,0,0,1-.236-.011,1.314,1.314,0,0,1-.285-.111c-.131-.066-.248-.132-.359-.193l-.079-.045a.25.25,0,0,0-.371.238l.023.266A23.776,23.776,0,0,1,6.3,58.367,22.778,22.778,0,0,0,5.945,61.5a14.054,14.054,0,0,0,.718,5.468,4.567,4.567,0,0,0,.465.939,5.493,5.493,0,0,0,1.341,1.464l.055.047a.251.251,0,0,0,.163.059.233.233,0,0,0,.1-.021.251.251,0,0,0,.15-.22c.005-.172.024-.351.042-.532A3.327,3.327,0,0,0,8.916,67.3a.247.247,0,0,0,.233.162h.009a.249.249,0,0,0,.232-.18c.069-.239.139-.509.216-.851l.159-.741a3.7,3.7,0,0,0,.075-.6c.021-.438,0-1.013-.028-1.68L9.8,62.855a9.456,9.456,0,0,1,.208-2.5A3.549,3.549,0,0,1,11.018,58.565Z"/>
        <path d="M14.451,76.778a.4.4,0,0,0-.02-.058.534.534,0,0,1-.036-.1.19.19,0,0,0-.076-.125.248.248,0,0,0-.062-.067.589.589,0,0,0-.56-.13,1.627,1.627,0,0,0-.663.423,6.935,6.935,0,0,0-.964,1.213c-.111.166-.208.323-.293.462l-.061.1a.249.249,0,0,0-.01.245,9.664,9.664,0,0,0,.579,1.009,7.65,7.65,0,0,0,1.115,1.31.251.251,0,0,0,.169.066.246.246,0,0,0,.076-.012.251.251,0,0,0,.168-.184c.023-.1.049-.207.078-.317l.043-.168c.128-.489.272-1.043.4-1.667A5.09,5.09,0,0,0,14.451,76.778Z"/>
        <path d="M12.561,76.287a2.245,2.245,0,0,1,.911-.688,1.3,1.3,0,0,1,.694-.048,1.729,1.729,0,0,1,.644.314.367.367,0,0,0,.052.071.251.251,0,0,0,.331.025c.009-.006.06-.053.068-.061l-.172-.175h0l.224.126a1.724,1.724,0,0,1,.529-.344,2.032,2.032,0,0,1,1.08-.1,2.641,2.641,0,0,1,1.432.779.25.25,0,0,0,.43-.158c.031-.473.055-.955.069-1.444a.248.248,0,0,0-.119-.22.251.251,0,0,0-.25-.007,1.984,1.984,0,0,1-.458.192,1.482,1.482,0,0,1-.916-.067,2.279,2.279,0,0,1-1.266-1.552,3.052,3.052,0,0,1-.049-1.467.25.25,0,0,0-.4-.251l-.065.051a2.407,2.407,0,0,1-.548.319A1.231,1.231,0,0,1,14,71.69a.5.5,0,0,1-.094-.034l-.062-.024a.25.25,0,0,0-.332.283,3.214,3.214,0,0,1,.063.782,2.155,2.155,0,0,1-.831,1.657,1.224,1.224,0,0,1-.877.182,1.351,1.351,0,0,1-.624-.3,2.124,2.124,0,0,1-.215-.2.25.25,0,0,0-.437.175,11.568,11.568,0,0,0,.683,3.533.249.249,0,0,0,.234.163h0a.25.25,0,0,0,.233-.16A4.758,4.758,0,0,1,12.561,76.287Z"/>
        <path d="M6.389,53.672l.035.246a.249.249,0,0,0,.056.146,2.721,2.721,0,0,0,.7.665c.067.028.133.053.2.077a.244.244,0,0,0,.174.123h.028a.25.25,0,0,0,.225-.141l.008-.017a.252.252,0,0,0,.038-.063,2.074,2.074,0,0,1,.089-.193l.038-.073a2.492,2.492,0,0,1,.346-.508l.2-.279c.29-.414.586-.839.878-1.29.184-.277.369-.569.543-.865l.08-.147a3.376,3.376,0,0,0,.152-.315.25.25,0,0,0-.077-.333,2.587,2.587,0,0,0-.334-.192,7.71,7.71,0,0,0-.754-.326c-.256-.1-.522-.187-.777-.265a.246.246,0,0,0-.222.038.239.239,0,0,0-.077.094l-.006.01c-.015.03-.033.079-.055.137a1.164,1.164,0,0,1-.126.275c-.086.124-.171.249-.247.376-.166.232-.353.456-.517.652a5.866,5.866,0,0,0-.392.508,1.39,1.39,0,0,0-.19.443,1.741,1.741,0,0,0-.05.491c0,.074,0,.152,0,.2a1.017,1.017,0,0,0,.02.366C6.373,53.559,6.383,53.609,6.389,53.672Z"/>
        <path d="M41.01,38.505l-.323.007c-.681.014-1.389.029-2.113.016a.245.245,0,0,0-.241.17,28.489,28.489,0,0,0-1.244,8.955.25.25,0,0,0,.223.251l1.917.214.674.046h.018a.25.25,0,0,0,.248-.222,20.328,20.328,0,0,0,.086-2.4,20.25,20.25,0,0,1,.089-2.426,29.647,29.647,0,0,1,.912-4.3.253.253,0,0,0-.044-.219A.265.265,0,0,0,41.01,38.505Z"/>
        <path d="M16.538,80.942a3.229,3.229,0,0,1-.765-.6,3.156,3.156,0,0,1-.513-.851.252.252,0,0,0-.233-.156h0a.248.248,0,0,0-.23.165,9.453,9.453,0,0,1-.5,1.157q-.155.308-.306.549a.248.248,0,0,0-.031.195.254.254,0,0,0,.121.157,2.329,2.329,0,0,0,1.13.315,2.164,2.164,0,0,0,1.363-.513.248.248,0,0,0,.094-.216A.252.252,0,0,0,16.538,80.942Z"/>
        <path d="M69.675,38.616a62,62,0,0,1-7.081.436h0c-.468-.006-.942-.021-1.418-.036a27.62,27.62,0,0,0-4.028.068.762.762,0,0,0-.694.423c-.2.5.3,1.167.836,1.811.083.1.151.183.189.237.634.923,1.342,1.822,2.027,2.692A37.74,37.74,0,0,1,62.215,48c.155.258.286.53.415.8.466.961.945,1.95,2.314,1.95a3.771,3.771,0,0,0,.8-.094l.377-.086a8.808,8.808,0,0,1,1.512-.258c1.306-.067,2.635-.086,3.92-.1,1.754-.025,3.567-.051,5.352-.2,2.357-.194,4.765-.49,7.094-.775,3.144-.386,6.4-.784,9.567-.941a.25.25,0,0,0,.16-.431l-1.448-1.371c-.216-.2-.428-.4-.64-.6-.326-.31-.663-.631-1.027-.935-.562-.467-1.145-.949-1.724-1.37-.447-.353-.919-.663-1.376-.963l-.447-.3-1.909-1.093a32.108,32.108,0,0,1-3.463-2.381L81.5,38.7a.249.249,0,0,0-.1-.045C77.524,37.836,73.535,38.232,69.675,38.616Z"/>
        <path d="M38.18,50.473l-.387-.057a.243.243,0,0,0-.281.2l-.024.113c-.075.366-.151.733-.22,1.107a.247.247,0,0,0,.044.193.25.25,0,0,0,.171.1l9.972,1.185h0c.689.072,1.385.157,2.086.243,1.135.139,2.308.282,3.476.372,1.291.122,2.6.243,3.928.365h.023a.251.251,0,0,0,.244-.194,8.185,8.185,0,0,1,.242-.815c.2-.589.371-1.1.122-1.521a1.479,1.479,0,0,0-1.1-.593,6.819,6.819,0,0,0-2.8.383l-.394.108c-2.492.684-5.791.752-7.567-1.109a.25.25,0,0,0-.327-.03A4.233,4.233,0,0,1,42.906,51l-.341-.022c-.111-.011-.25-.026-.42-.046L39.5,50.65C39.1,50.608,38.657,50.543,38.18,50.473Z"/>
        <path d="M9.2,49.446c.263.1.568.218.9.379l.109-.225h0l-.077.242.064.035a.254.254,0,0,0,.105.026q.339.011.719.032l.122,0c1.376.085,3.018.227,4.918.393l.71.065c.1.01.194.02.291.028a.25.25,0,0,0,.254-.16c.087-.23.182-.447.277-.663l.025-.061a10.366,10.366,0,0,1,1.341-2.134.254.254,0,0,0,.059-.162c0-.217-.217-.256-.292-.269l-.408-.056c-.212-.017-.439-.032-.676-.048-.394-.026-.816-.054-1.245-.1l-.585-.068c-.259-.029-.541-.081-.821-.136a5.078,5.078,0,0,1-.559-.179.273.273,0,0,0-.108-.079,1.07,1.07,0,0,1-.258-.151l-.106-.082a1.992,1.992,0,0,1-.3-.268l-.022-.025a.25.25,0,0,0-.069-.112l-.112-.173a1.324,1.324,0,0,1-.131-.37,2.088,2.088,0,0,1,.014-.944,4.208,4.208,0,0,1,.583-1.227c.064-.108.137-.215.214-.321l.284-.365c.079-.092.16-.188.234-.281.242-.278.5-.555.768-.833.376-.393.755-.738,1.156-1.1.213-.194.431-.392.652-.6l.225-.2A18.98,18.98,0,0,1,19.5,37.594a8.491,8.491,0,0,1,3.247-.867,29.786,29.786,0,0,1,3.734-.027c.389.014.771.027,1.146.035.994.016,2.016.011,3.016.005.489,0,.973-.005,1.447-.005l2.031-.007c.737,0,1.459,0,2.17-.008.442,0,.883-.007,1.318-.009.9,0,1.755-.006,2.555-.037l.587-.027a29.539,29.539,0,0,1,3.125-.034,9.473,9.473,0,0,1,3.613.846,15.858,15.858,0,0,1,4.7,3.9,32.443,32.443,0,0,1,2.749,3.721l.071.113c.32.509.619.985.874,1.429l.095.162c.1.175.2.345.288.507l.615,1.146c.227.426.48.859.733,1.29.282.481.573.978.814,1.446a3.216,3.216,0,0,1,.1,2.621l-.079.339a.249.249,0,0,0,.221.3q2.074.191,4.19.389l1.864.173c3.872.315,7.662.787,11.328,1.242l2.227.276c2.044.295,4.216.613,6.326.978,1.395.25,2.745.447,4.049.637.643.093,1.279.185,1.924.285,3.289.323,6.836.575,10.84.767l.309.018c.721.039,1.431.078,2.123.111l.788.063c.147.01.288.019.425.038l.255.055a8.2,8.2,0,0,1,1.021.258c.249.079.483.162.7.24a6.8,6.8,0,0,0,1.3.372,2.334,2.334,0,0,0,.654.057c.083,0,.167,0,.286,0,.186-.015.371-.047.554-.079.107-.019.213-.037.338-.055l.052-.013c1.1-.166,1.211-.184,1.369-.6a2.279,2.279,0,0,1,.414-.692,1.536,1.536,0,0,1,.3-.275,4.9,4.9,0,0,1,1.938-.312l.26,0c.268,0,.523.013.768.021.364.015.7.026,1.02.017.127,0,.25,0,.372,0a2.754,2.754,0,0,0,.4,0,.25.25,0,0,0,.22-.149.246.246,0,0,0-.039-.263,11.092,11.092,0,0,0-1.54-1.5,19.468,19.468,0,0,0-7.436-3.273c-1.315-.322-2.735-.624-4.22-.9l-2.185-.411c-.169-.029-.348-.063-.524-.1-.193-.037-.384-.073-.553-.1-.311-.054-.655-.085-1.041-.116l-.3-.025a11.66,11.66,0,0,1-2.036-.287,4.114,4.114,0,0,1-1.257-.538,3.178,3.178,0,0,1-.725-.67A.307.307,0,0,0,95.14,50a83.833,83.833,0,0,0-8.77.83l-.347.045a.25.25,0,0,0,0,.5c.54.067,1.132.126,1.77.19a46.033,46.033,0,0,1,6.553,1c1.637.472,3.048,1,4.411,1.514l.093.034c.653.258,1.277.5,1.867.729l.056.022c.44.183.853.374,1.239.553l.414.19a15.778,15.778,0,0,1,2.168,1.175l.1.066.01.006-.021-.007c-.259-.08-.561-.2-.907-.327-.441-.168-.942-.359-1.522-.543l-4.728-1.585c-1.092-.362-2.221-.736-3.374-1.073-1.774-.433-3.522-.714-5.064-.963-1.218-.2-2.369-.382-3.325-.61a16.686,16.686,0,0,1-2-.568.23.23,0,0,0-.115-.013c-.883.107-1.764.2-2.618.273-2.556.214-5.145.308-7.648.4-1.494.053-2.988.108-4.486.186a15.944,15.944,0,0,0-2,.275c-1.639.3-3.185.574-4.53-.537a4.6,4.6,0,0,1-1.054-1.668,7.68,7.68,0,0,0-.64-1.214C60,47.925,59.3,47,58.61,46.1c-.39-.513-.781-1.025-1.166-1.543-1.652-2.226-3.359-4.715-2.684-6.067.4-.8,1.67-1.22,3.769-1.235,4.18-.028,8.682-.116,13.282-.563a48.668,48.668,0,0,1,5.091-.264h0a.25.25,0,0,0,.087-.485,22.17,22.17,0,0,0-6.306-.97l-.807-.048c-.578-.031-1.287-.09-2.107-.173l-2.328-.237c-.572-.057-1.138-.115-1.7-.166-.669-.046-1.33-.084-1.984-.122-5.66-.343-11.017-.3-15.049-.221-2.029.036-4,.083-5.915.129-2.556.061-4.97.119-7.281.144a38.734,38.734,0,0,0-16.43,3.311,14.7,14.7,0,0,0-3.507,2.265A19.519,19.519,0,0,0,8.319,46.83c-.381.9-.47,1.429-.307,1.812C8.19,49.06,8.614,49.222,9.2,49.446Z"/>
        <path d="M116.323,58.974c-.372.047-.749.068-1.148.088-.22.012-.44.023-.659.04a5.906,5.906,0,0,0-1.624.29.251.251,0,0,0-.158.221l-.021.412a2.584,2.584,0,0,1-.056.288,1.306,1.306,0,0,1-.216.38l-.128.131a1.292,1.292,0,0,1-.522.287l-.071.024a3.523,3.523,0,0,1-.491.085l-.253.023a3.834,3.834,0,0,0-.528.066c-.12.025-.238.052-.357.08-.235.054-.47.11-.689.142-.113,0-.229.008-.345.014a3.651,3.651,0,0,1-.861-.02,8.725,8.725,0,0,1-1.572-.362c-.227-.068-.446-.134-.643-.183a7.865,7.865,0,0,0-1.88-.353c-.54-.037-1.07-.03-1.632-.025-.344.005-.7.009-1.086,0-2.351-.025-4.527-.084-6.651-.182a.229.229,0,0,0-.235.139.251.251,0,0,0,.031.271c.15.18.315.383.5.617.355.452.777,1.04,1.293,1.762l.219.3a22.562,22.562,0,0,0,1.791,2.264,7.4,7.4,0,0,0,3.422,2.259,3.8,3.8,0,0,0,.83.172c.116.016.234.032.391.056l.312.009c.159.007.322.013.492.013s.336-.006.523-.023c.319-.02.643-.037.974-.054.663-.035,1.35-.07,2.077-.137.368-.041.744-.08,1.126-.12.737-.076,1.5-.155,2.294-.26q1.59-.2,3.324-.43l1.2-.155c.438-.056.884-.113,1.353-.17l.4-.086c.159-.036.319-.071.509-.111.08-.027.155-.058.229-.09.054-.022.107-.045.179-.07l.095-.039a1.1,1.1,0,0,0,.292-.147,2.745,2.745,0,0,0,1.083-1.342c.2-.418.395-.915.6-1.442l.161-.4a.248.248,0,0,0,0-.178l-.1-.258a20.044,20.044,0,0,0-2.146-3.852.233.233,0,0,0-.216-.1c-.3.017-.636.057-1,.1Z"/>
        <path d="M80.885,61.563a6.469,6.469,0,0,0,1.4.239c.669.057,1.355.063,2.018.069a13.376,13.376,0,0,1,3.889.414c.249.079,5.977,1.9,6.68,1.9a.229.229,0,0,0,.041,0,.248.248,0,0,0,.193-.17,1.136,1.136,0,0,0,.027-.5A2.687,2.687,0,0,0,94.987,63c-.042-.122-.088-.239-.133-.352l-.062-.161c-.2-.5-.41-.933-.576-1.279l-.135-.283,0-.006c-.074-.148-.133-.273-.185-.392a.25.25,0,0,0-.216-.148c-1.076-.053-2.176-.122-3.307-.2-.641-.084-1.293-.163-1.952-.244-1.342-.163-2.73-.333-4.086-.552-1.434-.229-2.947-.432-4.411-.628l-.584-.079a.259.259,0,0,0-.213.074.244.244,0,0,0-.066.215,4.279,4.279,0,0,0,.851,1.918A1.93,1.93,0,0,0,80.885,61.563Z"/>
        <path d="M108.1,73.8a1.564,1.564,0,0,1,.042.387.248.248,0,0,0,.073.195.253.253,0,0,0,.176.072h.02c1.273-.1,2.555-.293,3.64-.465.258-.04.515-.083.774-.127a20.177,20.177,0,0,1,2.052-.273,1.989,1.989,0,0,0,1.577-.791c.549-.771.573-2.034.075-3.861a.252.252,0,0,0-.267-.183c-.3.033-.6.067-.891.1l-4.409.513c-.788.085-1.556.15-2.3.213l-.173.015a.25.25,0,0,0-.223.3.959.959,0,0,1,.018.188c-.023,1.225-.108,2.457-.189,3.648A.267.267,0,0,0,108.1,73.8Z"/>
        <path d="M17.855,69.353a.429.429,0,0,0-.111.074c-.048.052-.1.107-.163.166a4.243,4.243,0,0,0-.435.478,2.963,2.963,0,0,0-.552,2.651,1.867,1.867,0,0,0,.775,1.129A.975.975,0,0,0,17.9,74a1.593,1.593,0,0,0,.589-.127,2.347,2.347,0,0,0,.243-.113.248.248,0,0,0,.127-.224,14.54,14.54,0,0,0-.612-4.079c-.025-.08-.127-.107-.21-.127a.238.238,0,0,0,.045-.039.246.246,0,0,0,.035-.224l-.073-.227a5.272,5.272,0,0,0-.941-1.6.251.251,0,0,0-.435.2,4.959,4.959,0,0,1,.043.687,4.631,4.631,0,0,1-.194,1.356.249.249,0,0,0,.093.275.254.254,0,0,0,.146.047.248.248,0,0,0,.145-.047,2.043,2.043,0,0,1,.88-.366l-.031-.2.014-.005Z"/>
        <path d="M11.65,69.958a.247.247,0,0,0-.228-.068.251.251,0,0,0-.182.154,10.058,10.058,0,0,0-.639,3.248.25.25,0,0,0,.13.229l.141.079a5.069,5.069,0,0,0,.6.3,1.208,1.208,0,0,0,.409.079.608.608,0,0,0,.475-.193,1.709,1.709,0,0,0,.438-1.132,3.359,3.359,0,0,0-.832-2.344A4.45,4.45,0,0,0,11.65,69.958Z"/>
        <path d="M12.468,62.19a.25.25,0,0,0,.177-.073,5.748,5.748,0,0,1,2.343-1.457.25.25,0,0,0,.175-.229.253.253,0,0,0-.156-.242l-.07-.031a1.184,1.184,0,0,0-.163-.067.171.171,0,0,0-.045-.009,1.079,1.079,0,0,1-.19-.048,1.023,1.023,0,0,0-.423-.068c-.206,0-.4-.007-.645-.019a1.432,1.432,0,0,0-.823.283,1.452,1.452,0,0,0-.327.649,5.349,5.349,0,0,0-.1,1.061.25.25,0,0,0,.25.25Z"/>
        <path d="M47.062,45.92a1.754,1.754,0,0,0-1.273,1.319,2.766,2.766,0,0,0,.943,2.532h0a5.2,5.2,0,0,0,3.573,1.159,19.533,19.533,0,0,0,3.4-.4c.31-.056.609-.11.9-.156a.251.251,0,0,0,.207-.208c.013-.09.043-.275-.4-1.291-.016-.036-1.556-3.584-2.26-3.629A14.063,14.063,0,0,0,47.062,45.92Z"/>
        <path d="M13.731,68.82c.014.356.03.759.076,1.16a2.37,2.37,0,0,0,.224.831l.006,0a.428.428,0,0,0,.081.078.254.254,0,0,0,.148.042.3.3,0,0,0,.1-.016.785.785,0,0,0,.117-.048,2.188,2.188,0,0,0,.425-.245l.379-.344.079-.1a2.618,2.618,0,0,0,.385-.574,6.1,6.1,0,0,0,.558-1.533l.1-.447c.058-.263.107-.489.157-.666a.251.251,0,0,0-.11-.279,2.466,2.466,0,0,0-2.766.14.251.251,0,0,0-.107.267,6.533,6.533,0,0,1,.13,1.219C13.718,68.466,13.725,68.64,13.731,68.82Z"/>
        <path d="M13.455,67.578a.25.25,0,0,0-.41-.248,2.89,2.89,0,0,0-.275.281.552.552,0,0,0-.066.079c-.021.02-.044.046-.08.084a8.828,8.828,0,0,0-.63.859.644.644,0,0,1-.134.168.259.259,0,0,0-.048.06c-.082.138-.154.277-.227.42l-.052.1a.25.25,0,0,0,.142.352,2.522,2.522,0,0,1,.55.259,2.643,2.643,0,0,1,.492.387.25.25,0,0,0,.424-.212l-.006-.068a.644.644,0,0,0-.007-.074,9.568,9.568,0,0,1,.17-1.749C13.35,68.009,13.4,67.778,13.455,67.578Z"/>
        <path d="M18.133,65.551a.25.25,0,0,0,.176.072.255.255,0,0,0,.137-.041.25.25,0,0,0,.095-.3l-.715-1.831,0-.006c-.158-.376-.344-.732-.487-1a.25.25,0,0,0-.181-.128,4.111,4.111,0,0,0-4.368,2.556.25.25,0,0,0,.348.323C15.019,64.151,16.841,64.278,18.133,65.551Z"/>
        <path d="M41.461,48.188a.245.245,0,0,0,.178.089c.362.02.655.039.878.054l.122.007h.008c.278.006.417,0,.418.007a6.167,6.167,0,0,1,1.277.153.3.3,0,0,0,.059.007.242.242,0,0,0,.169-.067.246.246,0,0,0,.078-.223c-.27-1.681.216-2.77,1.446-3.236a14.9,14.9,0,0,1,4.876-.955.251.251,0,0,0,.218-.14.248.248,0,0,0-.024-.258,25.963,25.963,0,0,0-1.683-2.044,9.05,9.05,0,0,0-4.458-2.866A11.664,11.664,0,0,0,42.8,38.49a.25.25,0,0,0-.246.183,21.31,21.31,0,0,0-1.041,5.962A25.177,25.177,0,0,1,41.4,48,.247.247,0,0,0,41.461,48.188Z"/>
        <path d="M70.456,73.805a.25.25,0,0,0-.112.069,4.654,4.654,0,0,0-1.1,3.291c.014.578.182,1.342.584,1.574a1,1,0,0,0,.615.173,2.824,2.824,0,0,0,.835-.15c.248-.088.471-.175.669-.252l.315-.122a.251.251,0,0,0,.159-.28c-.023-.125-.047-.242-.068-.339a13.1,13.1,0,0,0-1.614-3.857A.253.253,0,0,0,70.456,73.805Z"/>
        <path d="M119.852,67.5c-.156.126-.327.237-.492.345l-.125.082a1.868,1.868,0,0,1-.487.244l-.328.126a.25.25,0,0,0-.149.3,11.559,11.559,0,0,1,.29,1.433.25.25,0,0,0,.248.218l.03,0a24.251,24.251,0,0,0,2.807-.469.25.25,0,0,0,.192-.243l0-.489-.162-1.286c-.016-.071-.033-.143-.052-.216s-.039-.152-.057-.239l-.225-.922-.028-.089a.25.25,0,0,0-.466-.085c-.036.066-.074.132-.11.192s-.09.141-.133.211a2,2,0,0,1-.261.362c-.134.157-.277.305-.417.451Z"/>
        <path d="M72.092,78.634a4.636,4.636,0,0,1-.646.5,2.776,2.776,0,0,1-.815.335,1.6,1.6,0,0,1-1.11-.108,1.854,1.854,0,0,1-.821-.946,2.521,2.521,0,0,1-.082-.274l-.031-.119a.251.251,0,0,0-.2-.18.245.245,0,0,0-.247.1,1.661,1.661,0,0,1-.586.565,1.035,1.035,0,0,1-.858.072.46.46,0,0,0-.071-.041.25.25,0,0,0-.339.358,2.788,2.788,0,0,1,.4,2.252,4.45,4.45,0,0,1-1.063,2.092,2.688,2.688,0,0,1-1.585.9.248.248,0,0,0-.2.339A9.027,9.027,0,0,0,65.221,86.9a.25.25,0,0,0,.193.092.244.244,0,0,0,.084-.015.248.248,0,0,0,.166-.235l0-.112c0-.065,0-.13,0-.2a6.082,6.082,0,0,1,.39-2.032,2.1,2.1,0,0,1,.855-1.1c.07-.042.14-.077.167-.095a2.56,2.56,0,0,1,.258-.051,1.029,1.029,0,0,1,.437.014.968.968,0,0,1,.177.04l.433.215a.213.213,0,0,0,.037.018l.014.007.19.159a.25.25,0,0,0,.407-.2,2.648,2.648,0,0,1,.214-1.191,2.855,2.855,0,0,1,1.566-1.535,2.562,2.562,0,0,1,1.5-.107.251.251,0,0,0,.316-.252c-.024-.573-.063-1.088-.115-1.53a.25.25,0,0,0-.421-.151Z"/>
        <path d="M76.984,77.356a.213.213,0,0,0-.01-.042c-.139-.41-.318-.854-.559-1.388-.215-.527-.439-1.015-.684-1.488-.292-.605-.544-1.1-.795-1.555-.143-.256-.287-.52-.439-.808-.055-.088-.105-.174-.156-.26-.092-.156-.184-.311-.29-.461a11.105,11.105,0,0,0-5.382-4.172,6.517,6.517,0,0,0-6.854,4.249,26.464,26.464,0,0,0-1.753,9.95,1.077,1.077,0,0,1-.06.359c-.279.734.237,2.154.791,3.546.089.222.165.415.219.564a18.708,18.708,0,0,0,2.077,4.11,7.97,7.97,0,0,0,4.973,3.423,5.9,5.9,0,0,0,1.045.095,5.751,5.751,0,0,0,3.307-1.062C78.053,88.505,77.488,80.581,76.984,77.356Zm-2.9,7.971c-.5,1.936-2.161,6.326-6.994,5.265a.963.963,0,0,1-.422-.212c-4.075-2.178-6.053-8.259-5.279-12.355.409-2.16,1.74-6.207,4.128-7.671a3.535,3.535,0,0,1,2.945-.382C73.38,71.41,75.558,79.548,74.08,85.327Z"/>
        <path d="M72.44,81.044a2.192,2.192,0,0,0-1.339.249h0a2.463,2.463,0,0,0-1.137,1.227,2.293,2.293,0,0,0-.047,1.661,2.59,2.59,0,0,1,.13.315,1.027,1.027,0,0,0,.147.229.912.912,0,0,1,.068.092c.039.063.081.123.123.183l.178.216c.046.045.092.089.126.126a4.171,4.171,0,0,0,.581.564c.078.066.15.126.2.178l.025.025-.074-.015a2.444,2.444,0,0,1-.945-.393l-.014-.008c-.11-.066-.219-.139-.319-.207-.074-.06-.146-.132-.234-.219a.248.248,0,0,0-.288-.046.251.251,0,0,0-.136.258l.02.129c.017.116.035.229.041.339a9.1,9.1,0,0,1-.112,2.038c-.03.169-.059.331-.1.486a.25.25,0,0,0,.243.306.261.261,0,0,0,.094-.018,4,4,0,0,0,2.08-2.29.268.268,0,0,0-.029-.218.254.254,0,0,0-.053-.056c.007,0,.012.008.019.008a.23.23,0,0,0,.058-.007.248.248,0,0,0,.178-.16,15.433,15.433,0,0,0,.713-4.744A.251.251,0,0,0,72.44,81.044Z"/>
        <path d="M67.464,83.911v0a.2.2,0,0,1,.055.013h0A.287.287,0,0,0,67.464,83.911Z"/>
        <path d="M69.029,87.955a17.07,17.07,0,0,0-.163-1.941v0a2.853,2.853,0,0,0-.819-1.88l-.062-.068a.257.257,0,0,0-.141-.078l-.19-.049a.333.333,0,0,0-.132-.008c.009,0,.013,0,.023.006a.182.182,0,0,0-.025-.007c-.044,0-.093-.022-.13-.008a.362.362,0,0,0-.108.037,1.568,1.568,0,0,0-.609.716,8.649,8.649,0,0,0-.579,1.7l-.026.1c-.061.254-.11.484-.154.692l-.059.277a.249.249,0,0,0,.073.237,7.829,7.829,0,0,0,1.7,1.2.231.231,0,0,0,.068.025,3.9,3.9,0,0,0,.758.074c.125,0,.252-.006.378-.018a.251.251,0,0,0,.227-.258l-.011-.232C69.042,88.31,69.034,88.139,69.029,87.955Z"/>
        <path d="M65.926,81a2.254,2.254,0,0,0-.256-1.777,2.15,2.15,0,0,0-1.339-.739c-.224-.036-.437-.059-.631-.079l-.26-.029a.243.243,0,0,0-.184.052.251.251,0,0,0-.094.167,12.627,12.627,0,0,0,.372,5,.242.242,0,0,0,.132.164.252.252,0,0,0,.1.021.218.218,0,0,0,.1-.028A3.627,3.627,0,0,0,65.926,81Z"/>
        <path d="M86.061,71.528c1.5-.458,3.761-.224,5.751-.019.94.1,1.829.19,2.577.2,4.226.089,8.035.142,11.838-.114a.251.251,0,0,0,.233-.236c.022-.428.038-.849.049-1.313,0-.008,0-.067,0-.075a.253.253,0,0,0-.076-.18.238.238,0,0,0-.183-.07c-.324.011-.647.019-.963.026-.342.008-.677.015-1.011.027a8.739,8.739,0,0,1-1.215-.044l-.569-.076a6.137,6.137,0,0,1-1.144-.285A8.278,8.278,0,0,1,97.469,66.5c-.267-.342-.49-.666-.712-1a.235.235,0,0,0-.28-.061.138.138,0,0,0-.036.015l-.76-.049c-.214-.016-.433-.029-.655-.044l-1.277-.085a1.359,1.359,0,0,1-.309-.044c-.054-.013-.109-.025-.165-.035-.319-.068-.654-.136-.994-.2-1.105-.232-2.309-.557-3.583-.9l-.922-.248a11.371,11.371,0,0,0-3.309-.27c-.733,0-1.488.01-2.3-.036a8.364,8.364,0,0,1-1.823-.3,3.742,3.742,0,0,1-1.8-1.218,5.956,5.956,0,0,1-1.015-1.844,5.527,5.527,0,0,1-.292-1.556.249.249,0,0,0-.221-.242l-2.259-.258c-3.3-.38-6.721-.773-10.239-1.064-2.157-.205-4.275-.41-6.371-.615a.251.251,0,0,0-.268.2l-.1.43c-.04.177-.08.355-.118.535a.25.25,0,0,0,.245.3h.973a.89.89,0,0,1,0,1.779H57.456a.25.25,0,0,0-.246.2c-.447,2.384-.746,4.459-.914,6.342a.25.25,0,0,0,.489.092,11.48,11.48,0,0,1,1.89-3.856,7.256,7.256,0,0,1,.625-.71c.1-.1.2-.2.277-.293.222-.2.462-.386.716-.58.131-.1.264-.2.358-.282.15-.082.281-.158.4-.23a5.672,5.672,0,0,1,.84-.427,7.484,7.484,0,0,1,1.414-.459,11.971,11.971,0,0,1,5.908.182A15.4,15.4,0,0,1,74.541,62.2,12.211,12.211,0,0,1,76.6,64.116l.423.574c.031.044.058.08.086.116a1.848,1.848,0,0,1,.126.172l.811,1.416a27.643,27.643,0,0,1,2.769,8.766,30.27,30.27,0,0,1,.342,3.012l.024.212a1.733,1.733,0,0,0,.53.847.219.219,0,0,0,.041.026,2.763,2.763,0,0,0,1.149.2c.125,0,.234,0,.312-.009.59-.024,1.231-.1,1.838-.176.151-.02.3-.043.46-.065a12.361,12.361,0,0,1,1.615-.161.25.25,0,0,0,.063-.491A9.133,9.133,0,0,1,84.368,77.3,2.3,2.3,0,0,1,83.64,75C83.886,73.438,85,71.85,86.061,71.528Zm6.268-3.54a.243.243,0,0,0,.143.108.6.6,0,0,1,.39.684.533.533,0,0,1-.558.482H92.3a39.887,39.887,0,0,1-5.84-.4l-.252-.037c-1.509-.224-4.033-.6-4.332-2.221a1.517,1.517,0,0,1,.394-1.449,3.68,3.68,0,0,1,2.46-.732,5.487,5.487,0,0,1,1.123.109C87.353,64.854,90.99,65.836,92.329,67.988Z"/>
        <path d="M113.936,83.236q-1.455.166-2.838.328t-2.689.311c-2.71.362-5.594.6-8.816.734a.25.25,0,0,0-.231.316c.775,2.835,4.878,3.666,7.132,3.666.154,0,.3,0,.436-.011a8.747,8.747,0,0,0,7.254-4.976.247.247,0,0,0-.013-.259A.258.258,0,0,0,113.936,83.236Z"/>
        <path d="M121.159,77.2a81.325,81.325,0,0,1-9.641,1.63c-.725.113-1.467.226-2.239.34l-4.147.356c-.992.057-2.009.093-3.043.13l-1.411.052c-4.064.061-7.888-.016-11.154-.092l-.447-.012c-.658-.018-1.292-.036-1.9-.048a11.928,11.928,0,0,0-1.431.065c-.222.018-.441.037-.662.05a15.735,15.735,0,0,1-1.875.06,3.112,3.112,0,0,1-1.626-.4.25.25,0,0,0-.367.224c0,.325,0,.636,0,.928s0,.571,0,.8l0,.028a45.685,45.685,0,0,0-.81-6.088,29.644,29.644,0,0,0-2.958-8.469l0,0c-.115-.2-.235-.4-.356-.608-.1-.171-.2-.343-.309-.524l-.187-.3-.561-.738A11.428,11.428,0,0,0,74.09,62.8a14.953,14.953,0,0,0-5.073-2.387,11.575,11.575,0,0,0-5.52-.2,6.048,6.048,0,0,0-1.086.319l-.148.054a5.014,5.014,0,0,0-.846.412c-.121.068-.234.132-.373.207-.123.1-.249.191-.373.283-.209.155-.416.309-.629.5-.1.114-.211.222-.318.33a5.858,5.858,0,0,0-.52.569,11.781,11.781,0,0,0-2.059,4.244l-.255,1.059-.033.2c-.049.3-.1.59-.141.873-.036.213-.053.444-.069.671-.007.111-.014.22-.025.327a6.008,6.008,0,0,0-.017.988,12.918,12.918,0,0,0,.094,1.494.272.272,0,0,0,.254.222.249.249,0,0,0,.243-.233c.005-.062.005-.123.005-.183s0-.1,0-.143c.045-.623.091-1.261.137-1.934a11.227,11.227,0,0,1,1.033-4.137,10.261,10.261,0,0,1,1.234-2,5.914,5.914,0,0,1,.539-.6c.1-.1.2-.206.286-.3.1-.089.207-.169.316-.25l.592-.446.685-.346a2.687,2.687,0,0,1,.56-.218l.67-.2c.142-.035.282-.056.424-.078l.213-.033a11.84,11.84,0,0,1,2.588-.089,22.72,22.72,0,0,1,2.542.338l.241.047c.12.022.24.044.394.079l.613.155a5.549,5.549,0,0,1,.86.29c.115.046.229.091.325.126a11,11,0,0,1,3.689,2.966c.1.129.2.245.3.363.135.156.272.314.412.5.078.118.158.225.237.332a3.92,3.92,0,0,1,.361.549,6.592,6.592,0,0,1,.771,2,18.716,18.716,0,0,1,.28,2.43c.029.425.057.831.1,1.219a.24.24,0,0,0,.028.087,32.432,32.432,0,0,1,2.09,4.791c.165.566.289,1.071.4,1.531.079.324.152.626.23.911a10.555,10.555,0,0,0,.407,1.253A.249.249,0,0,0,81,81.9a.276.276,0,0,0,.057-.006.251.251,0,0,0,.132-.087l-.036.461a.253.253,0,0,0,.083.207,2.052,2.052,0,0,0,.293.208.243.243,0,0,0,.093.034l.35.056a18.611,18.611,0,0,0,3.187.289c.17,0,.345,0,.527-.007l.447,0c.288-.015.71-.038,1.266-.075.366-.032.792-.078,1.282-.129,1.05-.112,2.355-.251,3.941-.349,1.755-.133,3.749-.177,6.058-.228.718-.017,1.459-.033,2.221-.053,2.654-.051,5.685-.364,8.893-.695l2.5-.253c.811-.08,1.632-.16,2.479-.246.587-.071,1.17-.1,1.735-.129.518-.026,1.008-.051,1.484-.106a3.552,3.552,0,0,0,2.441-.931,5.136,5.136,0,0,0,1.032-2.367.249.249,0,0,0-.071-.229A.253.253,0,0,0,121.159,77.2Z"/>
        <path d="M79.68,84.518a4.216,4.216,0,0,1-.439-.438.249.249,0,0,0-.436.134A15.267,15.267,0,0,1,76.181,91.6a.248.248,0,0,0,.025.328.25.25,0,0,0,.33.017,14.515,14.515,0,0,0,4.478-6.386.25.25,0,0,0-.134-.31A4.723,4.723,0,0,1,79.68,84.518Z"/>
        <path d="M83.179,66.035a.517.517,0,0,0-.042.447c.119.315.524.459.819.564l.077.028h0a21.053,21.053,0,0,0,6.049.947H90.1a.25.25,0,0,0,.146-.452,12.689,12.689,0,0,0-3.956-1.695l-.142-.038C85.342,65.623,83.669,65.173,83.179,66.035Z"/>
        <path d="M63.332,65.4h0a6.946,6.946,0,0,1,2.813-.63A10.435,10.435,0,0,1,70.92,65.95a6.994,6.994,0,0,1,2.024,1.122A16.677,16.677,0,0,1,74.737,68.8a13.78,13.78,0,0,1,1.318,1.673l.388.634a.25.25,0,0,0,.466-.153,12.085,12.085,0,0,0-.223-1.29,5.92,5.92,0,0,0-.721-1.747,3.971,3.971,0,0,0-.418-.6c-.072-.091-.145-.182-.211-.273-.111-.152-.276-.335-.442-.52-.086-.1-.173-.192-.257-.289a10.522,10.522,0,0,0-3.5-2.736c-.117-.038-.227-.082-.338-.126a3.863,3.863,0,0,0-.734-.235l-.607-.155-.568-.107a23.4,23.4,0,0,0-2.458-.322,11.367,11.367,0,0,0-2.43.079l-.188.029c-.129.019-.259.038-.4.068l-.767.218c-.055.02-.117.049-.179.078l-.727.354c-.018.01-.152.109-.152.109h0l-.234.17c-.056.047-.116.09-.175.133a3.063,3.063,0,0,0-.274.217c-.09.1-.184.19-.278.281a4.814,4.814,0,0,0-.468.5,9.935,9.935,0,0,0-1.178,1.831A11.169,11.169,0,0,0,57.9,70.518c-.067.645-.136,1.259-.206,1.861-.029.391-.046.772-.062,1.142-.009.207-.018.411-.029.613A19.642,19.642,0,0,0,57.81,78.2a.248.248,0,0,0,.241.208h0a.251.251,0,0,0,.245-.2c.011-.056.024-.11.038-.164l.042-.193c.055-.691.15-1.444.3-2.323l.055-.734c.046-.623.094-1.26.165-1.919a13.815,13.815,0,0,1,.625-2.943,8.77,8.77,0,0,1,1.432-2.652A6.667,6.667,0,0,1,63.332,65.4Z"/>
        <path d="M37.1,66.217c-.007.24-.022.5-.037.742a.251.251,0,0,0,.2.261l.327.067c.485.1.976.2,1.473.306l.948.2c.89.185,1.76.366,2.6.518l.951.169c.811.144,1.609.285,2.378.438a29.372,29.372,0,0,1,2.992.75,13.343,13.343,0,0,1,2.488,1.084,8.643,8.643,0,0,1,2.9,2.552c.1.146.183.278.257.4a.225.225,0,0,0,.2.118.272.272,0,0,0,.075.011.25.25,0,0,0,.249-.275,46,46,0,0,1,.612-12.032.254.254,0,0,0-.052-.2.25.25,0,0,0-.181-.093c-1.4-.083-3.6-.335-6.517-.75h0c-.968-.134-2.032-.294-3.2-.47-2.4-.361-5.124-.77-8.4-1.17l-.516-.076a.251.251,0,0,0-.284.258c.042,1.021.155,2.052.263,3.049A32.505,32.505,0,0,1,37.1,66.217Z"/>
        <path d="M18.66,77.11a.247.247,0,0,0-.075-.224,2.9,2.9,0,0,0-.47-.364,2.407,2.407,0,0,0-1.8-.385,1.048,1.048,0,0,0-.689.553,1.8,1.8,0,0,0,.008,1.491,8.847,8.847,0,0,0,.572,1.353l.091.194a.594.594,0,0,0,.078.1c.225.248.442.488.623.676a.253.253,0,0,0,.181.076h.02a.255.255,0,0,0,.186-.107A8.705,8.705,0,0,0,18.66,77.11Z"/>
        <path d="M37.985,75.858l3.147.379,3.4.517c.8.12,1.547.233,2.291.384l2.506.524a20.694,20.694,0,0,0,2.28.345c.362.038.683.015,1.038.033h.069c.215,0,.43-.021.64-.041.1-.011.209-.021.313-.029a5.694,5.694,0,0,0,.9-.165,2.511,2.511,0,0,0,.686-.245.25.25,0,0,0,.045-.387A1.119,1.119,0,0,0,55.05,77a4.47,4.47,0,0,0-.645-.265,5.3,5.3,0,0,1,.564.174l.315.085a.248.248,0,0,0,.061.007.25.25,0,0,0,.244-.3c-.092-.4-.175-.853-.263-1.411a.248.248,0,0,0-.213-.209q-1.662-.229-3.326-.454c-4.809-.652-9.783-1.326-14.645-2.213-.054-.006-.114-.02-.174-.033a.249.249,0,0,0-.217.054.245.245,0,0,0-.086.206c.015.233.031.468.062.694a.249.249,0,0,0,.205.212l1.818.316c2.4.416,4.611.8,6.586,1.142l.649.118c2.923.531,5.236.952,6.89,1.315l-1.356-.178c-1.681-.22-3.774-.493-6.254-.853-2.369-.341-5.049-.729-8-1.169a.254.254,0,0,0-.225.082.251.251,0,0,0-.054.232c.1.344.184.689.28,1.065a.25.25,0,0,0,.219.188c.081.007.163.018.246.029S37.905,75.851,37.985,75.858Z"/>
        <path d="M36.948,38.616a.3.3,0,0,0-.224-.1c-1.891-.015-3.85-.031-5.852-.053-.384,0-.771-.006-1.162-.008l-1.087-.007h0a.25.25,0,0,0-.245.2.277.277,0,0,1-.019.056,25.115,25.115,0,0,0-2.17,7.241.248.248,0,0,0,.206.283l.113.019c.281.047.566.094.851.148,1.778.3,3.4.57,4.88.821l.442.065c1.058.158,2.03.3,2.925.421a.2.2,0,0,0,.034,0,.251.251,0,0,0,.25-.247,29.951,29.951,0,0,1,1.12-8.616A.263.263,0,0,0,36.948,38.616Z"/>
        <path d="M25.322,77.284a8.755,8.755,0,0,1-3.612-3.365l-.146-.292a9.448,9.448,0,0,1-.41-.891c-.011-.031,0-.034-.027-.058a.247.247,0,0,0-.29-.126.249.249,0,0,0-.181.259,19.148,19.148,0,0,1-.553,6.228,6.474,6.474,0,0,1-2.664,3.937.25.25,0,0,0,.086.458,7.843,7.843,0,0,0,1.448.137A6.454,6.454,0,0,0,22.767,82.4a6.954,6.954,0,0,0,2.691-4.857A.248.248,0,0,0,25.322,77.284Z"/>
        <path d="M36.1,76.341l-.553-.066c-.312-.036-.625-.073-.939-.115h0c-.355-.045-.714-.087-1.075-.129-.773-.09-1.574-.183-2.367-.317C30,75.5,28.8,75.281,27.6,75.054c-.1-.019-.188-.035-.28-.051a5.471,5.471,0,0,1-.627-.134c-.363-.106-.664-.221-.91-.319-.3-.12-.6-.256-.9-.391a.232.232,0,0,0-.288.113.286.286,0,0,0,.061.344,10.023,10.023,0,0,0,4.468,2.11c1.332.333,2.787.593,4.327.868.463.083.928.166,1.4.252.236.04.478.077.721.114.226.035.453.07.675.106a.2.2,0,0,0,.041,0A.254.254,0,0,0,36.458,78a.247.247,0,0,0,.072-.215c-.06-.423-.13-.838-.215-1.245A.251.251,0,0,0,36.1,76.341Z"/>
        <path d="M45.809,69.584l-1.53-.247c-.59-.095-1.191-.191-1.8-.292-1.084-.175-2.162-.4-3.3-.633l-.274-.057c-.56-.113-1.112-.227-1.65-.348a.243.243,0,0,0-.2.04.25.25,0,0,0-.1.175l-.026.226c-.092.791-.186,1.61-.241,2.414a.25.25,0,0,0,.2.263c.679.129,1.363.258,2.049.373,4.832.807,9.765,1.487,14.536,2.145l.643.088.035,0a.249.249,0,0,0,.178-.424,10.461,10.461,0,0,0-3.09-2.2A19.749,19.749,0,0,0,45.809,69.584Z"/>
        <path d="M65.322,76.062l.134.2a7.994,7.994,0,0,0,1.078,1.369h0a1.041,1.041,0,0,0,.436.264.285.285,0,0,0,.051,0,.315.315,0,0,0,.161-.045h0a2.105,2.105,0,0,0,.6-.895l.058-.127a3.356,3.356,0,0,0,.236-1.109,9.787,9.787,0,0,0,0-1.149,10.482,10.482,0,0,0-.31-1.94,5.184,5.184,0,0,0-.3-.878.255.255,0,0,0-.286-.141,3.264,3.264,0,0,0-1.7,1.193,9.524,9.524,0,0,0-1.123,1.748.251.251,0,0,0,.043.287A8.694,8.694,0,0,1,65.322,76.062Z"/>
        <path d="M68.145,72.484a7.215,7.215,0,0,1,.578,1.892.246.246,0,0,0,.2.2.212.212,0,0,0,.05.005.251.251,0,0,0,.211-.115,2.554,2.554,0,0,1,.943-.938.251.251,0,0,0,.131-.168.248.248,0,0,0-.047-.208,3.836,3.836,0,0,0-2.1-1.549.256.256,0,0,0-.258.1.249.249,0,0,0,0,.278A5.159,5.159,0,0,1,68.145,72.484Z"/>
        <path d="M63.564,78.213a4.938,4.938,0,0,1,.792-.136,2.566,2.566,0,0,1,1.281.282.256.256,0,0,0,.119.03.251.251,0,0,0,.194-.408,6.715,6.715,0,0,1-.934-1.606l-.053-.115c-.18-.442-.316-.8-.412-1.094A.252.252,0,0,0,64.324,75a.244.244,0,0,0-.24.151,12.218,12.218,0,0,0-.83,2.784.249.249,0,0,0,.079.226A.257.257,0,0,0,63.564,78.213Z"/>
        <path d="M55.086,57.9h1.095a.25.25,0,0,0,.245-.2c.041-.2.084-.408.127-.611l.107-.511a.25.25,0,0,0-.221-.3l-.729-.072q-1.484-.145-2.942-.286c-1.252-.1-2.488-.273-3.681-.435-.629-.086-1.253-.171-1.874-.247l-1.44-.192q-1.982-.263-3.9-.521l-.4-.056q-2.215-.312-4.325-.612a.249.249,0,0,0-.282.211c-.153,1.036-.251,1.952-.3,2.8a.25.25,0,0,0,.215.261l2.275.349a.25.25,0,0,0,.209-.43.859.859,0,0,1-.042-1.162.813.813,0,0,1,1.12-.24,3.854,3.854,0,0,0,1.221.486.775.775,0,0,1,.5.372.93.93,0,0,1,.112.712.829.829,0,0,1-.209.352.251.251,0,0,0,.138.418c2.667.478,4.859.936,7.055,1.4,2.873.609,5.016,1.12,6.367,1.521a.3.3,0,0,0,.072.01.254.254,0,0,0,.13-.037.249.249,0,0,0,.116-.168l.137-.743a.25.25,0,0,0-.053-.206.253.253,0,0,0-.193-.09h-.654a.89.89,0,0,1,0-1.779Z"/>
        <path d="M121.5,71.628c-.81.165-1.645.269-2.451.371l-.234.029a.249.249,0,0,0-.216.214,3.527,3.527,0,0,1-1.357,2.5,6.828,6.828,0,0,1-3.321.809c-.474.039-.922.076-1.339.142-.4.06-.818.139-1.253.221a11.36,11.36,0,0,1-4.217.283,1.044,1.044,0,0,1-.895-.978c.03-.516.067-1.039.105-1.562a.246.246,0,0,0-.072-.2.254.254,0,0,0-.194-.072,103.472,103.472,0,0,1-16.31.015c-.35-.032-.675-.077-.975-.119-1.414-.2-2.528-.355-3.115,1.65a1.125,1.125,0,0,0,.14,1c.607.864,2.457.978,3.682,1.054.175.011.332.021.459.031,4.025.357,7.811.537,11.413.537a84.207,84.207,0,0,0,20.184-2.274.251.251,0,0,0,.191-.234c.015-.452.022-.9.022-1.37.015-.591.03-1.2.053-1.8a.25.25,0,0,0-.088-.2A.255.255,0,0,0,121.5,71.628Z"/>
        <path d="M55.83,77.7a.251.251,0,0,0-.167-.175.255.255,0,0,0-.237.048,1.847,1.847,0,0,1-.675.348l-.137.048.085.235h0l-.095-.233a6.083,6.083,0,0,1-.9.213c-.116.013-.23.03-.347.047a5.8,5.8,0,0,1-.639.072l-.326.011a7.66,7.66,0,0,1-.788.005,20.327,20.327,0,0,1-2.343-.256c-.5-.078-1-.171-1.521-.266-.33-.06-.664-.122-1-.181-.724-.128-1.48-.223-2.28-.323l-3.426-.439-3.178-.328a.257.257,0,0,0-.235.064.253.253,0,0,0-.069.235c.1.455.172.912.223,1.3a.252.252,0,0,0,.212.214c3.465.507,6.631.84,9.682,1.019.293.015.583.033.872.051l1.753.124a5.06,5.06,0,0,1,.535.072c.116.02.233.04.344.054.522.089,1.027.189,1.516.285.6.118,1.174.232,1.732.316a12.084,12.084,0,0,0,1.72.151c.083,0,.163,0,.24,0a.252.252,0,0,0,.224-.341A21.59,21.59,0,0,1,55.83,77.7Z"/>
    </g>
</svg>
