<svg xmlns="http://www.w3.org/2000/svg" viewBox="0 0 120 120" x="0px" y="0px">
    <g>
        <path d="M38.806,34.218c.564.18,1.128.361,1.692.549a.4.4,0,0,0,.118.019.377.377,0,0,0,.348-.235c.806-2,2.4-2.168,4.412-2.378a21.476,21.476,0,0,0,2.188-.308c5.586-1.177,10.811-2.144,15.977-2.957.689-.11,1.392-.235,2.1-.362,3.274-.584,6.659-1.188,9.767-.468,1.45.335,1.942,1.71,2.234,3.671A.375.375,0,0,0,77.8,32a.368.368,0,0,0,.287.062c.531-.1,1.069-.195,1.606-.281a.35.35,0,0,0,.264-.152.326.326,0,0,0,.037-.289,12.639,12.639,0,0,0-.911-4.024.368.368,0,0,0-.131-.173c-1.888-1.374-3.831-1.467-6.35-1.169A192.781,192.781,0,0,0,52.217,29.3c-1.083.249-2.307.435-3.6.632-3.058.465-6.524.991-8.858,2.555a4.611,4.611,0,0,0-1.141,1.162.374.374,0,0,0,.192.574Z"/>
        <path d="M81.131,31.418a.374.374,0,0,0,.239.085l.055,0c1.038-.155,2.08-.323,3.123-.492,1.588-.258,3.23-.523,4.848-.733a.375.375,0,0,0,.011-.742c-1.717-.275-3.475-.491-5.179-.7a17.48,17.48,0,0,1-3.167-.613.375.375,0,0,0-.477.455A11.377,11.377,0,0,1,81,31.146.375.375,0,0,0,81.131,31.418Z"/>
        <path d="M41.309,66.7c-.47-.079-1.343.1-3.964,2.284a.376.376,0,0,0-.048.528A3.877,3.877,0,0,0,40.059,71a2.423,2.423,0,0,0,.505-.054A1.948,1.948,0,0,0,41.9,69.754a3.166,3.166,0,0,0-.074-2.692A.728.728,0,0,0,41.309,66.7Z"/>
        <path d="M50.16,37.611a39.667,39.667,0,0,0,4.463.769l.041,0a.376.376,0,0,0,.346-.229,5.148,5.148,0,0,1,.67-1.168,5.465,5.465,0,0,1,.436-.473.375.375,0,0,0-.334-.639c-1.685.348-3.646.742-5.589,1a.375.375,0,0,0-.033.737Z"/>
        <path d="M55.645,53.5l-2.105.543c-3.312.88-5.9,1.483-7.7,1.791-.438.078-.82.14-1.163.2a.377.377,0,0,0-.306.283,14.345,14.345,0,0,0-.283,3.435c0,.554,0,1.113-.033,1.688a8.474,8.474,0,0,1-.359,1.712,6.593,6.593,0,0,0-.368,2.667.375.375,0,0,0,.371.32h.028a59.243,59.243,0,0,0,6.316-.921c.875-.16,1.75-.321,2.629-.464a15.6,15.6,0,0,1,1.588-.146,9.935,9.935,0,0,0,2.807-.438,1.932,1.932,0,0,0,1.161-1.482c.641-2.557-1.053-7.751-2.161-9.011v0A.375.375,0,0,0,55.645,53.5Z"/>
        <path d="M37.668,36.883c5.258,1.537,10.683,2.778,15.929,3.978l.379.087a.339.339,0,0,0,.084.01.377.377,0,0,0,.373-.336q.045-.436.114-.85a.372.372,0,0,0-.069-.285.376.376,0,0,0-.254-.148A75.709,75.709,0,0,1,40.6,35.862q-1.2-.389-2.41-.772a.372.372,0,0,0-.464.225,6.3,6.3,0,0,0-.325,1.143A.377.377,0,0,0,37.668,36.883Z"/>
        <path d="M42.507,59.07c.027-.793.055-1.582.062-2.362a.375.375,0,0,0-.238-.354,8.072,8.072,0,0,1-.969-.48c-.266-.147-.533-.3-.807-.417a1.88,1.88,0,0,0-.254-.107.378.378,0,0,0-.448.181,15.749,15.749,0,0,0-1.3,4.927A25.4,25.4,0,0,1,38,63.328L37.817,64c-.186.686-.385,1.415-.579,2.181a.374.374,0,0,0,.151.4.379.379,0,0,0,.43,0,9.571,9.571,0,0,1,2.266-1.241,3.135,3.135,0,0,1,1.3-.2.387.387,0,0,0,.4-.309c.067-.388.17-.769.273-1.154a8.784,8.784,0,0,0,.392-2.221C42.452,60.664,42.479,59.866,42.507,59.07Z"/>
        <path d="M19.377,47.06a33.641,33.641,0,0,0,4.615,1.518c1.072.281,2.1.526,3.078.758.769.183,1.507.358,2.208.538h.005a31.918,31.918,0,0,1,7.427,2.609c.533.268.968.537,1.388.8a6.4,6.4,0,0,0,3.863,1.252h.031a23.407,23.407,0,0,0,6.4-1.247c1.085-.318,2.208-.646,3.295-.873.49-.1,1-.22,1.536-.34,1.108-.25,2.254-.509,3.508-.734l2.825-.5a.465.465,0,0,0,.333-.323c.148-.688-2.943-3.369-2.972-3.389a15.792,15.792,0,0,0-3.007-1.612l-.691-.309a26.815,26.815,0,0,0-7.044-1.991c-1.045-.178-2.065-.428-3.051-.669-2.372-.58-4.611-1.129-7.048-.7-.536.094-1.07.165-1.6.234a22.321,22.321,0,0,0-2.812.5c-1.478.394-2.818.818-4.114,1.228l-1.531.477c-.621.19-1.208.37-1.788.5-.7.166-1.36.332-1.961.5a15.239,15.239,0,0,0-2.914,1.1.375.375,0,0,0,.023.678Z"/>
        <path d="M54.048,42c-4.973-1.126-10.61-2.4-16.116-3.984a.372.372,0,0,0-.372.1.378.378,0,0,0-.089.375,2.74,2.74,0,0,0,1.922,1.84h0c2.334.7,4.72,1.341,7.119,1.926.415.07.814.13,1.2.188a17.522,17.522,0,0,1,3.638.815,12.622,12.622,0,0,1,1.313.6c.385.2.772.391,1.164.552a.352.352,0,0,0,.132.025.393.393,0,0,0,.221-.069.389.389,0,0,0,.164-.323c-.008-.541-.016-1.106-.008-1.678A.373.373,0,0,0,54.048,42Z"/>
        <path d="M59.1,34.807a.374.374,0,0,0,.339.214.274.274,0,0,0,.05,0l.533-.07a.391.391,0,0,0,.264-.2.425.425,0,0,0,.021-.349.552.552,0,0,1-.039-.132c-.044-.461-.107-.919-.17-1.376-.091-.662-.185-1.347-.213-2.019a.378.378,0,0,0-.136-.274.362.362,0,0,0-.295-.082c-.208.031-.413.069-.619.108l-.324.059a.374.374,0,0,0-.3.446c.068.326.124.659.18.992A10.138,10.138,0,0,0,59.1,34.807Z"/>
        <path d="M59.272,41.349c2.208-.516,4.489-.89,6.7-1.25,2.245-.368,4.568-.747,6.828-1.279.018-.005.083-.012.1-.019a.374.374,0,0,0,.311-.413c-.031-.267-.046-.535-.061-.809a.374.374,0,0,0-.414-.353c-.828.088-1.658.166-2.488.244-1.249.116-2.5.234-3.745.385-.264.033-.581.062-.932.093-2.19.2-5.855.527-6.732,2.906a.375.375,0,0,0,.352.5A.409.409,0,0,0,59.272,41.349Z"/>
        <path d="M77.719,32.865a.364.364,0,0,0-.179.088.575.575,0,0,1-.583.139.381.381,0,0,0-.237-.031c-2.571.5-5.226,1.084-7.891,1.723a31.9,31.9,0,0,1-4.7.637,29.725,29.725,0,0,0-5.089.732c-3.822,1.01-3.727,5.211-3.657,8.356a.376.376,0,0,0,.339.365c.241.023.493.035.767.035.238,0,.492-.009.769-.026a.375.375,0,0,0,.352-.381l-.007-.355c-.045-2.358-.1-5.293,2.339-6.089A51.372,51.372,0,0,1,71.42,36.21c2.036-.172,4.141-.351,6.142-.651,1.6-.238,3.3-.614,4.94-.977a37.179,37.179,0,0,1,9.683-1.289c2.085.119,2.409,2.478,2.457,4.519a.374.374,0,0,0,.491.347c.91-.3,1.288-.577,1.3-.971.006-.207.019-.436.033-.683.032-.58.07-1.237.052-1.907a.371.371,0,0,0-.037-.154A.611.611,0,0,1,96.449,34a1.907,1.907,0,0,0-.3-1.994c-2.067-2.312-11.023-.715-17.58.686C78.176,32.771,77.887,32.833,77.719,32.865Z"/>
        <path d="M58.624,42.844v1.437a.375.375,0,0,0,.375.375.333.333,0,0,0,.07-.007c1-.189,1.953-.445,2.926-.713a96.464,96.464,0,0,1,10.134-2l1.142-.183a.374.374,0,0,0,.313-.407c-.04-.405-.095-.811-.15-1.216a.378.378,0,0,0-.457-.314c-2.192.511-4.458.882-6.649,1.24-2.443.4-4.969.813-7.42,1.423A.375.375,0,0,0,58.624,42.844Z"/>
        <path d="M67.111,61.238a1.443,1.443,0,0,0,.857.236,9.176,9.176,0,0,0,3.05-.914,11.463,11.463,0,0,1,1.411-.532h0a33.783,33.783,0,0,1,4.954-.7,31.7,31.7,0,0,0,5.579-.849,3.452,3.452,0,0,0,2.394-2.047c1.064-2.543-.464-6.462-1.447-8.246a.376.376,0,0,0-.414-.23q-2.4.424-4.859.92L64.925,51.569a.374.374,0,0,0-.274.511l.094.229c1,2.437,2.043,4.957,1.873,7.606A1.4,1.4,0,0,0,67.111,61.238Z"/>
        <path d="M93.826,39.625a.376.376,0,0,0,.152.386,8.077,8.077,0,0,1,3.178,3.612.376.376,0,0,0,.35.24.382.382,0,0,0,.068-.006c.814-.15,1.6-.308,2.354-.474l7.062-1.589c.653-.165,1.268-.322,1.821-.471.67-.167,1.285-.31,1.835-.438.377-.087.724-.167,1.017-.239l.716-.134c.456-.084.82-.152,1.086-.2a.375.375,0,0,0,.126-.685,17.306,17.306,0,0,0-3.274-1.472c-.592-.217-1.181-.435-1.744-.682A29.394,29.394,0,0,0,97.9,34.743a.363.363,0,0,0-.279.1.383.383,0,0,0-.116.274c0,.39,0,.785-.01,1.186-.011.628-.021,1.267,0,1.913a.513.513,0,0,1-.363.476c-.992.234-2,.445-3.008.64A.376.376,0,0,0,93.826,39.625Z"/>
        <path d="M74.722,41.4a.373.373,0,0,0,.224.075.349.349,0,0,0,.065-.006l.157-.027c.485-.086.975-.172,1.458-.264a.375.375,0,0,0,.3-.405c-.052-.529-.126-1.057-.2-1.586-.1-.673-.194-1.37-.238-2.053a.373.373,0,0,0-.437-.345c-.283.047-.572.09-.856.131l-.113.017c-.1.015-.195.026-.295.037s-.218.025-.324.041a.376.376,0,0,0-.319.382,23.359,23.359,0,0,0,.263,2.513c.059.41.117.82.164,1.233A.369.369,0,0,0,74.722,41.4Z"/>
        <path d="M93.423,56.906l.033,0a29.351,29.351,0,0,0,5.038-1.039c.538-.145,1.076-.289,1.615-.423a47.111,47.111,0,0,1,5.079-.859c1.4-.185,2.845-.375,4.252-.669a3.311,3.311,0,0,0,2.576-1.866c.764-1.775-.029-4.592-2.357-8.372a.374.374,0,0,0-.393-.171l-.478.1c-1.41.284-3.008.606-4.857.924-3.093.65-6.846,1.232-10.819,1.849l-2.535.394a.377.377,0,0,0-.254.163.373.373,0,0,0-.052.3C92.616,56.906,93.2,56.906,93.423,56.906Z"/>
        <path d="M86.05,45.928a.423.423,0,0,0,.07-.006l9.657-1.735a.376.376,0,0,0,.27-.53,9.228,9.228,0,0,0-3.724-3.52.466.466,0,0,1-.171-.171.376.376,0,0,0-.394-.193c-3.095.526-6.188.929-9.619,1.364a.375.375,0,0,0-.148.692A8.647,8.647,0,0,1,85.706,45.7.376.376,0,0,0,86.05,45.928Z"/>
        <path d="M77.787,39.511c.046.343.093.693.132,1.035a.376.376,0,0,0,.373.333.473.473,0,0,0,.053,0l1.262-.172a.39.39,0,0,0,.075-.018.649.649,0,0,1,.268-.021l1.228-.16c3.546-.46,8.9-1.155,12.161-1.871a.374.374,0,0,0,.294-.372,11.475,11.475,0,0,0-.106-1.544.38.38,0,0,0-.409-.316A110,110,0,0,0,78.068,39.1.375.375,0,0,0,77.787,39.511Z"/>
        <path d="M57.725,46.174a.374.374,0,0,0,.15.4A6.761,6.761,0,0,1,60.9,50.257a.375.375,0,0,0,.43.275l1.578-.283q1.559-.282,3.214-.576c1.75-.312,3.585-.638,5.512-1a.375.375,0,0,0,.275-.519c-.842-1.914-2-3.94-4.221-4.448a.472.472,0,0,1-.164-.069.37.37,0,0,0-.292-.046l-1.306.322c-.75.2-1.521.431-2.3.668A30.1,30.1,0,0,1,58.051,45.9.376.376,0,0,0,57.725,46.174Z"/>
        <path d="M90.126,34.426h0c-.861.146-1.717.316-2.572.486s-1.689.336-2.541.48c-2.091.363-4.311.714-7.2,1.137a.376.376,0,0,0-.32.393l.011.2c.011.208.021.416.046.625a.372.372,0,0,0,.158.264.379.379,0,0,0,.214.067.334.334,0,0,0,.089-.011A114.44,114.44,0,0,1,92.4,35.482a.375.375,0,0,0,.188-.669A3.048,3.048,0,0,0,90.126,34.426Z"/>
        <path d="M80.088,41.9l-.518-.279a.388.388,0,0,0-.314-.107c-2.535.33-5.872.794-9.189,1.457a.375.375,0,0,0-.15.668,10.938,10.938,0,0,1,3.067,4.488.375.375,0,0,0,.345.227.313.313,0,0,0,.068-.006c1.58-.29,3.223-.6,4.944-.951L82.6,46.55c.521-.1,1.029-.188,1.536-.279l.2-.035A.374.374,0,0,0,84.6,45.7C83.654,43.839,81.841,42.854,80.088,41.9Z"/>
        <path d="M54.279,88.875h0a2.52,2.52,0,0,0-2.1-.216A5.761,5.761,0,0,0,49.4,95.432a3.946,3.946,0,0,0,2.324,2.154,3.46,3.46,0,0,0,.8.1,2.681,2.681,0,0,0,1.639-.535,4.784,4.784,0,0,0,1.588-3.6C55.892,91.063,55.4,89.49,54.279,88.875Z"/>
        <path d="M34.216,53.21a.541.541,0,0,0,0,.108,2.785,2.785,0,0,1,.108.386,2.324,2.324,0,0,1-.209,1.826,2.079,2.079,0,0,0-.23.174c-.114.093-.272.225-.454.357l-.159.1a2.975,2.975,0,0,1-.759.381,5.527,5.527,0,0,1-.978.223c-.35.053-.716.083-1.1.115l-.3.021c-.279.019-.53.036-.862.084-.837.11-1.737.245-2.675.41-1.327.227-2.509.458-3.523.689-.631.158-1.223.315-1.767.466a.375.375,0,0,0-.015.718c1.148.368,2.426.838,3.906,1.435a22.446,22.446,0,0,0,2.992,1.038q1.482.354,2.755.676a16.559,16.559,0,0,1,2.431.774l.288.135a5.226,5.226,0,0,1,.788.417l.15.093c.117.073.232.145.318.205l.453.376a4.758,4.758,0,0,1,.5.523.372.372,0,0,0,.292.141.349.349,0,0,0,.065-.006.376.376,0,0,0,.291-.249l.174-.518c.149-.439.291-.86.422-1.256a64.678,64.678,0,0,0,1.943-6.269,11.9,11.9,0,0,1,.389-1.532.453.453,0,0,0-.225-.5c-.215-.122-.454-.257-.739-.433-.169-.08-.343-.168-.527-.26a16.181,16.181,0,0,0-1.647-.747c-.551-.219-1.094-.412-1.659-.59a.31.31,0,0,0-.291.11Z"/>
        <path d="M19.48,73.221c.675.218,1.316.419,1.924.609.657.206,1.276.4,1.859.591a.363.363,0,0,0,.117.019.378.378,0,0,0,.205-.061.371.371,0,0,0,.168-.278,3.5,3.5,0,0,1,.4-1.353l.007-.014a.392.392,0,0,0,.044-.176.376.376,0,0,0-.237-.349c-.034-.014-.069-.024-.145-.047-.481-.16-.98-.342-1.5-.532-.472-.172-.962-.351-1.47-.526A20.426,20.426,0,0,0,18.81,70.5a.375.375,0,0,0-.416.543,14.5,14.5,0,0,1,.849,1.952A.376.376,0,0,0,19.48,73.221Z"/>
        <path d="M27.806,74.393a1.6,1.6,0,0,0-.2-.434,2.922,2.922,0,0,0-1.416-.992c-.273-.117-.592-.229-.909-.339l-.091-.032a.375.375,0,0,0-.5.4,6.828,6.828,0,0,1,.032.766c0,.282.006.6.028.952a.373.373,0,0,0,.242.326c.605.229,1.162.5,1.626.73l.063.051.3-.243h0l-.24.287a.38.38,0,0,0,.178.083.507.507,0,0,0,.07.006.469.469,0,0,0,.375-.213.423.423,0,0,0,.11-.173.949.949,0,0,0,.084-.209l.032-.095a4.655,4.655,0,0,0,.171-.531l-.364-.09.4-.022A.372.372,0,0,0,27.806,74.393Z"/>
        <path d="M59.034,88.469c-.088-.27-.175-.539-.27-.815v0l-.278-.8a4.163,4.163,0,0,0-.742-1.423,1.751,1.751,0,0,0-1.194-.606,6.811,6.811,0,0,0-1.787.162l-2.029.415a15.5,15.5,0,0,0-2.006.488,4.631,4.631,0,0,0-1.657.956,4.678,4.678,0,0,0-1.088,1.691c-.187.436-.357.92-.534,1.425-.094.264-.188.534-.287.8l-.194.517a13.869,13.869,0,0,1-.816,1.905,8.173,8.173,0,0,1-1.727,2.3,5.1,5.1,0,0,1-.543.447.376.376,0,0,0-.121.456,18,18,0,0,0,2.074,3.723,5.6,5.6,0,0,0,2.919,2.066,5.125,5.125,0,0,0,1.495.212,7.9,7.9,0,0,0,1.457-.149,8.743,8.743,0,0,0,2.232-.813,8.986,8.986,0,0,0,2.183-1.635c.063-.079.13-.164.183-.243a14.74,14.74,0,0,0,1.886-3.713,24.211,24.211,0,0,0,1.31-5.679.61.61,0,0,0-.011-.113C59.361,89.529,59.208,89.011,59.034,88.469Zm-2.357,6.178c-.557,2.1-2.177,4.4-4.914,3.971a.381.381,0,0,0-.059,0h-.026a.567.567,0,0,1-.249-.053.746.746,0,0,1-.253-.118,5.245,5.245,0,0,1-2.663-6.972,7.25,7.25,0,0,1,2.24-3.175,3.441,3.441,0,0,1,3.465-.586C56.755,88.664,57.379,92,56.677,94.647Z"/>
        <path d="M109.543,76.493a7.678,7.678,0,0,0-1.388.132h-.008c-.383.073-.777.16-1.179.249-.381.084-.769.17-1.162.246a.375.375,0,0,0-.1.7,4.653,4.653,0,0,1,1.841,1.8,4.908,4.908,0,0,1-.858,6.061.419.419,0,0,1-.089.091c-1.254,1.092-2.361,1.442-3.379,1.069a3.727,3.727,0,0,1-1.972-2.359c-.616-1.841-.566-4.492.722-6a.373.373,0,0,0,.028-.451.378.378,0,0,0-.426-.15c-.126.04-.241.085-.358.131l-.1.04a2.746,2.746,0,0,0-.463.257.373.373,0,0,0-.1.1,1.134,1.134,0,0,1-.115.131,1.858,1.858,0,0,0-.219.266c-.031.06-.066.115-.1.17a2.392,2.392,0,0,0-.178.318,9.774,9.774,0,0,0-.523,1.47c-.119.395-.245.815-.406,1.239-.065.16-.147.326-.227.49l-.122.253a3.814,3.814,0,0,1-.352.524l-.12.166a5.709,5.709,0,0,1-1.205.989c-.3.19-.607.349-.911.5a.373.373,0,0,0-.185.463,8.08,8.08,0,0,0,1.859,2.954,7.815,7.815,0,0,0,3.063,1.9,7.217,7.217,0,0,0,2.235.394,4.788,4.788,0,0,0,.6-.037,6.353,6.353,0,0,0,2.161-.574,2.8,2.8,0,0,0,.544-.3,2.642,2.642,0,0,1,.24-.147,3,3,0,0,0,.672-.475l.119-.093c.129-.1.251-.2.377-.287a2.353,2.353,0,0,0,.305-.282l.088-.091a3.91,3.91,0,0,1,.338-.272.393.393,0,0,0,.1-.1,9.613,9.613,0,0,0,1.463-4,24.989,24.989,0,0,0-.132-7.162A.377.377,0,0,0,109.543,76.493Z"/>
        <path d="M121.1,75.18a1.417,1.417,0,0,0-1.525.118c-.411.263-.922.557-1.489.875l-.227.128c-.224.126-.453.254-.661.384a3.945,3.945,0,0,0-.493.335.372.372,0,0,0-.146.187,1.986,1.986,0,0,0,.247,1.565,2.663,2.663,0,0,0,.607.751.966.966,0,0,0,.328.214.613.613,0,0,0,.226.1.371.371,0,0,0,.145.038q.195.009.384.009a5.183,5.183,0,0,0,3.015-.787,1.9,1.9,0,0,0,.656-1.007,2.219,2.219,0,0,0,.068-.47A2.827,2.827,0,0,0,121.1,75.18Z"/>
        <path d="M116.79,64.084c.07-1.007.131-1.878.156-2.624.052-1.4.124-2.259.192-2.789.092.533.2,1.4.316,2.828.094,1.226.072,2.78.043,4.748l-.073,2.608c-.027.725-.055,1.491-.081,2.286-.029.985-.051,2.152-.073,3.289l0,.287a.374.374,0,0,0,.472.369c.573-.154,1.077-.27,1.5-.345a.377.377,0,0,0,.3-.3l.1-.516c.112-.581.219-1.131.282-1.7.032-.345.07-.681.108-1.011.068-.592.132-1.151.153-1.719.013-.356.029-.7.046-1.046.024-.5.047-.975.056-1.449V64.73c-.041-2.5-.137-4.529-.213-6.157l-.031-.661c-.063-1.427-.085-2.482-.074-3.29l-.051-.343c-.169-1.118-.378-2.509-.715-4.107a.374.374,0,0,0-.452-.288,8.383,8.383,0,0,1-.851.164,2.633,2.633,0,0,1-.722-.02c-.129-.021-.348-.077-.383-.222-.029-.11.115-.228.253-.317a3.9,3.9,0,0,1,.686-.321,7.564,7.564,0,0,1,.807-.261.375.375,0,0,0,.265-.459c-.041-.151-.086-.306-.132-.465l-.051-.177a.379.379,0,0,0-.411-.268c-.161.022-.309.036-.442.044a2.184,2.184,0,0,1-.571-.017c-.26-.053-.3-.171-.313-.23-.013-.041-.046-.149.157-.324a1.9,1.9,0,0,1,.484-.289c.073-.026.156-.052.274-.089a.375.375,0,0,0,.234-.5l-.063-.158c-.041-.1-.083-.209-.131-.311a.375.375,0,0,0-.411-.209,4.911,4.911,0,0,1-.74.1,3.426,3.426,0,0,1-.644.024c-.288-.035-.321-.146-.338-.2-.031-.1.033-.217.19-.349a2.087,2.087,0,0,1,.514-.315c.106-.036.225-.071.371-.115a.371.371,0,0,0,.244-.224.376.376,0,0,0-.03-.33,9.228,9.228,0,0,0-1.113-1.481.377.377,0,0,0-.4-.1,4.754,4.754,0,0,1-1.116.232l-.718.088c-.161.026-.349.048-.563.072-.372.043-.819.094-1.337.189a.375.375,0,0,0-.256.559c2.682,4.547,3.323,7.982,1.907,10.209-.8,1.259-2.908,1.569-4.377,1.786-.667.1-1.351.184-2.041.274a53.923,53.923,0,0,0-5.873.981c-.573.142-1.267.369-2,.609-2.406.787-5.4,1.767-7.13.853a2.215,2.215,0,0,1-1.035-2.077,20.594,20.594,0,0,0-1.265-5.366,30.745,30.745,0,0,1-1-3.429.376.376,0,0,0-.428-.294l-.294.049c-.674.109-1.353.22-2.033.337a.376.376,0,0,0-.273.535c1.5,3.032,2.423,7.41,1.118,10.352-.9,2.012-6.245,2.433-8.813,2.635-.483.038-.9.071-1.218.106a40.215,40.215,0,0,0-6.622,1.413c-.457.126-.921.253-1.4.381-1.129.306-2.2.595-3.114-.069-.787-.566-.678-1.882-.591-2.917.194-2.482-.794-4.834-1.75-7.11l-.249-.594a.374.374,0,0,0-.422-.223l-1.338.275a.375.375,0,0,0-.233.576c.058.087.108.174.179.3a3.733,3.733,0,0,1,.316.689l.274.689c.129.324.271.675.388,1.034.117.476.253.995.4,1.562l.059.225c.1.466.176.967.257,1.5l.1.652a51.775,51.775,0,0,1,.319,7.005.372.372,0,0,0,.139.291.379.379,0,0,0,.314.075l4.3-.912,2.7-.633q1.782-.417,3.649-.851,1.66-.388,3.363-.776c.2-.043.39-.089.584-.135.37-.088.74-.177,1.144-.239.59-.1,1.173-.2,1.767-.315,2.638-.461,5.2-.9,7.664-1.31,6.463-1.092,12.045-2.034,16.473-3.066,3.275-.706,5.81-1.114,7.494-1.322-.6.162-1.281.34-1.993.527-1.478.387-3.285.861-5.364,1.435C99.393,61.13,90.3,62.728,81.5,64.272c-.587.1-1.175.2-1.752.3-.367.056-.747.146-1.124.235-.2.049-.4.1-.6.138L68.3,67.053c-1.631.307-3.193.589-4.675.847a.375.375,0,0,0-.31.37c0,.96,0,1.974.015,3.029a.378.378,0,0,0,.221.336c.3.134.474.306.479.475.013.2-.178.452-.512.666a.375.375,0,0,0-.172.312c-.006.69-.024,1.4-.043,2.14l-.09,3.1c-.046.65-.144,1.338-.238,2l-.049.348c-.079.544-.164,1.095-.251,1.654a44.193,44.193,0,0,0-.727,7.8.375.375,0,0,0,.375.367.324.324,0,0,0,.062-.005l2.4-.494c1.446-.22,2.758-.424,3.952-.613,1.144-.18,2.171-.337,3.1-.47a.391.391,0,0,0,.106-.031c.156-.073.323-.146.5-.221l.233-.1c.16-.058.324-.123.493-.191a5.738,5.738,0,0,1,1.491-.441,37.6,37.6,0,0,1,4.978-.628l.457-.039c.789-.046,1.562-.157,2.379-.275.315-.046.637-.092.993-.14,1.218-.243,2.514-.5,3.9-.785,1.171-.234,2.724-.56,4.357-1a16.939,16.939,0,0,0,4.48-1.828,3.713,3.713,0,0,0,.934-.8,1.013,1.013,0,0,1,.081-.118A1.531,1.531,0,0,0,97.4,82c.028-.068.059-.133.09-.2.049-.1.1-.206.141-.32.119-.309.218-.657.326-1.035a12.836,12.836,0,0,1,.607-1.785,6.789,6.789,0,0,1,.358-.641L99,77.894a5.97,5.97,0,0,1,.6-.672l.036-.041a4.045,4.045,0,0,1,.812-.507l.2-.081a4.807,4.807,0,0,1,.648-.237,20.193,20.193,0,0,1,2.879-.557l.407-.058c.608-.077,1.228-.219,1.885-.37.448-.1.914-.209,1.4-.3a8.2,8.2,0,0,1,1.948-.167,4.019,4.019,0,0,1,2.063.7l.823.729.341.416.337.552a3.707,3.707,0,0,1,.169.494l.027.092c.037.169.081.382.1.518.017.118.039.231.073.411a.9.9,0,0,0,.08.235.49.49,0,0,0,.406.2l.369-.055a.375.375,0,0,0,.309-.46,3.407,3.407,0,0,1-.1-.807,3.086,3.086,0,0,1,.467-1.646c.083-.091.172-.18.246-.254a.615.615,0,0,1,.1-.077l.084-.058a1.763,1.763,0,0,1,.309-.177.352.352,0,0,0,.12-.089.373.373,0,0,0,.1-.246c.027-.826.052-1.7.075-2.544l.05-1.734.244-4.054C116.66,65.951,116.729,64.965,116.79,64.084Z"/>
        <path d="M102.05,83.611a3.257,3.257,0,0,0,1.236,2.133,1.522,1.522,0,0,0,.778.217,2.967,2.967,0,0,0,1.787-.88,3.826,3.826,0,0,0,.911-4.776,4.076,4.076,0,0,0-2.089-1.866,1.583,1.583,0,0,0-1.229.146C101.729,79.577,101.679,82.2,102.05,83.611Z"/>
        <path d="M34.971,69.354c-4.348-.839-8.664-2.057-12.837-3.233l-1.989-.56c-3.5-.987-6.388-1.884-9.047-3.687a.376.376,0,0,0-.553.157c-.134.3-.269.609-.4.928A24.946,24.946,0,0,0,9.129,65.8c-.1.342-.178.683-.243,1.032a.374.374,0,0,0,.512.415,6.239,6.239,0,0,1,7.7,1.851.376.376,0,0,0,.256.132,14.571,14.571,0,0,1,3.826.943c.7.261,1.345.522,1.938.764.352.143.687.279,1,.4.275.115.546.211.809.3.154.055.3.108.45.163.421.177.784.328,1.134.518a3.2,3.2,0,0,1,1.554,1.417,2.322,2.322,0,0,1,.1,1.517,3.843,3.843,0,0,1-.337.876.355.355,0,0,0-.053.111c-.029.1-.062.2-.1.3l-.052.162c-.024.063-.046.128-.068.195l-1.606-.607c-.454-.172-.924-.35-1.478-.5-.681-.224-1.453-.447-2.31-.7-.589-.17-1.218-.352-1.884-.554a.376.376,0,0,0-.476.438c.793,3.669.358,7.4-1.135,9.73a5.874,5.874,0,0,1-3.559,2.7.376.376,0,0,0-.057.71c1.551.659,3.48,1.48,5.83,2.286a39.287,39.287,0,0,0,5,1.377c.43.084.86.169,1.323.265a26.868,26.868,0,0,0,3.03.247,23.8,23.8,0,0,1,3.23.287c.095.014.2.036.3.058a.346.346,0,0,0,.078.009.375.375,0,0,0,.374-.394c-.05-1.008-.058-2.051-.023-3.189.032-1.021.086-2.007.139-2.957.039-.716.077-1.412.105-2.091.042-1.2.051-2.389.061-3.542l.009-1.013c.011-.964.045-1.908.079-2.817.017-.458.034-.907.045-1.324l.1-1.185c.072-.89.141-1.745.243-2.549l.3-1.8A.377.377,0,0,0,34.971,69.354ZM30.017,84.616h0a3.706,3.706,0,0,1-4.524,1.952c-2.328-.885-3.058-3.8-2.279-5.971a3.174,3.174,0,0,1,2.888-2.28,4.1,4.1,0,0,1,1.317.237.883.883,0,0,1,.151.07l.091.033a4.655,4.655,0,0,1,2.5,2.676A4.123,4.123,0,0,1,30.017,84.616Z"/>
        <path d="M61.6,71.421a.375.375,0,0,0,.322-.364c.016-.839.031-1.646.055-2.414a.377.377,0,0,0-.437-.382c-1.391.233-2.719.443-3.954.639l-.176.028c-1.684.242-3.138.4-4.221.509-1.232.141-2.284.259-3.177.355l-.2.033.167-.052c.859-.2,1.923-.453,3.145-.694s2.643-.488,4.164-.8l1.261-.269c1.007-.215,2.069-.442,3.174-.672a.377.377,0,0,0,.3-.354l.027-.777a61.767,61.767,0,0,0,.026-6.607c-.028-.292-.048-.577-.068-.855-.031-.437-.061-.853-.114-1.24V57.5l-.041-.273c-.079-.526-.153-1.016-.228-1.464-.063-.355-.144-.679-.219-.98-.038-.15-.074-.294-.107-.442s-.062-.27-.088-.4a4.286,4.286,0,0,0-.194-.733l-.149-.479a.376.376,0,0,0-.434-.253l-1.662.339c-.207.046-.408.084-.616.123a.375.375,0,0,0-.249.567c1.821,2.924,2.777,8.172,1.332,10.818-.834,1.515-2.642,1.657-4.391,1.8l-.283.023c-1.81.155-3.615.479-5.361.792-1.709.306-3.477.623-5.232.778a.375.375,0,0,0-.342.391c.1,2.046-.662,4.286-3.091,4.437a5.428,5.428,0,0,1-3.63-1.162.384.384,0,0,0-.354-.059.376.376,0,0,0-.241.265c0,.018-.015.116-.017.135-.064.708-.106,1.45-.15,2.218-.027.461-.054.932-.087,1.433,0,.522-.013,1.053-.022,1.595-.015.805-.03,1.636-.025,2.5l.005.74c.009,1.227.019,2.495-.02,3.861l-.2,5.038a30.348,30.348,0,0,0,.176,4.682.378.378,0,0,0,.059.16,3.176,3.176,0,0,1,.164.277,2.073,2.073,0,0,1,.221.642,1.958,1.958,0,0,1,.039.693.375.375,0,0,0,.368.448h.006a16.28,16.28,0,0,0,4.519-.551,5.739,5.739,0,0,0,3.387-3.008,13.783,13.783,0,0,0,.763-1.74l.418-1.114c.2-.545.4-1.109.651-1.682a5.633,5.633,0,0,1,3.685-3.451,15.008,15.008,0,0,1,2.212-.514l2.072-.394a7.6,7.6,0,0,1,2.19-.142,3.173,3.173,0,0,1,2.073,1.125,5.505,5.505,0,0,1,.97,1.916.365.365,0,0,0,.384.3.375.375,0,0,0,.356-.332l.109-.986c.157-1.268.353-2.47.542-3.631.075-.461.149-.914.218-1.358l.017-.1c.119-.748.232-1.455.3-2.2.023-.737.054-1.458.086-2.164l.094-2.261a.373.373,0,0,0-.108-.28.379.379,0,0,0-.279-.111c-1.116.035-1.864-.331-1.908-.691C59.529,72.251,60.275,71.608,61.6,71.421Z"/>
        <path d="M26.97,80.112a.4.4,0,0,0-.061-.023,1.764,1.764,0,0,0-1.821.386,3.034,3.034,0,0,0-.519,2.882,2.362,2.362,0,0,0,1.692,1.777,1.845,1.845,0,0,0,.392.042,2.152,2.152,0,0,0,1.981-1.353A2.939,2.939,0,0,0,26.97,80.112Z"/>
        <path d="M12.054,74.021a.41.41,0,0,0-.1-.038,1.307,1.307,0,0,0-1.362.381,3.9,3.9,0,0,0-.384,3.315,4.141,4.141,0,0,0,2.237,2.605,1.189,1.189,0,0,0,.323.047.969.969,0,0,0,.64-.24c.708-.607.683-2.23.618-2.75A4.283,4.283,0,0,0,12.054,74.021Z"/>
        <path d="M12.685,58.684a.409.409,0,0,0,.131-.021l.256-.06a8.8,8.8,0,0,1,1.477-.261l.02,0c.241-.03.495-.037.75-.044a.378.378,0,0,0,.319-.226.393.393,0,0,0,0-.312c.125-.169.347-.487.64-.971.478-.793,1.1-1.989,1.786-3.458.728-1.56,1.316-2.783,1.747-3.656l.117-.221a.375.375,0,0,0-.2-.52,21.663,21.663,0,0,1-2.216-.973.381.381,0,0,0-.435.07,7.67,7.67,0,0,0-.619.7.89.89,0,0,0-.075.147l-.331.722c-.2.44-.423.93-.68,1.465-.225.467-.448.989-.689,1.554-.2.463-.408.954-.646,1.479-.494,1.178-1.052,2.5-1.67,3.967-.012.024-.061.144-.068.17a.374.374,0,0,0,.127.359A.386.386,0,0,0,12.685,58.684Z"/>
        <path d="M15.321,60.267a7,7,0,0,0-1.822.539.374.374,0,0,0-.025.672A34.868,34.868,0,0,0,20.807,64.1c.636.175,1.27.35,1.9.532,4.33,1.269,7.972,2.2,11.463,2.913a.382.382,0,0,0,.075.008.376.376,0,0,0,.362-.475,3.023,3.023,0,0,0-.936-1.484,9.952,9.952,0,0,0-3.758-1.737l-2.557-.745c-.439-.131-.9-.293-1.362-.467q-.663-.271-1.345-.542a28.681,28.681,0,0,0-5.113-1.629A11.972,11.972,0,0,0,15.321,60.267Z"/>
        <path d="M23.68,56.322c.82-.122,1.71-.256,2.676-.419h0c1.1-.2,2.1-.377,2.974-.548l.308-.053a9.293,9.293,0,0,0,1.784-.394,1.357,1.357,0,0,0,.369-.161.476.476,0,0,0,.183-.2.582.582,0,0,0,.036-.356.475.475,0,0,0-.138-.21l-.077-.222c-.033-.11-.066-.213-.087-.313a2.861,2.861,0,0,1-.063-.69.353.353,0,0,0,0-.046,1.075,1.075,0,0,1,.112-.353.374.374,0,0,0-.251-.525c-.789-.19-1.633-.379-2.544-.567-.506-.111-1.032-.22-1.579-.334-1.193-.247-2.427-.5-3.771-.833-.273-.07-.545-.141-.825-.218a.518.518,0,0,0-.4.125l-.19.16a5.994,5.994,0,0,0-.782.772,12.568,12.568,0,0,0-1.988,3.04,19.143,19.143,0,0,0-.985,2.609.376.376,0,0,0,.358.485.4.4,0,0,0,.06,0c.2-.032.419-.072.633-.117l2.907-.432C22.808,56.453,23.233,56.389,23.68,56.322Z"/>
        <path d="M13.854,85.826a4.434,4.434,0,0,0,.842-.079c1.757-.339,3.007-1.756,3.522-3.989.783-3.382-.092-10.14-3.194-12.619a4.712,4.712,0,0,0-5.3-.307A7.442,7.442,0,0,0,6.53,73.858a11.587,11.587,0,0,0,1.545,8.556A7.508,7.508,0,0,0,13.854,85.826Zm1.788-7.293a4.081,4.081,0,0,1-1.653,3.078,2.288,2.288,0,0,1-2.135.153,5.863,5.863,0,0,1-3.411-4.888,4.778,4.778,0,0,1,.876-3.469h0a2.875,2.875,0,0,1,3.237-.927l.089.044.1.04C14.98,73.661,15.813,76.428,15.642,78.533Z"/>
        <path d="M34.324,94.754l0,0a3.2,3.2,0,0,0-1.2-.458,14.169,14.169,0,0,0-1.553-.2l-1.491-.09-2.128-.3c-.311-.049-.62-.1-.921-.159-.492-.117-.984-.234-1.473-.36a34.94,34.94,0,0,1-5.076-1.732,45.6,45.6,0,0,1-6.76-3.6l-.157-.106c-.076-.052-.15-.1-.226-.15a.4.4,0,0,0-.164-.055,8.76,8.76,0,0,1-5.721-3.219.374.374,0,0,0-.243-.132c-.052-.007-.1-.013-.13-.019A.308.308,0,0,0,7,84.173c-.014,0-.026-.008-.04-.008A.394.394,0,0,0,6.8,84.2l-.322.1a1.6,1.6,0,0,0-.268.1l-.149.067a1.525,1.525,0,0,0-.615.512.981.981,0,0,0-.129.675A3.975,3.975,0,0,0,6.2,87.436a20.483,20.483,0,0,0,3.653,3.528c.368.279.744.559,1.171.84.075.048.151.1.219.133a.933.933,0,0,0,.115.057l.837.414a20.544,20.544,0,0,0,2.178.973l.607.244a45.017,45.017,0,0,0,6.29,1.7c2.426.462,4.912.773,7.009,1.015.651.1,1.244.221,1.8.335.625.127,1.215.247,1.781.318a6.046,6.046,0,0,0,.86.068,3.246,3.246,0,0,0,.626-.055,1.391,1.391,0,0,0,.934-.557.58.58,0,0,0,.119-.2l.066-.146a.4.4,0,0,0,.054-.131c.11-.381.176-.613.1-.776A.65.65,0,0,0,34.324,94.754Z"/>
    </g>
</svg>
