<svg xmlns="http://www.w3.org/2000/svg" viewBox="0 0 120 120" x="0px" y="0px">
    <g>
        <path d="M46.338,38.645a20.382,20.382,0,0,1,8.237,3.041.253.253,0,0,0,.144.045.245.245,0,0,0,.163-.061,4.6,4.6,0,0,1,2.763-.6l.168,0h0c1.233-.024,2.48-.094,3.686-.162,1.334-.075,2.714-.153,4.07-.168,1.333-.006,2.735-.1,4.22-.2a59.287,59.287,0,0,1,5.945-.2.277.277,0,0,0,.256-.212.25.25,0,0,0-.179-.279c-1.076-.3-2.19-.563-3.405-.791a77.04,77.04,0,0,0-9.422-1.038c-1.378-.123-2.762-.162-4.1-.2L57.7,37.788c-1.291-.046-2.627-.092-3.917-.037-.524.016-1.046.026-1.566.036-.948.018-1.928.037-2.892.09-.922.088-1.832.17-2.74.252l-.224.02a.25.25,0,0,0-.019.5Z"/>
        <path d="M65.567,41.892c-1.09.011-2.193.083-3.259.152-.986.065-2.005.131-3.005.149-.1,0-.286,0-.51-.015-1.912-.08-3-.026-3.247.473-.23.444.172.9.465,1.238a2.141,2.141,0,0,1,.224.279c.289.5.566,1,.843,1.5.591,1.066,1.2,2.168,1.912,3.223.156.23.307.459.458.686C60.957,51.847,62.385,54,65.6,54c.11,0,.221,0,.334-.007.987-.044,1.973-.079,2.96-.116,2.652-.1,5.4-.2,8.1-.443l1.706-.158c3.152-.293,6.412-.6,9.629-.714l.134,0c2.194-.057,3.21-.32,3.395-.877.156-.469-.347-.867-.512-1-.214-.169-.451-.337-.695-.509a8.184,8.184,0,0,1-1.356-1.107c-3-3.274-6.729-7.343-11.643-7.343H77.57c-1.761.016-3.52.048-5.279.08C70.089,41.842,67.812,41.883,65.567,41.892Z"/>
        <path d="M8.814,56.384a.251.251,0,0,0,.113-.027,9.482,9.482,0,0,0,2.684-1.91,2.014,2.014,0,0,0,.713-1.7c-.1-.536-.546-.987-1.36-1.38a.248.248,0,0,0-.3.062,10.7,10.7,0,0,0-1.783,3.63c-.1.344-.2.673-.307,1a.25.25,0,0,0,.238.324Z"/>
        <path d="M113.929,63.4c-.686.085-1.388.222-2.2.38-.454.089-.936.182-1.467.277-.734.154-1.518.315-2.325.477a.251.251,0,0,0-.183.337,19.219,19.219,0,0,1,.717,2.167.252.252,0,0,0,.242.186.2.2,0,0,0,.042,0A58.145,58.145,0,0,0,117.418,65a.25.25,0,0,0,.164-.3l-.042-.172c-.059-.239-.117-.476-.17-.718a.253.253,0,0,0-.108-.157,1.838,1.838,0,0,0-.629-.268A7.837,7.837,0,0,0,113.929,63.4Z"/>
        <path d="M12.529,69.724a.281.281,0,0,0-.23-.23h0a.279.279,0,0,0-.039-.01,11.393,11.393,0,0,1-2.332-.738,10.875,10.875,0,0,0-2.589-.784.244.244,0,0,0-.257.158c-.13.324,1.557,3.149,1.813,3.35a6.744,6.744,0,0,0,3.575,1.374h.039a.264.264,0,0,0,.245-.231.228.228,0,0,0,.009-.051,8.073,8.073,0,0,0-.115-1.66A11.075,11.075,0,0,1,12.529,69.724Z"/>
        <path d="M20.387,74.824a8.187,8.187,0,0,0-1.6-7.548,3.159,3.159,0,0,0-3.341-.875.253.253,0,0,0-.171.194.248.248,0,0,0,.092.241c.224.176.456.344.689.511.289.209.579.418.852.643a.459.459,0,0,1,.151.338.646.646,0,0,1-.164.467.607.607,0,0,1-.838-.013c-.3-.254-.618-.485-.936-.718l-.383-.281a.249.249,0,0,0-.4.157,14.461,14.461,0,0,0-.2,1.98.25.25,0,0,0,.2.253c.58.116,1.2.208,2.018.3a.607.607,0,0,1,.608.581.642.642,0,0,1-.216.452.445.445,0,0,1-.336.122c-.687-.078-1.322-.166-1.939-.27a.253.253,0,0,0-.21.063.246.246,0,0,0-.08.2c.041.516.1.968.171,1.382a.237.237,0,0,0,.264.2,6.264,6.264,0,0,0,2.1-.63.6.6,0,0,1,.813.2.664.664,0,0,1,.04.506.423.423,0,0,1-.218.269,9.118,9.118,0,0,1-2.393.767.251.251,0,0,0-.205.322,11.324,11.324,0,0,0,.916,2.176.247.247,0,0,0,.232.128.251.251,0,0,0,.217-.154,5.487,5.487,0,0,1,1.059-1.752.508.508,0,0,1,.762-.006.566.566,0,0,1,.049.831,4.315,4.315,0,0,0-.851,1.454.25.25,0,0,0,.233.34.313.313,0,0,0,.043,0A3.813,3.813,0,0,0,20.387,74.824Z"/>
        <path d="M11.545,62.494a11.575,11.575,0,0,0-3.9-2.51.242.242,0,0,0-.193.02.251.251,0,0,0-.121.153,19.618,19.618,0,0,0-.632,3.3v.013a13.019,13.019,0,0,0,.053,2.208.25.25,0,0,0,.1.173,13.956,13.956,0,0,0,5.434,2.464.272.272,0,0,0,.049,0,.248.248,0,0,0,.148-.049.251.251,0,0,0,.1-.175,9.528,9.528,0,0,1,1.139-3.643.25.25,0,0,0-.084-.33A20.091,20.091,0,0,1,11.545,62.494Z"/>
        <path d="M107.141,67.474a.252.252,0,0,0,.174-.111.25.25,0,0,0,.031-.2,16.632,16.632,0,0,0-.768-2.154.247.247,0,0,0-.278-.145c-1.071.213-2.178.425-3.342.645-.859.152-1.727.251-2.565.347-.582.067-1.163.133-1.745.217a15.765,15.765,0,0,0-3.06.7.249.249,0,0,0-.142.334c.049.113.105.226.16.339l.086.175a.251.251,0,0,0,.2.141q2.193.2,4.411.2A48.722,48.722,0,0,0,107.141,67.474Z"/>
        <path d="M38.069,74.531a.249.249,0,0,0,.248-.281c-.994-7.71-.5-14.08,1.552-20.046a.25.25,0,0,0-.2-.329c-4.1-.579-8.323-.758-12.406-.931-1.881-.08-3.826-.162-5.732-.282a.24.24,0,0,0-.251.167c-.207.59-.47,1.159-.725,1.709-.826,1.766-.219,3.15.66,4.775a53.117,53.117,0,0,1,3.615,9.075c.433,1.386.79,2.8,1.134,4.178a.25.25,0,0,0,.2.186c3.984.637,7.992,1.216,11.868,1.777ZM22.616,55.146a.5.5,0,0,1,.382-.17.671.671,0,0,1,.142.016,11.212,11.212,0,0,0,2.142.157l.19,0a.867.867,0,0,1,.788.345.458.458,0,0,1,0,.461.861.861,0,0,1-.779.338h-.009a13.114,13.114,0,0,1-2.6-.208.484.484,0,0,1-.393-.321A.663.663,0,0,1,22.616,55.146Z"/>
        <path d="M97.377,70.308a2.5,2.5,0,0,0,.394.449l.1.1a.252.252,0,0,0,.176.073h0c3.229-.024,6.212-.134,9.119-.338.209-.015.427-.029.637-.036a.251.251,0,0,0,.238-.294q-.133-.743-.288-1.463a.256.256,0,0,0-.28-.194A49.831,49.831,0,0,1,96.9,69a.246.246,0,0,0-.234.123.251.251,0,0,0,.008.265A8.841,8.841,0,0,0,97.377,70.308Z"/>
        <path d="M119.233,66.489c.044.169.081.345.119.524a8.664,8.664,0,0,0,.231.917.264.264,0,0,0,.145.139.245.245,0,0,0,.106.022.315.315,0,0,0,.1-.017,1.963,1.963,0,0,0,.283-.122c.073-.035.144-.071.215-.108s.13-.067.2-.1a.252.252,0,0,0,.136-.282,15.046,15.046,0,0,0-.963-2.97,8.726,8.726,0,0,0-.984-1.655.249.249,0,0,0-.3-.075.252.252,0,0,0-.139.281c.181.8.386,1.605.591,2.408Z"/>
        <path d="M105.109,78.669a5.247,5.247,0,0,0,1.134-.143h0c.611-.138,1.219-.312,1.806-.481.541-.154,1.1-.315,1.653-.444a19.679,19.679,0,0,1,2.531-.377c2.1-.213,2.93-1.029,2.874-2.818a.249.249,0,0,0-.106-.2.244.244,0,0,0-.22-.033,15.373,15.373,0,0,1-1.928.491,42.094,42.094,0,0,1-5.3.5c-.952.045-1.812.111-2.782.213-.481.036-.976.073-1.493.088a.25.25,0,0,0-.243.25,3.224,3.224,0,0,0,.776,2.563A2.006,2.006,0,0,0,105.109,78.669Z"/>
        <path d="M115.546,72.415c.041-.019.081-.037.125-.055a1.312,1.312,0,0,0,.333-.176c.051-.033.1-.065.157-.1l.122-.071a.37.37,0,0,0,.083-.071l.121-.095a3,3,0,0,0,.76-1.15.251.251,0,0,0-.05-.27.245.245,0,0,0-.267-.062,24.783,24.783,0,0,1-6.849,1.162l-.34.019a.276.276,0,0,0-.188.122.321.321,0,0,0-.045.239c.085.407.169.815.261,1.221a.249.249,0,0,0,.244.2h.01c1.026-.043,1.851-.107,2.6-.2a13.809,13.809,0,0,0,2.2-.439l.191-.068c.095-.033.189-.066.272-.1A2.693,2.693,0,0,0,115.546,72.415Z"/>
        <path d="M101.914,73.479a8.688,8.688,0,0,0,1.315.087c.451,0,.919-.022,1.394-.048h0c.738-.052,1.834-.116,2.867-.124l.844-.022a.25.25,0,0,0,.189-.095.254.254,0,0,0,.05-.206c-.081-.394-.161-.8-.235-1.2a.249.249,0,0,0-.262-.2c-3.042.2-5.733.328-8.226.381a.252.252,0,0,0-.234.179.248.248,0,0,0,.1.277A5.542,5.542,0,0,0,101.914,73.479Z"/>
        <path d="M109.066,68.346a.243.243,0,0,0-.164.107.251.251,0,0,0-.037.192c.076.348.146.7.216,1.047l.113.565a.25.25,0,0,0,.245.2h.013c2.953-.152,5.595-.374,8.071-1.567l.058-.017a.252.252,0,0,0,.168-.206,17.035,17.035,0,0,0,.126-2.266.251.251,0,0,0-.329-.234A60.1,60.1,0,0,1,109.066,68.346Z"/>
        <path d="M24.812,74.965c-.054-.234-.107-.459-.163-.667l-.05-.188c-1.948-7.31-3.909-11.062-6-11.47-.914-.182-1.805.3-2.654,1.426a.249.249,0,0,0-.019.272.252.252,0,0,0,.241.128c3.145-.3,5.237,2.823,5.908,6.025.707,3.371-.055,7.511-3.4,8.634a.251.251,0,0,0-.007.472,4.832,4.832,0,0,0,1.669.287,7.871,7.871,0,0,0,5.21-2.337.249.249,0,0,0,.042-.314A7.817,7.817,0,0,1,24.812,74.965Z"/>
        <path d="M79.2,82.937a41.17,41.17,0,0,0-3.187-11.088c-.688-1.359-1.849-3.065-3.476-3.48a3.55,3.55,0,0,0-2.951.678.25.25,0,0,0,.118.471c1.838,0,3.68,1.285,5.053,3.511,2,3.233,2.5,7.473,1.2,10.082A5.6,5.6,0,0,1,72,86.132a5.472,5.472,0,0,1-4.7-1.247.25.25,0,0,0-.373.326,7.026,7.026,0,0,0,3.888,3.148,16.245,16.245,0,0,0,4.443.727c2.063,0,4.06-.615,5.016-2.652a.249.249,0,0,0-.031-.262A7.235,7.235,0,0,1,79.2,82.937Z"/>
        <path d="M69.519,80.433H66.986a.251.251,0,0,0-.2.1.247.247,0,0,0-.042.218,5.808,5.808,0,0,0,.631,1.521,5.1,5.1,0,0,0,1.282,1.381.251.251,0,0,0,.322-.022c.033-.031.046-.059.042-.056a5.978,5.978,0,0,0,1.046-1.686l.151-.315a.471.471,0,0,1,.68-.217.617.617,0,0,1,.286.86A10.876,10.876,0,0,1,70.17,83.99a.254.254,0,0,0-.033.241.249.249,0,0,0,.186.155,3.821,3.821,0,0,0,.719.068,3.747,3.747,0,0,0,1.994-.571.251.251,0,0,0,.083-.338,5.314,5.314,0,0,0-.793-1.076.551.551,0,0,1,.032-.813.616.616,0,0,1,.378-.178.512.512,0,0,1,.4.173,6.759,6.759,0,0,1,.751.942.269.269,0,0,0,.215.109.251.251,0,0,0,.207-.123,4.4,4.4,0,0,0,.483-1.206.255.255,0,0,0-.033-.194.252.252,0,0,0-.163-.11,6.275,6.275,0,0,1-1.075-.282.6.6,0,0,1-.427-.714.641.641,0,0,1,.325-.379.444.444,0,0,1,.362-.031,6.54,6.54,0,0,0,.839.236.242.242,0,0,0,.216-.055.245.245,0,0,0,.086-.206c-.022-.321-.067-.672-.119-1.038a.248.248,0,0,0-.129-.185.242.242,0,0,0-.225-.006l-.077.036a3.4,3.4,0,0,1-.316.139.441.441,0,0,1-.362-.032.64.64,0,0,1-.322-.382.593.593,0,0,1,.423-.712c.175-.068.341-.144.516-.227a.25.25,0,0,0,.133-.291,14.606,14.606,0,0,0-.582-1.732.25.25,0,0,0-.217-.156.238.238,0,0,0-.233.13c-.137.249-.265.506-.377.767a.445.445,0,0,1-.276.225.644.644,0,0,1-.5-.038.618.618,0,0,1-.2-.814,6.484,6.484,0,0,1,.932-1.549.25.25,0,0,0,.021-.291C71.854,71.6,70.447,70.85,68.955,71.3a.246.246,0,0,0-.153.131.251.251,0,0,0-.008.2,12.732,12.732,0,0,0,1.147,2.077,16.1,16.1,0,0,1,.894,1.522.617.617,0,0,1-.314.835.464.464,0,0,1-.667-.216,18.977,18.977,0,0,0-.977-1.7,17.2,17.2,0,0,1-1.011-1.786.25.25,0,0,0-.415-.059,5.426,5.426,0,0,0-1.021,2.71.251.251,0,0,0,.174.278,12.12,12.12,0,0,1,3.281,1.487.611.611,0,0,1,.147.871.469.469,0,0,1-.7.145,11.1,11.1,0,0,0-2.71-1.292.255.255,0,0,0-.223.034.252.252,0,0,0-.106.2,16.621,16.621,0,0,0,.15,2.514.249.249,0,0,0,.247.215h2.827c.558,0,.851.243.851.484S70.077,80.433,69.519,80.433Z"/>
        <path d="M63.729,80.042c-1.591-.349-3.321-.7-5.473-1.121a1.055,1.055,0,0,1-.184-.026l-.025-.007c-6.772-1.291-13.708-2.3-20.416-3.269-3.595-.521-7.313-1.059-10.961-1.636a.261.261,0,0,0-.217.1.3.3,0,0,0-.05.257c.091.359.183.717.283,1.072.439,1.478,2.4,1.485,3.7,1.49.321,0,.611,0,.84.024,8.221.766,16.463,2.769,24.434,4.707,2.543.617,5.172,1.257,7.754,1.843a.208.208,0,0,0,.055.007.245.245,0,0,0,.143-.045.252.252,0,0,0,.1-.172l.037-.338a.269.269,0,0,0,0-.075.908.908,0,0,1,.039-.431c.052-.7.1-1.413.132-2.128A.249.249,0,0,0,63.729,80.042Z"/>
        <path d="M39.708,42.428c-.8.017-1.452.052-2.052.111a28.389,28.389,0,0,0-7.306,1.837.243.243,0,0,0-.144.15,23.483,23.483,0,0,0-1.49,7.086.251.251,0,0,0,.239.258c2.708.117,5.615.269,8.523.578H37.5a.25.25,0,0,0,.247-.212l.042-.276a38.833,38.833,0,0,1,2.152-9.188.251.251,0,0,0-.026-.237A.276.276,0,0,0,39.708,42.428Z"/>
        <path d="M90.2,69.059a15.77,15.77,0,0,0-1.562-1.019l-.3-.16c-.166-.088-.328-.173-.478-.246-.068-.034-.152-.072-.238-.11l-.649-.289c-1.34-.618-2.354-1.04-3.292-1.368l-.265-.093c-1.264-.445-3.894-1.373-4.53.113-.467,1.08.867,2.66,1.547,3.215a14.928,14.928,0,0,0,3.713,2.118,25.252,25.252,0,0,0,3.012.831c.6.139,1.219.284,1.793.445a12.589,12.589,0,0,0,2.327.42c.186.017.371.026.557.026a5.641,5.641,0,0,0,.863-.066.248.248,0,0,0,.169-.106.254.254,0,0,0,.037-.2,4.31,4.31,0,0,0-.64-1.451A9.32,9.32,0,0,0,90.2,69.059Z"/>
        <path d="M121.749,71.978c-.1-.749-.285-1.51-.477-2.315l-.129-.548a.25.25,0,0,0-.134-.168.253.253,0,0,0-.215,0c-.852.4-1.423.456-1.8.186a.25.25,0,0,0-.4.186,8.064,8.064,0,0,1-.2,1.4,4.43,4.43,0,0,1-1.02,2.013l-.248.242-.232.182c-.069.043-.127.087-.186.132a2.03,2.03,0,0,1-.251.17.945.945,0,0,0-.1.051.251.251,0,0,0-.155.267c.026.182.046.364.066.54l.006.062a.268.268,0,0,0,.251.223,5.515,5.515,0,0,1,1.8.214.579.579,0,0,1,.411.538c-.172,4.225-6.136,4.847-10.49,5.3-1.137.119-2.118.221-2.9.373-2.8.545-6.117.81-6.883-1.986a1.515,1.515,0,0,1,.156-1.373c.433-.584,1.468-.914,2.993-.953a.25.25,0,0,0,.244-.244l.022-.822a.253.253,0,0,0-.171-.244.274.274,0,0,0-.108-.017,7.631,7.631,0,0,1-3.185-1.4l-.672-.533-1.19-1.125c-.06-.062-.119-.12-.178-.176a3.188,3.188,0,0,1-.368-.4c-.293-.388-.586-.77-.878-1.151l-.072-.093a5.582,5.582,0,0,1-.519-.843c-.074-.136-.147-.272-.224-.4l-.358-.637a2.864,2.864,0,0,1-.17-.4c-.031-.084-.062-.169-.094-.244l-.789-2.07.709-.381a13.165,13.165,0,0,1,4.808-1.286c.695-.08,1.374-.136,2.029-.19.787-.064,1.531-.125,2.229-.222l.662-.095q.572-.079,1.123-.163a.249.249,0,0,0,.1-.455,12.912,12.912,0,0,0-2.1-1.047l-3.522-1.456C97,59.8,95.476,59.153,94.294,58.629c-1.026-.458-1.7-.782-2.145-1.011.478.141,1.189.372,2.246.748,1.267.451,2.863,1.046,4.743,1.767l.85.328c.765.294,1.587.61,2.5.991a16.86,16.86,0,0,1,1.873.849,6.152,6.152,0,0,1,1.391.994.253.253,0,0,0,.208.068c1.46-.2,2.839-.388,4.147-.557l.131-.014c2.549-.273,4.956-.532,6.541.149a.25.25,0,0,0,.344-.277c-.058-.292-.109-.591-.16-.892a.558.558,0,0,1,.071-.375.249.249,0,0,0-.069-.314l-1.1-.726c-.438-.278-.917-.524-1.381-.761l-.46-.237c-1.133-.541-2.4-1.084-3.978-1.71l-.55-.221c-.509-.206-1.021-.412-1.531-.621l-1.061-.445L105.918,56a27.213,27.213,0,0,0-4.032-.836l-.342-.054a20.538,20.538,0,0,1-4.683-1.165,16.756,16.756,0,0,1-3.125-1.8.249.249,0,0,0-.388.142c-.163.645-.8,1.069-1.78,1.193-2.052.267-4.084.435-5.8.564a.251.251,0,0,0-.086.477c.178.082.356.163.519.233.414.2.777.385,1.1.551s.6.31.841.419a7.787,7.787,0,0,1,.9.472,8.322,8.322,0,0,1-1.022-.214,13.175,13.175,0,0,1-1.458-.523l-.577-.228c-.323-.137-.674-.282-1.054-.439l-.363-.149c-.395-.125-.829-.265-1.282-.411a.251.251,0,0,0-.093-.012q-1.225.078-2.448.15c-1.691.1-3.438.2-5.138.335-3.039.229-6.29.44-9.513.44-.49,0-.981,0-1.5-.022a.244.244,0,0,0-.245.159.248.248,0,0,0,.073.282c.136.114.28.228.412.324a7.622,7.622,0,0,0,1.762.929,7.1,7.1,0,0,0,.936.358c.108.033.213.069.318.1.2.069.4.137.6.183,1.128.314,2.23.556,3.3.79,1.242.273,2.416.53,3.521.876l2.864.844c.883.263,1.717.51,2.519.686,1.525.376,2.965.731,4.214,1.07.388.107.756.205,1.106.3.747.2,1.393.37,1.953.571q.811.293,1.415.519c-.412-.111-.888-.243-1.43-.4-.509-.148-1.078-.27-1.737-.411-.427-.092-.884-.19-1.369-.3l-1.426-.315c-.863-.19-1.8-.4-2.83-.626-.841-.167-1.726-.407-2.559-.642-.909-.249-1.871-.513-2.879-.8-1.018-.3-2.127-.537-3.3-.783-1.125-.235-2.288-.479-3.526-.814a6.548,6.548,0,0,1-.637-.194c-.1-.035-.2-.07-.311-.1a6.6,6.6,0,0,1-.942-.35,8.7,8.7,0,0,1-1.9-1,12.818,12.818,0,0,1-1.656-1.528.249.249,0,0,0-.091-.06,3.3,3.3,0,0,1-.893-.5,13.812,13.812,0,0,1-1.7-1.694.25.25,0,0,0-.4.294l.042.069c.432.7.841,1.359,1.227,2.062.166.306.321.61.472.905a14.2,14.2,0,0,0,1.272,2.17,5.059,5.059,0,0,0,2.473,1.74,14.8,14.8,0,0,0,2.514.6l.226.04c.23.037.457.071.682.1.631.095,1.226.185,1.8.319.529.114,1.019.253,1.493.387.215.061.426.121.624.173,2.128.647,3.645,1.244,4.755,1.681-.338-.1-.714-.214-1.121-.339-.984-.3-2.207-.679-3.712-1.076-.219-.049-.444-.1-.674-.159-.457-.112-.935-.227-1.43-.319-.527-.11-1.092-.182-1.689-.259-.257-.033-.519-.066-.839-.112a15.7,15.7,0,0,1-2.78-.591,5.63,5.63,0,0,1-2.73-1.861,14.493,14.493,0,0,1-1.318-2.194c-.165-.314-.33-.629-.5-.94-.338-.6-.728-1.224-1.141-1.886-.306-.489-.62-.991-.923-1.5a36.229,36.229,0,0,1-2.034-3.929,22.568,22.568,0,0,1-.866-2.459,8.407,8.407,0,0,1-1.007-2.32.251.251,0,0,0-.086-.141c-4.542-3.708-12.547-3.838-15.815-3.715-.746.15-1.343.291-1.871.444l-1.939.514c-.428.113-.853.257-1.263.4-.212.072-.424.143-.639.212q-.291.1-.583.189c-.427.137-.853.273-1.272.432l-.2.078c-.528.208-1.056.416-1.579.617-.8.285-1.56.64-2.3.982-.378.176-.754.351-1.135.517-.716.332-1.412.7-2.083,1.054-.378.2-.752.4-1.136.592-.595.335-1.174.682-1.745,1.023-.415.249-.826.494-1.248.739A9.834,9.834,0,0,0,18.354,48.2c-.365.338-.741.687-1.179,1.035l-.225.156c-.2.141-.4.279-.605.394-.186.078-.371.149-.543.217-.177.049-.36.085-.532.118a7.067,7.067,0,0,1-1.393.028c-.139-.007-.269-.014-.378-.016a4.613,4.613,0,0,0-.531,0l-.228.026a1.975,1.975,0,0,0-.436.114l-.063.03a.251.251,0,0,0-.2.194.249.249,0,0,0,.1.257c1.053.726,2.087,1.928,1.041,3.535a10.384,10.384,0,0,1-5.11,3.691.252.252,0,0,0-.149.169c-.035.135-.078.277-.121.4a.251.251,0,0,0,.165.318,11.891,11.891,0,0,1,3.969,2.515,20.957,20.957,0,0,0,2.33,1.767.251.251,0,0,0,.33-.06c1.277-1.66,3.761-2.738,5.845-1.466a.25.25,0,0,0,.357-.32c-.189-.4-.4-.8-.608-1.188a9.112,9.112,0,0,1-1.214-3.143,6.214,6.214,0,0,1,.742-3.364,12.815,12.815,0,0,0,.7-1.9c1.638-6.01,11.255-9.923,17.276-10.329,3.335-.224,7.564-.247,10.694,1.567,3.2,1.855,4.912,5.038,6.663,8.7a.2.2,0,0,1,.021.061.249.249,0,0,0,.074.14A7.214,7.214,0,0,1,56.793,54.3a.248.248,0,0,0,.172.146,3.7,3.7,0,0,1,2.761,4.2.571.571,0,0,1-.486.559.25.25,0,0,0-.183.182c-1.057,4.225-.748,8.522-.449,12.677.133,1.838.269,3.739.288,5.614a.247.247,0,0,0,.2.243c1.434.274,2.945.586,4.618.954a.258.258,0,0,0,.2-.044.25.25,0,0,0,.1-.183A21.215,21.215,0,0,1,65.236,72.2c1.144-2.85,3.626-6.04,6.9-5.645,2.738.33,4.658,2.27,6.042,6.106a62.227,62.227,0,0,1,1.937,6.346c.157.658.252,1.328.343,1.977.275,1.952.535,3.8,2.451,4.561a.251.251,0,0,0,.113.017l.153-.007.134-.006c.213,0,.444,0,.7.006.309,0,.651.009,1.03.009.915,0,2.048-.026,3.455-.148.026,0,.661-.039,1.9-.192,1-.12,2.368-.288,4.073-.5l1.573-.193c.417-.051.864-.108,1.311-.166a.483.483,0,0,0,.084-.018l.687-.265a13.242,13.242,0,0,1,5.856-1.29,15.1,15.1,0,0,0,7.133-1.017l.307-.128c1.813-.76,4.553-1.909,5.963-.4a.244.244,0,0,0,.2.079,9.566,9.566,0,0,0,2.2-.3,1.728,1.728,0,0,0,.9-.636,1.265,1.265,0,0,0,.216-.363c.027-.057.053-.115.084-.171a.221.221,0,0,0,.029-.084,1.1,1.1,0,0,1,.062-.21.253.253,0,0,0-.024-.219.25.25,0,0,0-.188-.115,2.16,2.16,0,0,1-1.673-.856,1.557,1.557,0,0,1-.02-1.437,9.315,9.315,0,0,1,2.321-3.255.834.834,0,0,1,.186-.12.25.25,0,0,0,.147-.219A7.792,7.792,0,0,0,121.749,71.978ZM83.66,82.441a8.676,8.676,0,0,0,.692-1.556,3.262,3.262,0,0,1,1.773-2.246,10.046,10.046,0,0,1,4.331-.885c2.719,0,6.041.655,6.424,3.771a.629.629,0,0,1-.516.748.93.93,0,0,0-.128.044,21.462,21.462,0,0,1-7.268,1.456c-.271-.01-.683-.073-1.12-.139a14.416,14.416,0,0,0-2-.211,2.262,2.262,0,0,0-1.01.18.907.907,0,0,1-1.077-.193A.774.774,0,0,1,83.66,82.441Zm11.172-8.859-.058.592-.521.188A6.312,6.312,0,0,1,91.1,74.6a12.413,12.413,0,0,1-2.594-.685,23.08,23.08,0,0,1-3.827-1.852c-.352-.211-.813-.433-1.3-.668a10.026,10.026,0,0,1-3.195-2.045.247.247,0,0,0-.094-.07h0a6.93,6.93,0,0,1-1.5-1.143,4.108,4.108,0,0,1-.737-1.026,2.233,2.233,0,0,1-.124-1.657,2.511,2.511,0,0,1,.452-.784l.486-.428.3-.18a.388.388,0,0,1,.058-.031.244.244,0,0,0,.128-.152.253.253,0,0,0,.191.008c.156-.056.327-.106.454-.143a5.034,5.034,0,0,1,.9-.113,11.325,11.325,0,0,1,3.526.541,29.951,29.951,0,0,1,3.539,1.3l.432.187c.143.056.279.114.452.193.332.151.643.311.953.477a14.886,14.886,0,0,1,1.8,1.147,10.618,10.618,0,0,1,2.5,2.572A5.605,5.605,0,0,1,94.832,73.582Z"/>
        <path d="M121.306,75.757a.5.5,0,0,0-.585.189c-.133.2-.258.384-.405.644a2.294,2.294,0,0,0-.394,1.185.5.5,0,0,0,.15.336.737.737,0,0,0,.411.193,2.98,2.98,0,0,0,.556.045.5.5,0,0,0,.5-.476l.024-.51c.014-.332.029-.7.068-1.084A.5.5,0,0,0,121.306,75.757Z"/>
        <path d="M85.929,81.835c.42.02.842.065,1.245.109.349.037.685.073.992.09.22.012.439.017.658.017A20.715,20.715,0,0,0,94.7,81.018a.249.249,0,0,0,.124-.393c-1.2-1.542-4.929-1.157-5.349-1.108a6.581,6.581,0,0,0-3.1.925,2.047,2.047,0,0,0-.666,1.065.249.249,0,0,0,.225.328Z"/>
        <path d="M43.866,42.739a22.027,22.027,0,0,0-2.4-.267.282.282,0,0,0-.267.236l-.011.02a32.823,32.823,0,0,0-2.2,8.907l-.107.718a.248.248,0,0,0,.215.285c1.07.139,2.062.292,3.034.468a.342.342,0,0,0,.045,0,.248.248,0,0,0,.16-.058.251.251,0,0,0,.09-.191c.014-3.3.152-6.768,1.625-9.765a.249.249,0,0,0-.182-.357Z"/>
        <path d="M57.777,59.424a.251.251,0,0,0-.176-.1c-.262-.027-.563-.055-.9-.085-2.989-.273-8.553-.78-9.411-3.579a.248.248,0,0,0-.167-.166,46.934,46.934,0,0,0-5.8-1.358.245.245,0,0,0-.278.164c-2.127,6.07-2.619,12.508-1.547,20.261a.251.251,0,0,0,.212.213c5.7.818,11.79,1.728,17.734,2.832a.238.238,0,0,0,.046,0,.25.25,0,0,0,.25-.253c-.027-1.814-.153-3.645-.274-5.415-.279-4.046-.566-8.231.348-12.314A.248.248,0,0,0,57.777,59.424Zm-11.12-1.7a.551.551,0,0,1,.485.315.679.679,0,0,1-.022.646.433.433,0,0,1-.43.184h0l-.078-.005a13.967,13.967,0,0,1-4.381-.741.606.606,0,0,1-.388-.491.664.664,0,0,1,.2-.6.361.361,0,0,1,.23-.079.568.568,0,0,1,.21.045,13.4,13.4,0,0,0,4.109.717Z"/>
        <path d="M58.309,58.109a.247.247,0,0,0,.182-.079.25.25,0,0,0,.067-.193,2.524,2.524,0,0,0-.8-1.736.25.25,0,0,0-.414.217.4.4,0,0,1-.382.484.676.676,0,0,1-.774-.563,4.812,4.812,0,0,0-.208-.866.249.249,0,0,0-.044-.08.422.422,0,0,1-.1-.268.241.241,0,0,0-.019-.095,5.651,5.651,0,0,0-3.027-3.189,2.753,2.753,0,0,0-2.379.3c-1.012.63-2.025,1.719-2.008,2.735a1.735,1.735,0,0,0,1.016,1.482c2.219,1.287,4.954,1.572,7.367,1.823a.231.231,0,0,0,.127-.02.563.563,0,0,1,.311-.046,8.722,8.722,0,0,0,1.08.09Z"/>
        <path d="M46.218,43.283c-.184-.059-.372-.106-.556-.152l-.08-.02a.25.25,0,0,0-.281.122c-1.5,2.754-1.7,8.314-1.727,9.953a.251.251,0,0,0,.2.249c1.072.226,2.147.5,3.2.81a.244.244,0,0,0,.071.01.251.251,0,0,0,.243-.19,5.148,5.148,0,0,1,4.866-3.524,4.307,4.307,0,0,1,.674.076.249.249,0,0,0,.268-.359C51.625,47.375,49.662,44.292,46.218,43.283Z"/>
        <path d="M27.3,51.8h.01a.251.251,0,0,0,.25-.242,22.708,22.708,0,0,1,1.09-5.984.249.249,0,0,0-.077-.264.252.252,0,0,0-.273-.034C25,46.906,22.754,48.956,21.819,51.2a.254.254,0,0,0,.019.229.251.251,0,0,0,.2.117C23.822,51.65,25.592,51.724,27.3,51.8Z"/>
    </g>
</svg>
