<?xml version="1.0" encoding="UTF-8"?>
<!DOCTYPE svg PUBLIC "-//W3C//DTD SVG 1.1//EN" "http://www.w3.org/Graphics/SVG/1.1/DTD/svg11.dtd">
<svg xmlns="http://www.w3.org/2000/svg" version="1.1" width="1024px" height="572px" style="shape-rendering:geometricPrecision; text-rendering:geometricPrecision; image-rendering:optimizeQuality; fill-rule:evenodd; clip-rule:evenodd" xmlns:xlink="http://www.w3.org/1999/xlink">
<g><path style="opacity:0.973" fill="#FFFFFF" d="M 478.5,59.5 C 522.259,58.4989 565.926,59.9989 609.5,64C 627.594,63.3019 642.427,69.8019 654,83.5C 667.019,105.533 679.019,128.2 690,151.5C 692.488,153.743 695.154,155.743 698,157.5C 699.667,154.833 701.333,152.167 703,149.5C 703.164,143.025 704.164,136.691 706,130.5C 710.14,125.789 715.306,124.289 721.5,126C 728.841,128.42 735.341,132.253 741,137.5C 745.747,144.038 744.914,149.871 738.5,155C 731.66,156.99 724.66,157.99 717.5,158C 715.649,159.684 713.982,161.517 712.5,163.5C 719.463,168.321 726.463,173.154 733.5,178C 740.532,183.407 744.365,190.573 745,199.5C 745.676,208.772 746.843,217.938 748.5,227C 748.596,229.375 748.096,231.541 747,233.5C 746.013,272.494 745.346,311.494 745,350.5C 745.072,359.175 742.238,366.675 736.5,373C 734.608,373.973 732.608,374.64 730.5,375C 715.5,375.667 700.5,375.667 685.5,375C 680.562,374.728 677.396,372.228 676,367.5C 674.809,362.233 674.309,356.899 674.5,351.5C 573.839,349.277 473.172,349.11 372.5,351C 369.242,351.212 366.076,351.712 363,352.5C 362.773,357.897 362.106,363.231 361,368.5C 359.332,372.165 356.499,374.332 352.5,375C 336.833,375.667 321.167,375.667 305.5,375C 300.124,373.444 296.624,369.944 295,364.5C 294.08,361.899 293.413,359.232 293,356.5C 291.854,321.511 291.187,286.511 291,251.5C 290.608,241.341 289.941,231.341 289,221.5C 289.667,220.833 290.333,220.167 291,219.5C 290.572,208.147 292.239,197.147 296,186.5C 297.793,183.705 299.96,181.205 302.5,179C 309.996,173.751 317.663,168.751 325.5,164C 324.167,161.333 322.167,159.333 319.5,158C 311.841,158.266 304.507,156.933 297.5,154C 293.286,149.8 292.452,144.966 295,139.5C 303.06,129.367 313.56,124.867 326.5,126C 329.381,127.251 331.214,129.417 332,132.5C 333.124,138.103 333.79,143.769 334,149.5C 335.5,151.667 337,153.833 338.5,156C 341.403,155.723 344.07,154.556 346.5,152.5C 356.474,131.884 366.974,111.551 378,91.5C 385.707,77.232 397.54,68.732 413.5,66C 435.248,63.165 456.915,60.9984 478.5,59.5 Z M 471.5,149.5 C 517.84,149.399 564.173,149.899 610.5,151C 632.889,151.503 655.223,152.836 677.5,155C 669.721,161.446 662.554,168.612 656,176.5C 645.92,190.321 636.587,204.655 628,219.5C 624.707,222.787 620.873,225.287 616.5,227C 607.597,228.794 598.597,229.794 589.5,230C 537.149,233.293 484.815,232.959 432.5,229C 421.412,228.873 412.579,224.373 406,215.5C 395.166,195.329 381.999,176.829 366.5,160C 364.167,158.333 361.833,156.667 359.5,155C 372.112,153.338 384.778,152.338 397.5,152C 422.331,151.238 446.998,150.404 471.5,149.5 Z M 334.5,172.5 C 354.096,170.204 367.263,178.204 374,196.5C 375.849,219.467 365.349,232.467 342.5,235.5C 319.886,232.73 309.053,220.063 310,197.5C 313.683,184.651 321.85,176.318 334.5,172.5 Z M 687.5,172.5 C 710.696,170.375 724.363,180.708 728.5,203.5C 726.752,220.748 717.419,231.248 700.5,235C 681.249,236.299 668.749,227.799 663,209.5C 661.679,190.793 669.846,178.46 687.5,172.5 Z M 323.5,256.5 C 341.503,259.89 359.503,263.39 377.5,267C 382.499,268.166 386.499,270.833 389.5,275C 366.17,273.75 342.837,272.083 319.5,270C 317.477,266.817 316.977,263.317 318,259.5C 319.719,258.131 321.552,257.131 323.5,256.5 Z M 714.5,256.5 C 719.396,257.952 721.23,261.285 720,266.5C 719.682,268.061 718.849,269.228 717.5,270C 694.204,272.521 670.871,274.188 647.5,275C 650.635,271.599 654.302,268.933 658.5,267C 677.316,263.535 695.983,260.035 714.5,256.5 Z M 326.5,276.5 C 350.522,277.557 374.522,279.057 398.5,281C 405.063,280.629 410.563,282.796 415,287.5C 416.626,289.917 418.126,292.417 419.5,295C 431.34,296.337 431.34,297.504 419.5,298.5C 418.564,302.309 417.23,305.975 415.5,309.5C 418.897,310.172 422.23,311.005 425.5,312C 421.789,312.175 418.122,312.675 414.5,313.5C 412.529,319.303 408.529,322.803 402.5,324C 382.962,325.372 363.628,324.038 344.5,320C 326.831,310.129 320.831,295.629 326.5,276.5 Z M 691.5,276.5 C 697.842,276.334 704.175,276.5 710.5,277C 715.516,292.652 711.516,305.986 698.5,317C 695.785,318.908 692.785,320.241 689.5,321C 670.24,324.515 650.907,325.181 631.5,323C 627.447,320.613 624.447,317.28 622.5,313C 608.502,312.904 608.169,311.737 621.5,309.5C 619.883,305.986 618.883,302.319 618.5,298.5C 605.357,297.634 605.357,296.301 618.5,294.5C 620.423,287.742 624.756,283.576 631.5,282C 651.645,280.112 671.645,278.278 691.5,276.5 Z M 450.5,297.5 C 495.835,297.333 541.168,297.5 586.5,298C 594.48,302.428 599.147,309.262 600.5,318.5C 600.55,321.574 599.217,323.741 596.5,325C 544.5,325.667 492.5,325.667 440.5,325C 436.226,321.967 435.393,318.133 438,313.5C 440.05,306.346 444.217,301.013 450.5,297.5 Z"/></g>
<g><path style="opacity:0.817" fill="#FFFFFF" d="M 511.5,215.5 C 516.167,215.5 520.833,215.5 525.5,215.5C 526.117,224.393 522.284,227.393 514,224.5C 512.451,221.688 511.618,218.688 511.5,215.5 Z"/></g>
<g><path style="opacity:0.989" fill="#FFFFFF" d="M 201.5,417.5 C 214.885,417.097 228.218,417.597 241.5,419C 256.773,423.604 265.606,433.771 268,449.5C 268.667,459.5 268.667,469.5 268,479.5C 265.141,496.025 255.641,506.525 239.5,511C 181.787,520.957 159.287,497.457 172,440.5C 178.108,427.883 187.942,420.217 201.5,417.5 Z M 205.5,434.5 C 216.222,434.125 226.889,434.625 237.5,436C 244.097,438.263 248.264,442.763 250,449.5C 250.667,459.833 250.667,470.167 250,480.5C 247.406,487.428 242.573,491.928 235.5,494C 193.966,502.469 178.466,486.302 189,445.5C 192.988,439.432 198.488,435.765 205.5,434.5 Z"/></g>
<g><path style="opacity:0.987" fill="#FFFFFF" d="M 436.5,418.5 C 457.833,418.5 479.167,418.5 500.5,418.5C 500.5,424.5 500.5,430.5 500.5,436.5C 479.497,436.333 458.497,436.5 437.5,437C 436.333,437.5 435.5,438.333 435,439.5C 434.333,456.5 434.333,473.5 435,490.5C 435.903,491.701 437.069,492.535 438.5,493C 459.164,493.5 479.831,493.667 500.5,493.5C 500.5,499.167 500.5,504.833 500.5,510.5C 478.497,510.667 456.497,510.5 434.5,510C 424.433,507.268 418.6,500.768 417,490.5C 416.333,473.5 416.333,456.5 417,439.5C 418.557,427.78 425.057,420.78 436.5,418.5 Z"/></g>
<g><path style="opacity:0.988" fill="#FFFFFF" d="M 528.5,418.5 C 534.167,418.5 539.833,418.5 545.5,418.5C 545.5,431.167 545.5,443.833 545.5,456.5C 564.5,456.5 583.5,456.5 602.5,456.5C 602.5,443.833 602.5,431.167 602.5,418.5C 608.167,418.5 613.833,418.5 619.5,418.5C 619.5,449.167 619.5,479.833 619.5,510.5C 613.833,510.5 608.167,510.5 602.5,510.5C 602.5,498.167 602.5,485.833 602.5,473.5C 583.5,473.5 564.5,473.5 545.5,473.5C 545.5,485.833 545.5,498.167 545.5,510.5C 539.833,510.5 534.167,510.5 528.5,510.5C 528.5,479.833 528.5,449.167 528.5,418.5 Z"/></g>
<g><path style="opacity:1" fill="#FFFFFF" d="M 59.5,418.5 C 89.5,418.5 119.5,418.5 149.5,418.5C 149.5,424.5 149.5,430.5 149.5,436.5C 137.167,436.5 124.833,436.5 112.5,436.5C 112.5,461.167 112.5,485.833 112.5,510.5C 106.833,510.5 101.167,510.5 95.5,510.5C 95.5,485.833 95.5,461.167 95.5,436.5C 83.5,436.5 71.5,436.5 59.5,436.5C 59.5,430.5 59.5,424.5 59.5,418.5 Z"/></g>
<g><path style="opacity:0.996" fill="#FFFFFF" d="M 294.5,418.5 C 300.5,418.5 306.5,418.5 312.5,418.5C 312.333,436.17 312.5,453.836 313,471.5C 316.09,484.316 324.257,491.482 337.5,493C 348.161,493.5 358.828,493.667 369.5,493.5C 369.5,468.5 369.5,443.5 369.5,418.5C 375.167,418.5 380.833,418.5 386.5,418.5C 386.667,447.502 386.5,476.502 386,505.5C 385.167,507.667 383.667,509.167 381.5,510C 365.5,510.667 349.5,510.667 333.5,510C 309.477,505.976 296.643,491.81 295,467.5C 294.5,451.17 294.333,434.837 294.5,418.5 Z"/></g>
<g><path style="opacity:0.992" fill="#f00c0c" d="M 784.5,420.5 C 800.17,420.333 815.837,420.5 831.5,421C 833.081,421.707 834.581,422.54 836,423.5C 837.484,452.745 837.984,482.079 837.5,511.5C 831.833,511.5 826.167,511.5 820.5,511.5C 820.5,504.167 820.5,496.833 820.5,489.5C 801.5,489.5 782.5,489.5 763.5,489.5C 763.5,496.833 763.5,504.167 763.5,511.5C 757.833,511.5 752.167,511.5 746.5,511.5C 746.333,493.497 746.5,475.497 747,457.5C 751.425,436.907 763.925,424.574 784.5,420.5 Z M 791.5,437.5 C 801.167,437.5 810.833,437.5 820.5,437.5C 820.5,449.167 820.5,460.833 820.5,472.5C 801.5,472.5 782.5,472.5 763.5,472.5C 761.875,451.813 771.208,440.146 791.5,437.5 Z"/></g>
<g><path style="opacity:0.984" fill="#f00c0c" d="M 874.5,420.5 C 897.836,420.333 921.169,420.5 944.5,421C 952.228,422.395 957.062,426.895 959,434.5C 961.856,446.684 960.523,458.351 955,469.5C 948.941,476.95 941.108,481.45 931.5,483C 942.167,492.333 952.833,501.667 963.5,511C 954.5,511.667 945.5,511.667 936.5,511C 925.833,501.667 915.167,492.333 904.5,483C 900.179,482.501 895.846,482.334 891.5,482.5C 891.5,476.833 891.5,471.167 891.5,465.5C 903.838,465.667 916.171,465.5 928.5,465C 935.075,464.641 939.575,461.474 942,455.5C 942.83,449.804 942.663,444.137 941.5,438.5C 923.213,437.513 904.88,437.18 886.5,437.5C 886.5,462.167 886.5,486.833 886.5,511.5C 880.5,511.5 874.5,511.5 868.5,511.5C 868.333,483.165 868.5,454.831 869,426.5C 870.36,423.977 872.193,421.977 874.5,420.5 Z"/></g>
<g><path style="opacity:0.999" fill="#f00c0c" d="M 655.5,420.5 C 677.167,420.5 698.833,420.5 720.5,420.5C 720.5,426.167 720.5,431.833 720.5,437.5C 699.446,437.046 678.446,437.546 657.5,439C 656.299,439.903 655.465,441.069 655,442.5C 654.333,458.5 654.333,474.5 655,490.5C 655.5,492.333 656.667,493.5 658.5,494C 679.164,494.5 699.831,494.667 720.5,494.5C 720.5,500.167 720.5,505.833 720.5,511.5C 698.164,511.667 675.831,511.5 653.5,511C 645.234,508.401 640.068,502.901 638,494.5C 637.333,475.833 637.333,457.167 638,438.5C 640.675,429.327 646.508,423.327 655.5,420.5 Z"/></g>
</svg>
