<svg xmlns="http://www.w3.org/2000/svg" xmlns:xlink="http://www.w3.org/1999/xlink" version="1.1" x="0px" y="0px"
     viewBox="0 0 64 64" style="enable-background:new 0 0 64 64;" xml:space="preserve"><g><path d="M40.95,0.04H7.23v59.07h33.72V0.04z M24.09,51.47c-5.28,0-9.58-4.29-9.58-9.58c0-5.28,4.3-9.57,9.58-9.57   s9.58,4.29,9.58,9.57C33.67,47.18,29.37,51.47,24.09,51.47z M38.65,18.8c0,0.57-0.47,1.03-1.03,1.03H10.56   c-0.57,0-1.03-0.46-1.03-1.03V5.32c0-0.56,0.46-1.03,1.03-1.03h27.06c0.56,0,1.03,0.47,1.03,1.03V18.8z" fill="#d20000"/>
    <path d="M43.36,61.18H4.82c-0.79,0-1.44,0.65-1.44,1.44s0.65,1.43,1.44,1.43h38.54c0.79,0,1.43-0.64,1.43-1.43   S44.15,61.18,43.36,61.18z" fill="#d20000"/>
    <path d="M60.13,13.19l-5.18-4.38L54.8,8.69l-5.2-4.41c-0.25-0.21-0.56-0.32-0.88-0.32c-0.4,0-0.77,0.17-1.03,0.48   c-0.47,0.57-0.4,1.42,0.17,1.91l4.82,4.07v10.27c0,0.44,0.21,0.85,0.56,1.1l4.69,3.4v24.25c0,1.65-1.35,2.99-3,2.99   c-1.65,0-2.99-1.34-2.99-2.99V36.54c0-3.4-2.76-6.17-6.16-6.17H42.7v2.7h3.06c1.91,0,3.46,1.56,3.46,3.47v12.89   c0,3.14,2.55,5.69,5.7,5.69c3.15,0,5.71-2.55,5.71-5.69v-35.2C60.61,13.82,60.44,13.44,60.13,13.19z M57.91,21.84L55.37,20v-7.3   l2.54,2.15V21.84z" fill="#d20000"/>
    <path d="M24.09,35.66l-3.2,5.56c-0.69,1.18-0.71,2.62-0.08,3.84c0.6,1.14,1.65,1.86,2.88,1.97c0.25,0.01,0.52,0.01,0.78,0   c1.23-0.12,2.29-0.83,2.87-1.97c0.64-1.22,0.61-2.66-0.06-3.84L24.09,35.66z" fill="#d20000"/></g>
</svg>
