<svg xmlns="http://www.w3.org/2000/svg" viewBox="0 0 96 96" x="0px" y="0px">
    <g data-name="1">
        <path d="M68.65,82.68v1.24a4.5,4.5,0,0,1-4.5,4.5H31.85a4.5,4.5,0,0,1-4.5-4.5V82.68ZM76.2,67.19H19.8V35.77H76.2ZM55,62a11.25,11.25,0,0,0,2.76-9.45,1.49,1.49,0,0,0-1.49-1.29h0a1.41,1.41,0,0,0-.45.07,10.67,10.67,0,0,0-1.55-4.13,14.7,14.7,0,0,1-2.46-7.8A1.51,1.51,0,0,0,49.67,38a10.79,10.79,0,0,0-4.88,6.32,6.91,6.91,0,0,0-3.27-1.42,1.52,1.52,0,0,0-1.6.76,1.47,1.47,0,0,0,.25,1.73c0,.07,1.28,1.59-.81,5.16a10.12,10.12,0,0,0-.1,9.7,8.91,8.91,0,0,0,7.26,4.92c.31,0,.61,0,.92,0A10.4,10.4,0,0,0,55,62Zm-2.65-4a1.51,1.51,0,0,1-.22-1.83,7.38,7.38,0,0,0-.41-7.42,19.67,19.67,0,0,1-2.62-6.48,9.56,9.56,0,0,0-2,6.19A1.5,1.5,0,0,1,45.82,50a1.52,1.52,0,0,1-1.61-1.26,3.73,3.73,0,0,0-.66-1.46A10.5,10.5,0,0,1,42,52a7.2,7.2,0,0,0,0,6.81,6,6,0,0,0,4.83,3.31A7.46,7.46,0,0,0,52.86,60,7,7,0,0,0,54,58.41,1.53,1.53,0,0,1,52.39,58.05ZM19.8,70.19v4a5.5,5.5,0,0,0,5.5,5.5H70.7a5.5,5.5,0,0,0,5.5-5.5v-4ZM76.2,32.77v-4a5.51,5.51,0,0,0-5.5-5.5H25.3a5.51,5.51,0,0,0-5.5,5.5v4ZM46.47,20.28h3.06V15H46.47ZM58.9,7.58H37.1a5.5,5.5,0,0,0-5.5,5.5v7.2H43.47V13.5A1.5,1.5,0,0,1,45,12H51a1.5,1.5,0,0,1,1.5,1.5v6.78H64.4v-7.2A5.5,5.5,0,0,0,58.9,7.58Z" fill="#d20000"/>
    </g>
</svg>
