<svg xmlns="http://www.w3.org/2000/svg" xmlns:xlink="http://www.w3.org/1999/xlink" version="1.1" x="0px" y="0px"
     viewBox="0 0 64 64" style="enable-background:new 0 0 64 64;" xml:space="preserve" fill="#d20000"><path d="M61.4,23.1l-6-3C55.3,20,55.2,20,55,20h-5c0-0.6-0.4-1-1-1h-2.3C40.8,19,36,23.8,36,29.7V38c0,0.6,0.4,1,1,1h1v3  c0,3.5-2.6,6.4-6,6.9V3c0-0.6-0.4-1-1-1H5C4.4,2,4,2.4,4,3v53H3c-0.6,0-1,0.4-1,1v4c0,0.6,0.4,1,1,1h30c0.6,0,1-0.4,1-1v-4  c0-0.6-0.4-1-1-1h-1v-5.1c4.5-0.5,8-4.3,8-8.9v-3h9c0.6,0,1-0.4,1-1V26h4.8l5.8,2.9C60.7,29,60.8,29,61,29c0.2,0,0.4,0,0.5-0.1  c0.3-0.2,0.5-0.5,0.5-0.9v-4C62,23.6,61.8,23.3,61.4,23.1z M32,60H4v-2h1h26h1V60z M6,56V4h24v52H6z M38,29.7c0-4.8,3.9-8.7,8.7-8.7  H48v4v2h-5c-0.3,0-0.6,0.2-0.8,0.4l-2,3C40.1,30.6,40,30.8,40,31v6h-2V29.7z M44.1,34.4l1.3,2.6H42v-5.7l1.5-2.3H44v5  C44,34.2,44,34.3,44.1,34.4z M47.6,37L46,33.8V29h2v8H47.6z M60,26.4l-4.6-2.3C55.3,24,55.2,24,55,24h-5v-2h4.8l5.2,2.6V26.4z" fill="#d20000"/>
    <path d="M56.1,34.5c-0.6,1.1-6,10.9-3.4,15.4c0.6,1,1.8,2.1,4.3,2.1s3.7-1.1,4.3-2.1c2.6-4.4-2.8-14.3-3.4-15.4  C57.5,33.9,56.5,33.9,56.1,34.5z M59.6,48.9C59.4,49.2,58.9,50,57,50s-2.4-0.8-2.6-1.1c-1.3-2.3,0.6-7.8,2.6-11.7  C58.9,41.1,60.9,46.6,59.6,48.9z" fill="#d20000"/>
    <path d="M27,6H9C8.4,6,8,6.4,8,7v12c0,0.6,0.4,1,1,1h18c0.6,0,1-0.4,1-1V7C28,6.4,27.6,6,27,6z M26,18H10V8h16V18z"/>
    <path d="M22,36h-6.2l4-6.5l-1.7-1.1l-5,8c-0.2,0.3-0.2,0.7,0,1c0.2,0.3,0.5,0.5,0.9,0.5h6.2l-4,6.5l1.7,1.1l5-8c0.2-0.3,0.2-0.7,0-1  C22.7,36.2,22.4,36,22,36z" fill="#d20000"/>
</svg>
