<svg xmlns="http://www.w3.org/2000/svg" xmlns:xlink="http://www.w3.org/1999/xlink" version="1.1" x="0px" y="0px"
     viewBox="0 0 64 64" style="enable-background:new 0 0 64 64;" xml:space="preserve"><g><g><g><path d="M58.73,25.88c-0.2,0-0.4-0.06-0.57-0.18l-4.93-3.57c-0.25-0.18-0.4-0.47-0.4-0.78V11.1c0-0.54,0.43-0.97,0.97-0.97     s0.97,0.43,0.97,0.97v9.74l4.53,3.28c0.43,0.31,0.53,0.92,0.22,1.35C59.32,25.74,59.03,25.88,58.73,25.88z" fill="#d20000"/></g></g><g><g><g><path d="M42.5,59.37H8.88c-0.54,0-0.97-0.43-0.97-0.97V0.97C7.91,0.43,8.34,0,8.88,0H42.5c0.54,0,0.97,0.43,0.97,0.97V58.4      C43.47,58.94,43.03,59.37,42.5,59.37z M9.85,57.43h31.68V1.94H9.85V57.43z" fill="#d20000"/></g></g>
    <g><g><path d="M43.79,64H7.59c-1.81,0-3.28-1.47-3.28-3.28s1.47-3.28,3.28-3.28h36.2c1.81,0,3.28,1.47,3.28,3.28S45.6,64,43.79,64z       M7.59,59.37c-0.74,0-1.34,0.6-1.34,1.34s0.6,1.34,1.34,1.34h36.2c0.74,0,1.34-0.6,1.34-1.34s-0.6-1.34-1.34-1.34H7.59z" fill="#d20000"/></g></g>
    <g><g><path d="M38.4,20.53H12.98c-0.54,0-0.97-0.43-0.97-0.97V6.9c0-0.54,0.43-0.97,0.97-0.97H38.4c0.54,0,0.97,0.43,0.97,0.97v12.66      C39.37,20.1,38.93,20.53,38.4,20.53z M13.95,18.59h23.48V7.87H13.95V18.59z" fill="#d20000"/></g></g>
    <g><g><path d="M25.69,51.92c-5.88,0-10.67-4.78-10.67-10.67s4.78-10.67,10.67-10.67c5.88,0,10.67,4.79,10.67,10.67      S31.57,51.92,25.69,51.92z M25.69,32.53c-4.81,0-8.73,3.91-8.73,8.73s3.92,8.73,8.73,8.73c4.81,0,8.73-3.91,8.73-8.73      S30.5,32.53,25.69,32.53z" fill="#d20000"/></g></g>
    <g><g><path d="M54.64,53.38c-2.79,0-5.05-2.27-5.05-5.05V36.22c0-1.96-1.6-3.56-3.56-3.56H42.5c-0.54,0-0.97-0.43-0.97-0.97      c0-0.54,0.43-0.97,0.97-0.97h3.54c3.03,0,5.49,2.46,5.49,5.49v12.11c0,1.72,1.4,3.11,3.11,3.11c1.72,0,3.11-1.4,3.11-3.11V15.71      L48.2,7.63c-0.41-0.35-0.46-0.96-0.11-1.37c0.35-0.41,0.96-0.46,1.37-0.11l9.9,8.37c0.22,0.18,0.34,0.45,0.34,0.74v33.07      C59.7,51.12,57.43,53.38,54.64,53.38z" fill="#d20000"/></g></g>
    <g><g><path d="M25.69,48.07c-0.16,0-0.32-0.01-0.47-0.02c-1.6-0.14-3-1.1-3.76-2.55c-0.8-1.53-0.76-3.33,0.09-4.82l3.3-5.75      c0.35-0.6,1.34-0.6,1.68,0l3.3,5.75c0.85,1.49,0.89,3.29,0.09,4.82c-0.76,1.45-2.16,2.41-3.76,2.55      C26.01,48.06,25.85,48.07,25.69,48.07z M25.69,37.36l-2.46,4.28c-0.52,0.91-0.54,2.02-0.05,2.96c0.46,0.88,1.26,1.43,2.21,1.51      c0.2,0.02,0.4,0.02,0.6,0c0.95-0.09,1.76-0.64,2.21-1.51c0.49-0.94,0.47-2.05-0.05-2.96L25.69,37.36z" fill="#d20000"/></g></g></g></g>
</svg>
